<svg width="95" height="95" viewBox="0 0 95 95" fill="none" xmlns="http://www.w3.org/2000/svg">
<path fill-rule="evenodd" clip-rule="evenodd" d="M52.3762 66.3853C52.021 65.0246 50.2514 63.9857 48.9578 64.8235C48.0194 65.4335 47.2217 66.2982 46.5849 67.2902C46.3436 65.8692 46.4241 64.3208 46.7525 62.9937C47.0072 61.9748 47.9523 60.7281 49.0784 59.8366C49.4404 60.4331 49.9498 60.9627 50.5866 61.3715C51.8199 62.1558 53.5358 62.0351 53.6833 60.4466C53.7168 60.5873 53.7503 60.7281 53.7771 60.8889C53.804 61.0297 54.0318 60.9962 54.0251 60.8554C53.8643 57.256 51.4781 57.8525 49.3733 59.4545C48.4215 57.7319 49.4873 55.6138 50.6871 54.1659C52.9058 51.4848 52.9192 55.54 54.7625 56.0696C57.2291 56.7801 58.3351 52.6042 57.1688 50.2716C58.3083 50.0236 59.307 48.5824 59.8902 47.2016C60.2521 47.2888 60.6476 47.2955 61.0297 47.2016C61.2039 47.1614 61.1235 46.9134 60.9559 46.9402C59.7628 47.1547 58.8378 46.2834 59.0925 45.0768C59.3472 43.8837 60.661 43.5955 61.6664 43.9105C62.1692 44.0647 62.826 44.5741 63.3288 45.1774C62.6719 46.0085 62.4038 47.1279 62.8193 48.1333C62.8595 48.2339 62.9534 48.3009 63.0673 48.2741C64.8637 47.7982 64.7699 46.4442 63.9722 45.2712C64.2537 44.9562 64.5755 44.6479 64.924 44.3194C65.0112 44.239 64.924 44.0781 64.8034 44.1183C64.3677 44.2658 63.9722 44.5272 63.6438 44.8489C62.9735 44.0714 62.0284 43.4413 61.2106 43.3341C59.8365 43.1531 58.6166 44.0781 58.5496 45.4924C58.5094 46.3169 58.9518 46.8464 59.5617 47.1011C59.307 47.4228 59.0657 47.758 58.8311 48.0998C58.563 48.4417 58.2949 48.7902 58.0268 49.1321C57.1219 49.0449 56.4851 49.0315 56.0963 49.1053C55.8818 48.9846 55.6472 48.8908 55.3858 48.8372C55.178 48.7969 54.9099 49.0315 55.0775 49.2393C55.5869 49.9029 56.103 50.2179 56.5991 50.2917C56.6393 50.3185 56.6728 50.3453 56.7197 50.3721C57.3632 51.3775 57.1956 52.8455 56.9007 53.9179C56.4382 55.6071 54.6351 56.1366 53.7637 54.5413C53.5224 54.0989 53.3347 53.623 53.08 53.1873C51.9003 51.1899 49.6012 54.7625 49.0985 55.6004C48.2741 56.9879 48.3277 58.496 49.0181 59.736C47.8518 60.7013 46.8128 61.9279 46.3705 62.8395C45.9214 63.7712 45.8141 65.9764 46.1895 67.9404C44.0714 71.8348 44.2523 77.4183 48.0931 79.7241C48.3612 79.8849 48.5891 79.476 48.3344 79.3085C45.1103 77.2105 45.0165 73.7786 45.8945 70.4204C46.042 69.9177 46.2297 69.4217 46.4308 68.9391C47.0206 70.8762 48.1802 72.2436 50.0973 71.198C52.0076 70.1456 52.9393 68.5369 52.3762 66.3853ZM63.1813 47.8384C63.0137 46.9067 63.2349 46.2431 63.6773 45.6466C64.2605 46.5515 64.3744 47.51 63.1813 47.8384ZM53.5559 60.0712C53.4219 60.031 53.261 60.0846 53.2744 60.2589C53.4353 62.4574 50.7005 60.9292 49.9967 60.2656C49.7621 60.0444 49.5811 59.8165 49.4337 59.5819C51.0155 58.4625 52.832 58.1274 53.5559 60.0712ZM46.9469 68.7045C46.8799 68.5235 46.8262 68.3358 46.7726 68.1482C46.786 68.1214 46.7927 68.1012 46.8061 68.0744C47.5233 66.1574 49.1656 65.4737 51.7194 66.0301C53.9782 69.1871 48.3277 72.4983 46.9469 68.7045Z" fill="#FBECEC"/>
<path fill-rule="evenodd" clip-rule="evenodd" d="M41.8461 60.7217C42.3891 57.5311 39.2521 53.9049 36.3565 52.5978C36.1688 50.225 33.8496 48.0197 31.4768 47.8991C31.3293 44.0449 27.569 41.9938 24.1706 41.3504C23.8221 41.2833 23.6746 41.7861 24.0231 41.8866C26.3088 42.5301 28.9699 43.435 30.2434 45.6067C30.6389 46.2837 30.7931 47.1283 30.8534 47.9192C30.2166 47.9929 29.5865 48.2141 29.0168 48.6565C28.8492 48.7839 28.8291 48.9648 28.9565 49.1257C30.3574 50.9288 31.3963 50.2116 31.4768 48.375C31.765 48.3415 31.9996 48.3214 32.08 48.3415C33.7088 48.6297 34.855 50.406 35.4181 51.8136C35.4985 52.0147 35.5588 52.2224 35.599 52.4302C34.0909 52.142 32.2208 52.5911 32.5559 54.5416C32.7905 55.9157 35.3778 55.6811 35.9208 54.6757C36.209 54.1462 36.3364 53.5965 36.3565 53.0469C38.7159 54.4746 41.6651 57.3703 41.2697 60.3463C39.6677 59.3811 37.7104 58.9387 37.3485 60.8759C37.0737 62.3572 38.3807 64.9512 40.1503 63.4967C41.015 62.7862 41.5244 61.9751 41.759 61.1306C41.8595 61.2244 41.9534 61.3049 42.0539 61.4121C42.999 62.2097 43.3811 63.5302 43.6961 64.663C44.6613 68.1753 43.8503 72.2775 43.3677 75.8099C43.3342 76.0646 43.7229 76.1853 43.7631 75.9171C44.5072 71.4597 45.459 66.4795 43.361 62.2567C43.1398 61.8143 42.5633 61.2311 41.8461 60.7217ZM29.7675 49.1793C29.4458 48.8643 30.1697 48.6096 30.9003 48.4621C31.021 49.233 30.6456 49.4743 29.7675 49.1793ZM35.646 53.8848C35.465 54.5752 34.9958 54.9103 34.2316 54.9036C33.8496 54.5551 33.4675 54.2065 33.0855 53.858C33.8228 52.886 34.6807 52.5107 35.646 52.7185C35.713 53.1072 35.713 53.5027 35.646 53.8848ZM40.2106 62.6722C39.4532 62.498 38.6958 62.3237 37.9383 62.1494C38.9438 60.3933 40.0363 59.9174 41.2161 60.6815C41.0686 61.3518 40.7536 62.0221 40.2106 62.6722Z" fill="#FBECEC"/>
<path fill-rule="evenodd" clip-rule="evenodd" d="M46.6922 43.1465C46.605 42.8582 46.1828 42.8515 46.1023 43.1465C45.4991 45.3182 43.1531 47.0006 41.913 44.0513C40.9746 41.8126 43.5284 40.0698 45.3114 39.4934C45.7203 39.3593 46.4643 39.3459 46.7525 38.9303C48.0529 37.0468 46.7726 33.3133 45.8543 31.517C45.6733 31.1617 45.1438 31.4767 45.3181 31.8253C46.1627 33.5412 46.4576 35.3242 46.5246 37.2211C46.5849 38.9974 45.3717 38.6957 44.4132 39.1381C42.7442 39.9157 41.5377 40.9613 41.1824 42.818C40.8674 44.4468 42.6906 47.2218 44.6009 46.384C45.2511 46.0957 46.6252 45.0501 46.404 44.3061C46.9 45.9885 47.5703 51.3307 44.3663 51.2368C43.9038 51.2234 43.3877 51.4848 42.9386 51.6055C39.7346 52.4903 44.4199 58.791 45.4253 59.602C45.6599 59.7897 45.9884 59.4747 45.7605 59.2669C45.4723 59.0122 40.6529 52.1887 43.3743 52.1887C44.0512 52.1887 44.9628 51.9339 45.6398 51.753C48.5489 50.9955 47.1882 44.8222 46.6922 43.1465Z" fill="#FBECEC"/>
<path fill-rule="evenodd" clip-rule="evenodd" d="M76.6609 53.7907C76.9424 53.6969 76.8284 53.288 76.5402 53.3483C63.6841 55.8753 53.8912 66.8345 51.458 79.4561C51.4044 79.7309 51.82 79.8515 51.887 79.57C55.1647 66.1844 63.8047 58.0404 76.6609 53.7907Z" fill="#FBECEC"/>
<path fill-rule="evenodd" clip-rule="evenodd" d="M56.2773 32.7169C56.1231 32.7706 56.1097 32.9515 56.2371 33.0454C56.398 33.166 56.599 33.2196 56.8068 33.2465C52.6913 39.0042 49.9833 46.4511 48.3076 53.1272C48.2741 53.2747 48.4752 53.3216 48.5288 53.1875C50.0637 49.2731 51.4043 45.305 53.1001 41.4508C54.367 38.5887 55.9824 35.9477 57.524 33.2465C57.6648 33.2263 57.7989 33.2062 57.9195 33.1794C58.5898 33.0387 59.1327 32.5829 59.5483 32.06C59.7628 31.7986 59.4009 31.4166 59.1662 31.678C58.8177 32.0735 58.4222 32.3416 57.9329 32.5091C58.1139 32.1874 58.2949 31.8657 58.4692 31.5439C58.5496 31.3965 58.3485 31.2222 58.2345 31.3629C57.8927 31.7718 57.5643 32.2008 57.2358 32.6298C56.9208 32.6365 56.5923 32.6097 56.2773 32.7169Z" fill="#FBECEC"/>
<path fill-rule="evenodd" clip-rule="evenodd" d="M40.1301 51.74C39.8017 45.332 35.1566 37.3757 30.0892 33.5014C29.868 33.3339 29.6535 33.6757 29.8144 33.8634C34.2718 39.0313 38.9772 44.6483 39.6877 51.74C39.7145 52.0215 40.1502 52.0349 40.1301 51.74Z" fill="#FBECEC"/>
<path fill-rule="evenodd" clip-rule="evenodd" d="M34.3991 32.9715C34.627 32.8241 34.8348 32.6632 35.0493 32.5023C35.2571 32.3817 35.4649 32.3012 35.6794 32.2476C35.6861 32.3348 35.6995 32.4219 35.7129 32.5157C35.4716 32.9246 35.2504 33.3402 35.0493 33.7625C34.9689 33.6418 34.8951 33.5212 34.8147 33.4005C34.6672 33.186 34.3589 33.367 34.4661 33.6016C34.5801 33.8429 34.7007 34.0708 34.8147 34.3121C34.8147 34.3858 34.8415 34.4529 34.9085 34.4998C36.5507 37.7775 38.5415 40.8407 39.3726 44.4871C39.4129 44.6681 39.6676 44.5876 39.6408 44.4134C39.0643 40.834 37.335 37.3418 35.371 34.2652C35.5855 33.977 35.8 33.682 36.0011 33.3804C36.1687 33.3871 36.3698 33.2463 36.3362 33.0251C36.3295 32.9782 36.3228 32.9313 36.3228 32.8844C36.4502 32.6833 36.5775 32.4822 36.6982 32.2744C36.9529 32.3549 37.2143 32.5023 37.4556 32.7168C37.6768 32.9112 38.1192 32.7302 37.9986 32.4018C37.831 31.946 37.6098 31.5237 37.3819 31.1081C37.5092 30.8802 37.6433 30.6523 37.7707 30.4244C37.9382 30.1295 37.6031 29.8145 37.3149 29.9686C37.154 30.0558 37.0132 30.163 36.8658 30.2569C36.6178 29.8681 36.3631 29.486 36.1016 29.0973C35.9542 28.8761 35.5654 28.9431 35.5721 29.238C35.5922 29.8949 35.5922 30.5451 35.619 31.1953C35.2973 31.4634 34.9756 31.7315 34.6404 31.9862C34.4192 32.1203 34.2047 32.2677 34.0036 32.4554C33.7221 32.7101 34.0841 33.1793 34.3991 32.9715Z" fill="#FBECEC"/>
<path fill-rule="evenodd" clip-rule="evenodd" d="M27.4215 28.4337C27.455 27.4216 27.6896 26.4564 28.1387 25.5448C28.3532 25.1024 28.6548 24.7203 28.9966 24.3718C29.258 24.1037 29.553 23.9964 29.7138 23.6546C29.7675 23.5406 29.7004 23.4334 29.5798 23.42C28.7017 23.3127 27.951 24.5796 27.5957 25.2298C27.0729 26.2017 26.8718 27.3479 26.8651 28.4404C26.8651 28.789 27.408 28.789 27.4215 28.4337Z" fill="#FBECEC"/>
<path fill-rule="evenodd" clip-rule="evenodd" d="M28.3398 27.0869C28.1923 27.3818 28.6213 27.6432 28.7889 27.3483C29.1039 26.7785 29.4927 26.2758 30.0155 25.8871C30.2903 25.6793 30.6054 25.5586 30.9472 25.5385C31.1952 25.5251 31.403 25.5921 31.6443 25.5184C31.7315 25.4916 31.765 25.3978 31.7248 25.3173C31.3963 24.6805 30.5115 24.9218 30.0021 25.1632C29.2313 25.5318 28.695 26.3563 28.3398 27.0869Z" fill="#FBECEC"/>
<path fill-rule="evenodd" clip-rule="evenodd" d="M29.1038 29.2718C29.6937 28.8294 30.3171 28.5278 31.041 28.3669C31.8721 28.1792 32.4687 28.568 33.1457 28.9635C33.2529 29.0305 33.4071 28.9233 33.3669 28.7959C32.71 26.7448 29.8613 27.9379 28.7754 28.8495C28.5408 29.0439 28.8558 29.4595 29.1038 29.2718Z" fill="#FBECEC"/>
<path fill-rule="evenodd" clip-rule="evenodd" d="M31.5973 30.6593C32.0799 30.9341 32.4419 31.3631 32.9111 31.6446C33.0518 31.7317 33.2797 31.5843 33.2127 31.4167C32.7703 30.2839 31.3426 29.8013 30.2433 29.6069C29.935 29.5533 29.7942 30.0091 30.1093 30.0895C30.6388 30.2236 31.1281 30.3979 31.5973 30.6593Z" fill="#FBECEC"/>
<path fill-rule="evenodd" clip-rule="evenodd" d="M28.7352 30.6862C28.5006 30.465 28.1587 30.8068 28.3799 31.0414C28.7083 31.3833 29.0368 31.7251 29.325 32.1005C29.5596 32.4021 29.7406 32.9585 30.1294 33.059C30.2299 33.0858 30.317 33.0255 30.3506 32.9316C30.4913 32.5496 30.0824 32.1407 29.8612 31.8592C29.5261 31.4369 29.1239 31.0615 28.7352 30.6862Z" fill="#FBECEC"/>
<path fill-rule="evenodd" clip-rule="evenodd" d="M27.0729 37.0805C28.514 35.9679 28.4336 34.0844 27.7834 32.5494C27.6627 32.2679 27.1734 32.469 27.2874 32.7572C27.8571 34.2519 27.6493 35.5255 26.778 36.8459C26.6439 37.047 26.9187 37.2012 27.0729 37.0805Z" fill="#FBECEC"/>
<path fill-rule="evenodd" clip-rule="evenodd" d="M24.5326 33.9839C24.9884 33.7962 25.3302 33.461 25.5581 33.032C25.7257 32.717 25.2565 32.4422 25.0822 32.7505C24.8744 33.1259 24.5862 33.3538 24.184 33.4878C23.869 33.5951 23.4869 33.5683 23.2121 33.7627C23.1116 33.8364 23.1049 33.9705 23.2121 34.0442C23.5808 34.2922 24.1572 34.1447 24.5326 33.9839Z" fill="#FBECEC"/>
<path fill-rule="evenodd" clip-rule="evenodd" d="M23.822 31.0815C24.1169 30.9341 23.8555 30.5185 23.5673 30.6459C23.2187 30.8 22.8836 30.8738 22.5015 30.8603C22.1396 30.8469 21.8447 30.5922 21.4961 30.5319C21.3956 30.5118 21.3084 30.5922 21.3352 30.6995C21.6033 31.7585 23.145 31.4301 23.822 31.0815Z" fill="#FBECEC"/>
<path fill-rule="evenodd" clip-rule="evenodd" d="M22.8165 29.2852C23.1249 29.3925 23.2455 28.9166 22.9506 28.8026C21.7307 28.3267 21.5028 27.3079 21.2481 26.155C21.2079 25.974 20.9062 25.9606 20.866 26.155C20.6046 27.576 21.4894 28.8428 22.8165 29.2852Z" fill="#FBECEC"/>
<path fill-rule="evenodd" clip-rule="evenodd" d="M24.5191 27.9044C24.0968 27.2006 23.8555 26.4566 23.7014 25.6589C23.5673 24.9417 23.7349 24.2379 23.6343 23.5341C23.6142 23.3933 23.4332 23.4067 23.3662 23.5006C22.4412 24.7607 23.3327 27.0196 24.0901 28.1591C24.2644 28.4205 24.68 28.1792 24.5191 27.9044Z" fill="#FBECEC"/>
<path fill-rule="evenodd" clip-rule="evenodd" d="M25.357 26.1345C25.2564 25.6922 25.2229 25.2498 25.2229 24.794C25.2296 24.3717 25.3101 23.9561 25.243 23.5338C25.2229 23.4065 25.0553 23.4199 25.0017 23.5003C24.4856 24.2443 24.68 25.4441 24.8744 26.2686C24.9481 26.5836 25.424 26.4496 25.357 26.1345Z" fill="#FBECEC"/>
<path fill-rule="evenodd" clip-rule="evenodd" d="M59.8968 31.3631C60.2186 31.4904 60.4532 30.9341 60.1381 30.8C60.0845 30.7799 60.0376 30.7464 59.9907 30.7196C60.0443 30.7598 60.118 30.7866 60.1851 30.7866C61.1369 30.7598 62.1222 30.3643 62.1758 29.2919C62.2227 28.3937 61.3916 27.6832 60.5738 27.5223C60.3124 27.4687 60.0443 27.4687 59.7896 27.5156C59.8164 27.4687 59.8298 27.4151 59.8164 27.348C59.6689 26.5705 59.7024 25.7863 59.8767 25.0154C60.0644 24.1843 60.6006 23.5877 60.9425 22.8437C61.0162 22.6895 60.8687 22.5153 60.7012 22.6024C59.0925 23.4671 58.9383 25.9337 59.3338 27.4821C59.3472 27.5424 59.3807 27.5826 59.4209 27.6162C58.8579 27.824 58.4021 28.273 58.3015 28.9232C58.134 30.0158 58.9316 30.981 59.8968 31.3631ZM60.3593 29.0305C60.4398 28.7087 60.8151 28.6015 61.0698 28.4473C61.3044 28.6417 61.4854 28.9098 61.5189 29.2047C61.586 29.8415 60.9626 30.056 60.4331 30.1163C60.3392 29.7544 60.2722 29.3857 60.3593 29.0305ZM60.2119 28.1457C59.5483 28.5814 59.6622 29.8147 59.8633 30.5453C59.8834 30.6124 59.9236 30.6727 59.984 30.7196C58.7506 30.056 58.5026 28.1591 60.2119 28.1457Z" fill="#FBECEC"/>
<path fill-rule="evenodd" clip-rule="evenodd" d="M60.8286 26.6775C61.0565 25.8933 61.3648 25.156 61.834 24.4857C62.33 23.7752 63.1009 23.5942 63.7309 23.0714C63.8181 23.0043 63.7712 22.8435 63.6639 22.8234C62.7992 22.6491 61.9882 23.3529 61.4721 23.9696C60.8621 24.7002 60.5538 25.6319 60.3393 26.5435C60.2655 26.8585 60.7414 26.9926 60.8286 26.6775Z" fill="#FBECEC"/>
<path fill-rule="evenodd" clip-rule="evenodd" d="M62.7993 26.7982C63.2685 26.3692 63.7779 26.1011 64.4214 26.081C65.0581 26.0609 65.467 26.5435 66.0233 26.7446C66.1306 26.7848 66.2177 26.6709 66.1976 26.5703C66.0301 25.9 65.2592 25.4912 64.6023 25.4644C63.7511 25.4308 63.0205 25.833 62.4306 26.4162C62.1759 26.6642 62.5445 27.0261 62.7993 26.7982Z" fill="#FBECEC"/>
<path fill-rule="evenodd" clip-rule="evenodd" d="M64.0326 27.8642C64.6359 27.8977 65.1922 28.0787 65.6681 28.4674C66.144 28.8562 66.392 29.4393 66.7003 29.9555C66.8009 30.1163 67.0757 30.056 67.069 29.8549C66.9953 28.2798 65.4871 27.3615 64.0326 27.3883C63.7176 27.3883 63.7243 27.8441 64.0326 27.8642Z" fill="#FBECEC"/>
<path fill-rule="evenodd" clip-rule="evenodd" d="M65.1117 32.3213C65.1385 32.442 65.3128 32.4621 65.3664 32.3548C65.9563 31.2087 65.2323 29.8815 64.4079 29.0637C64.1733 28.8291 63.8314 29.1844 64.0526 29.419C64.4213 29.8212 64.6961 30.2501 64.8637 30.7663C65.038 31.269 65.0112 31.8052 65.1117 32.3213Z" fill="#FBECEC"/>
<path fill-rule="evenodd" clip-rule="evenodd" d="M61.2978 35.0228C61.2308 35.1099 61.2643 35.2775 61.3983 35.2641C63.2953 35.0831 64.0527 32.7572 63.4762 31.2021C63.3623 30.8871 62.8663 31.0145 62.9668 31.3429C63.188 32.0668 63.1746 32.7438 62.8261 33.4275C62.4775 34.1179 61.7737 34.453 61.2978 35.0228Z" fill="#FBECEC"/>
<path fill-rule="evenodd" clip-rule="evenodd" d="M60.9627 32.0201C60.7214 32.6635 60.3728 33.2065 59.9103 33.7092C59.535 34.1248 58.9049 34.3594 58.6234 34.842C58.5631 34.9492 58.6435 35.0632 58.7574 35.0699C59.4009 35.1168 60.031 34.4331 60.4265 33.9907C60.8957 33.4679 61.204 32.8043 61.4185 32.1407C61.519 31.8525 61.0699 31.7385 60.9627 32.0201Z" fill="#FBECEC"/>
<path fill-rule="evenodd" clip-rule="evenodd" d="M57.008 31.3363C57.3699 31.2693 57.2091 30.7398 56.8605 30.7934C56.4584 30.8537 56.0562 30.78 55.7478 30.5052C55.4663 30.2572 55.4194 29.8684 55.2652 29.5467C55.1915 29.3858 54.9837 29.4595 54.9301 29.5936C54.729 30.0963 55.0105 30.6526 55.3926 30.9878C55.8417 31.3967 56.4516 31.4436 57.008 31.3363Z" fill="#FBECEC"/>
<path fill-rule="evenodd" clip-rule="evenodd" d="M55.3792 26.5298C55.0776 27.0459 55.3725 27.7698 55.654 28.2323C55.969 28.7552 56.512 29.0836 57.0616 29.3048C57.3431 29.4187 57.5442 28.9361 57.2694 28.8155C56.8203 28.6144 56.4517 28.3463 56.1701 27.9374C55.8752 27.5084 55.9221 26.9588 55.654 26.5365C55.5937 26.4293 55.4462 26.4226 55.3792 26.5298Z" fill="#FBECEC"/>
<path fill-rule="evenodd" clip-rule="evenodd" d="M24.3181 30.4043C24.4588 31.2555 25.2699 31.7516 26.0541 31.9258C26.3759 31.9996 26.5166 31.517 26.1882 31.4298C25.6788 31.2891 25.1626 31.0075 24.9549 30.4914C24.7605 30.0088 25.0956 29.6469 25.5246 29.4793C26.0139 29.2849 26.8719 29.1844 27.2137 29.6938C27.5355 30.1697 26.8719 30.4914 26.5837 30.726C26.4362 30.8467 26.5702 31.0612 26.7244 31.0679C27.4952 31.1215 28.0516 30.3104 27.8438 29.6066C27.5623 28.6615 26.3759 28.6548 25.605 28.8157C24.8677 28.9699 24.184 29.5798 24.3181 30.4043Z" fill="#FBECEC"/>
<path fill-rule="evenodd" clip-rule="evenodd" d="M13.3185 56.5923C13.4392 56.7867 13.5665 56.981 13.6805 57.1821C13.8615 57.4972 14.4245 57.2827 14.2837 56.9274C14.2703 56.9006 14.2569 56.8738 14.2502 56.847C14.2502 56.8403 14.2435 56.8403 14.2435 56.8336C13.7676 55.6874 13.1509 54.6618 12.3935 53.6832C12.3265 53.6028 12.2662 53.5223 12.2058 53.4486C12.7086 53.0599 13.1912 52.651 13.6403 52.1952C13.9017 52.0611 14.1698 51.9472 14.458 51.8466C14.8468 51.7193 14.6859 51.1227 14.2904 51.2367C14.2837 51.2367 14.277 51.2434 14.277 51.2434C14.2435 51.116 14.143 51.0088 13.9687 51.0088C13.3252 51.0021 12.6817 50.9686 12.0383 50.9283C12.0115 50.4256 11.9578 49.943 11.8171 49.4403C11.8037 49.3867 11.7702 49.3465 11.7366 49.3196C11.7031 49.1588 11.6763 48.9979 11.6361 48.8303C11.5691 48.5488 11.0865 48.5153 11.0328 48.8303C10.9457 49.4202 10.8116 50.1307 10.7446 50.8412C9.99389 50.7742 9.24987 50.7071 8.49915 50.6267C8.19081 50.5932 8.13049 50.9753 8.27795 51.1629C8.88121 51.9338 9.47777 52.7314 10.1078 53.5022C10.014 53.9111 9.82632 54.2932 9.5582 54.635C9.18284 54.93 8.81418 55.2383 8.46563 55.5734C8.18411 55.8416 8.54607 56.2906 8.87451 56.103C9.34371 55.8281 9.71907 55.4997 10.0207 55.131C10.3156 54.8964 10.6106 54.6685 10.9122 54.4474C11.6361 55.2316 12.4203 55.9756 13.3185 56.5923ZM12.045 51.5852C12.4404 51.612 12.8359 51.6321 13.2247 51.6455C13.2046 51.6657 13.1845 51.6925 13.1576 51.7126C12.7622 51.9271 12.3868 52.1818 12.0383 52.47C12.0316 52.2086 12.0249 51.9472 12.0115 51.6925C12.0316 51.6657 12.045 51.6254 12.045 51.5852ZM9.19625 51.3238C9.46436 51.3573 9.73918 51.3841 10.0073 51.4109C9.98048 51.4713 9.97378 51.545 10.0006 51.6254C10.1011 51.9472 10.1481 52.2555 10.1682 52.5571C9.83972 52.1483 9.51798 51.7394 9.19625 51.3238Z" fill="#FBECEC"/>
<path fill-rule="evenodd" clip-rule="evenodd" d="M84.4094 49.9968C83.8262 50.104 83.2498 50.2247 82.6666 50.3453C82.7471 49.8292 82.861 49.3064 83.0018 48.7903C83.0889 48.4752 82.6599 48.1937 82.4253 48.4551C81.7885 49.1925 81.2255 49.9767 80.6893 50.781C80.3474 50.8548 80.0056 50.9218 79.6637 50.9955C78.7722 50.3051 77.7467 49.7957 76.4731 49.5946C76.0576 49.5276 75.8766 50.1644 76.2989 50.2314C77.244 50.3789 78.0416 50.714 78.7521 51.1698C78.236 51.2636 77.7199 51.3575 77.1971 51.4245C76.8083 51.4714 76.7882 52.0747 77.1971 52.0479C77.9746 51.9876 78.7387 51.8669 79.5029 51.7261C79.6302 51.8334 79.7576 51.9473 79.8782 52.0613C79.3152 53.0198 78.7923 53.9984 78.3231 55.0106C78.1891 55.2921 78.484 55.6942 78.7924 55.4798C79.6436 54.8899 80.5016 54.2934 81.3394 53.6767C81.8221 54.2866 82.298 54.9301 82.7806 55.5602C82.8007 55.5803 82.8141 55.6071 82.8342 55.6272C83.0822 55.9423 83.5447 55.5401 83.3704 55.2116C82.928 54.3939 82.6934 53.5426 82.5996 52.678C83.3704 52.0345 84.0943 51.3374 84.7378 50.5531C84.9657 50.2984 84.7579 49.9298 84.4094 49.9968ZM79.7777 53.9649C79.6905 54.0252 79.6101 54.0856 79.523 54.1459C79.7509 53.6901 79.9989 53.2477 80.2536 52.8053C80.267 52.8522 80.2871 52.8857 80.3273 52.9193C80.1329 53.2611 79.9519 53.6097 79.7777 53.9649ZM81.44 52.745C81.3998 52.6914 81.3529 52.6511 81.3059 52.5975C81.507 52.4165 81.6478 52.1752 81.7416 51.9205C81.7416 51.9205 81.7483 51.9138 81.7483 51.9071C81.755 51.8803 81.7751 51.8535 81.7818 51.8267C81.8958 51.4379 81.3797 51.2771 81.1652 51.5653C81.1384 51.5988 81.125 51.639 81.0981 51.6725C81.0244 51.6591 80.9507 51.6725 80.8904 51.7127C80.9641 51.6055 81.0311 51.5049 81.0981 51.3977C81.3596 51.3374 81.6277 51.2771 81.8891 51.2167C81.8623 51.6055 81.8757 51.9876 81.8958 52.3696C81.7483 52.5037 81.6009 52.6243 81.44 52.745ZM82.5594 51.82C82.5594 51.572 82.5661 51.3173 82.5862 51.0693C82.9146 50.9955 83.2431 50.9218 83.5715 50.8548C83.2498 51.1899 82.9079 51.5116 82.5594 51.82Z" fill="#FBECEC"/>
<path fill-rule="evenodd" clip-rule="evenodd" d="M48.636 39.7952C49.0516 39.3327 49.494 38.8769 49.9364 38.4144C49.9364 38.4278 49.9431 38.4412 49.9431 38.448C50.0369 38.8434 50.6134 38.6758 50.5464 38.2804C50.5195 38.1262 50.4994 37.9787 50.486 37.8246C50.6335 37.6637 50.7742 37.5095 50.9217 37.342C51.3239 37.3822 51.7194 37.4693 52.1081 37.6369C52.3963 37.7576 52.7516 37.4961 52.5706 37.1811C52.3561 36.8192 52.1416 36.4572 51.9271 36.0885C52.155 35.7668 52.3762 35.4317 52.5639 35.0831C52.7382 34.7614 52.2958 34.3793 52.0344 34.6742C51.8534 34.8887 51.659 35.0898 51.4646 35.2842C51.1027 34.6206 50.7675 33.9369 50.5128 33.213C50.4056 32.9114 49.9766 32.965 49.9632 33.2867C49.9096 34.3793 49.7554 35.4719 49.7487 36.5577C49.6281 36.6181 49.5007 36.665 49.3733 36.7119C48.8907 36.7789 48.4081 36.8795 47.9255 37.0135C47.5569 37.1141 47.6239 37.7039 48.0127 37.6838C48.5556 37.657 49.0583 37.5431 49.5275 37.3755C49.6079 37.3621 49.6951 37.3554 49.7755 37.3487C49.7755 37.3956 49.7822 37.4358 49.7889 37.4827C49.2058 38.0994 48.6293 38.7161 48.1601 39.4266C47.9724 39.7148 48.4081 40.0432 48.636 39.7952ZM50.486 34.7279C50.6402 35.0697 50.8011 35.4048 50.982 35.74C50.8011 35.8942 50.6201 36.0349 50.4257 36.169C50.4391 35.6931 50.4659 35.2105 50.486 34.7279Z" fill="#FBECEC"/>
<path fill-rule="evenodd" clip-rule="evenodd" d="M31.4365 41.6923C31.7113 41.8599 32.0732 41.518 31.8855 41.2432C31.6375 40.8745 31.3962 40.5059 31.1549 40.1439C31.2823 39.849 31.4029 39.5608 31.5236 39.2725C31.6509 38.9642 31.175 38.6961 30.9673 38.9508C30.8533 39.0849 30.7259 39.2055 30.6053 39.3329C30.2836 38.8704 29.9484 38.4079 29.5932 37.9655C29.4055 37.7309 29.0167 37.9856 29.0971 38.2537C29.2915 38.8905 29.4792 39.5273 29.6468 40.164C29.3988 40.3383 29.1374 40.4992 28.8625 40.6466C28.5073 40.7472 28.152 40.9013 27.7901 41.1225C27.475 41.3169 27.6761 41.8733 28.0515 41.7392C28.0783 41.7258 28.1051 41.7124 28.1319 41.7057C28.4604 41.585 28.7754 41.4443 29.0837 41.2834C29.3452 41.2097 29.6066 41.1762 29.868 41.1896C29.6803 41.5515 29.4993 41.9135 29.3385 42.2888C29.191 42.624 29.6066 42.8653 29.8278 42.5771C29.9283 42.443 30.0154 42.2955 30.1093 42.1548C30.2232 42.4899 30.7595 42.3224 30.6991 41.947C30.6656 41.7459 30.6254 41.5515 30.5852 41.3571C30.5919 41.3437 30.5986 41.3303 30.6053 41.3169C30.8667 41.384 31.1482 41.518 31.4365 41.6923Z" fill="#FBECEC"/>
<path fill-rule="evenodd" clip-rule="evenodd" d="M14.9809 53.1136C14.6994 53.0801 14.6525 53.5292 14.9139 53.5962C27.0059 56.8136 40.1167 65.3799 39.3995 79.5029C39.3794 79.8983 39.9894 79.8916 40.0162 79.5029C40.9613 66.2379 27.4617 54.548 14.9809 53.1136Z" fill="#FBECEC"/>
<path fill-rule="evenodd" clip-rule="evenodd" d="M22.1731 51.5117C25.4039 53.3751 28.3263 55.2117 30.9874 57.8727C33.3602 60.2389 35.3443 62.9468 37.5294 65.4805C37.7171 65.695 38.0053 65.3867 37.8377 65.1722C33.6685 59.8032 29.0636 53.4086 22.3339 51.1497C22.1128 51.0693 21.9787 51.3978 22.1731 51.5117Z" fill="#FBECEC"/>
<path fill-rule="evenodd" clip-rule="evenodd" d="M20.4102 53.1204C20.6716 52.7852 20.8727 52.3965 21.0269 51.9675C21.2414 52.2691 21.4425 52.5775 21.6301 52.8925C21.8111 53.1941 22.2803 52.9193 22.106 52.611C21.8379 52.1485 21.543 51.7128 21.228 51.2905C21.295 50.9956 21.3486 50.6939 21.3821 50.3923C21.5765 50.3387 21.7642 50.2717 21.9653 50.2381C22.3272 50.1778 22.2468 49.6952 21.9653 49.588C21.7977 49.5276 21.6234 49.474 21.4492 49.4204C21.4559 49.0249 21.4357 48.6429 21.4022 48.2943C21.362 47.9122 20.8794 47.8452 20.7454 48.2072C20.6314 48.5088 20.5108 48.8238 20.3834 49.1322C19.8338 49.0048 19.2774 48.9043 18.7144 48.8104C18.3658 48.7501 18.1647 49.1791 18.4731 49.3869C18.9021 49.6684 19.2975 50.0102 19.6662 50.3722C18.9959 50.7744 18.406 51.3173 17.9301 51.9809C17.7089 52.2959 18.1245 52.564 18.3926 52.4501C19.1836 52.115 19.7466 51.5653 20.189 50.9151C20.2896 51.0291 20.3767 51.1497 20.4705 51.2637C20.3097 51.8334 20.0818 52.3764 20.0147 52.9662C19.9946 53.1539 20.2896 53.2746 20.4102 53.1204Z" fill="#FBECEC"/>
<path fill-rule="evenodd" clip-rule="evenodd" d="M72.8335 67.0291C73.1754 67.391 73.6177 67.6793 74.0936 67.8401C74.4556 67.9675 74.5964 67.4044 74.2478 67.2704C74.0132 67.1832 73.7987 67.0626 73.611 66.9218C73.7853 66.895 73.7853 66.5934 73.611 66.5733C73.4837 66.5532 73.3496 66.5465 73.2156 66.5264C73.162 66.4593 73.115 66.399 73.0681 66.3253C72.8067 65.8963 72.8 65.3534 72.7397 64.8707C72.7196 64.7032 72.4447 64.6764 72.3777 64.8238C72.123 65.407 72.19 65.97 72.438 66.466C64.5085 66.0169 54.8296 71.9222 53.4085 79.845C53.3415 80.2204 53.9113 80.3879 53.9917 80.0059C55.7546 71.0106 64.9308 68.1954 72.8335 67.0291Z" fill="#FBECEC"/>
<path fill-rule="evenodd" clip-rule="evenodd" d="M20.1823 65.6549C19.6125 65.2393 18.9154 64.9645 18.2921 64.864C17.9569 64.8103 17.8095 65.2996 18.1513 65.3734C18.7077 65.494 19.1836 65.7219 19.6394 66.0504C20.1354 66.3989 20.4571 66.9016 20.8995 67.3038C21.0604 67.4513 21.3352 67.3105 21.2749 67.0893C21.1743 66.7408 20.9799 66.4257 20.7319 66.1509C29.0904 66.3185 35.3643 71.406 37.2009 79.798C37.2814 80.1734 37.8176 80.0058 37.764 79.6438C36.5776 71.7076 28.5877 63.9658 20.1823 65.6549Z" fill="#FBECEC"/>
<path fill-rule="evenodd" clip-rule="evenodd" d="M17.7827 60.0981C17.823 59.9841 17.7224 59.8903 17.6152 59.8769C17.0387 59.8099 16.5427 60.5338 16.3349 60.9963C16.0802 61.566 16.1137 62.1894 16.3416 62.7591C16.469 63.0742 16.9717 62.9535 16.8645 62.6184C16.7036 62.1291 16.7036 61.6532 16.9315 61.184C17.146 60.7617 17.6353 60.5405 17.7827 60.0981Z" fill="#FBECEC"/>
<path fill-rule="evenodd" clip-rule="evenodd" d="M18.071 63.0941C18.1045 62.5847 18.2721 62.1356 18.6341 61.7736C18.9491 61.4519 19.3781 61.4586 19.7534 61.2575C19.8942 61.1838 19.9009 60.9425 19.7534 60.8754C19.2172 60.6274 18.5938 60.9693 18.1984 61.3379C17.7225 61.7803 17.5549 62.464 17.5616 63.0941C17.5683 63.4225 18.0509 63.4158 18.071 63.0941Z" fill="#FBECEC"/>
<path fill-rule="evenodd" clip-rule="evenodd" d="M18.5602 64.1402C18.9489 63.8788 19.3511 63.6911 19.8203 63.6509C20.2761 63.6106 20.6247 63.8855 21.0604 63.8989C21.2279 63.9056 21.2883 63.7313 21.2346 63.5972C21.0335 63.1347 20.4437 63.0409 19.9879 63.0141C19.3779 62.9806 18.7613 63.309 18.2921 63.6576C18.0105 63.8721 18.2652 64.3413 18.5602 64.1402Z" fill="#FBECEC"/>
<path fill-rule="evenodd" clip-rule="evenodd" d="M18.1581 66.9084C17.8498 66.7073 17.5817 67.1899 17.8766 67.391C19.3512 68.4366 19.2641 70.0722 18.5268 71.5535C18.4664 71.6741 18.6072 71.768 18.701 71.6875C20.3634 70.3202 19.8204 67.9876 18.1581 66.9084Z" fill="#FBECEC"/>
<path fill-rule="evenodd" clip-rule="evenodd" d="M16.7706 69.1737C16.717 69.7837 16.4355 70.2797 15.9059 70.588C15.3965 70.8896 14.8402 70.655 14.3241 70.8293C14.1967 70.8695 14.1565 71.0237 14.2436 71.1242C14.7396 71.6672 15.7786 71.4058 16.3282 71.084C16.9918 70.6886 17.2599 69.9177 17.2398 69.1804C17.2331 68.8654 16.7974 68.8721 16.7706 69.1737Z" fill="#FBECEC"/>
<path fill-rule="evenodd" clip-rule="evenodd" d="M13.7609 68.926C13.399 68.9126 13.0437 68.8992 12.6885 68.8455C12.3734 68.7919 12.0986 68.6243 11.7903 68.5707C11.6294 68.5439 11.435 68.7115 11.5557 68.879C12.0316 69.5359 13.0571 69.4488 13.7609 69.4287C14.0827 69.4153 14.0827 68.9327 13.7609 68.926Z" fill="#FBECEC"/>
<path fill-rule="evenodd" clip-rule="evenodd" d="M12.1389 66.4661C11.6831 66.446 11.2541 66.3521 10.9324 66.0103C10.6173 65.6752 10.7313 65.1255 10.4162 64.8172C10.3626 64.7636 10.2688 64.7569 10.2151 64.8172C9.82638 65.2194 10.1481 66.017 10.4497 66.379C10.8653 66.8817 11.5155 67.0157 12.1456 67.0157C12.4941 67.0157 12.4941 66.4795 12.1389 66.4661Z" fill="#FBECEC"/>
<path fill-rule="evenodd" clip-rule="evenodd" d="M12.9433 64.9039C12.6885 64.5285 12.4741 64.1398 12.3266 63.6974C12.1724 63.2215 12.2797 62.692 12.1054 62.2362C12.0585 62.1222 11.9043 62.0418 11.8105 62.1557C11.1 63.007 11.9646 64.5352 12.5076 65.2592C12.588 65.3664 12.702 65.3932 12.8092 65.3731C12.5545 66.7204 14.009 67.6923 15.115 68.0208C15.4568 68.1213 15.5909 67.6052 15.2625 67.4912C14.3576 67.1829 13.2181 66.3986 13.4728 65.2994C13.6404 64.5688 14.3643 64.0862 15.0748 64.1264C15.5909 64.1599 16.1204 64.495 16.3952 64.924C16.7304 65.4468 16.3416 65.849 15.9059 66.1104C15.7451 65.7686 15.7652 65.353 15.5172 65.038C15.4233 64.9106 15.2423 64.9575 15.2222 65.1184C15.1485 65.715 15.1619 66.2914 15.5574 66.7606C15.6579 66.8746 15.8188 66.8679 15.9462 66.8075C16.7304 66.4523 17.4007 65.7552 17.0588 64.8436C16.7572 64.0325 15.8791 63.5767 15.0681 63.4829C14.1297 63.3824 13.2985 64.066 12.9433 64.9039Z" fill="#FBECEC"/>
<path fill-rule="evenodd" clip-rule="evenodd" d="M14.1029 61.0632C14.1029 60.956 13.9889 60.9023 13.8951 60.9426C13.017 61.3581 13.1846 62.7255 13.5197 63.4293C13.6739 63.7578 14.1431 63.4695 14.0023 63.1478C13.8213 62.7322 13.8012 62.33 13.9018 61.9011C13.9688 61.6195 14.1029 61.3715 14.1029 61.0632Z" fill="#FBECEC"/>
<path fill-rule="evenodd" clip-rule="evenodd" d="M76.52 62.8129C76.4195 63.128 76.8954 63.3223 77.0496 63.0341C77.3043 62.5649 77.5858 62.156 78.0349 61.8611C78.4505 61.5863 79.0001 61.526 79.476 61.4321C79.6235 61.4053 79.6503 61.1774 79.5162 61.1171C78.2829 60.5272 76.9088 61.6466 76.52 62.8129Z" fill="#FBECEC"/>
<path fill-rule="evenodd" clip-rule="evenodd" d="M82.2712 63.2818C82.4052 63.2818 82.5058 63.121 82.432 63.0003C81.7617 61.9748 79.9117 62.2295 78.9465 62.5981C78.5846 62.7389 78.7387 63.3153 79.1074 63.1813C79.6168 63.0003 80.1061 62.9199 80.6491 62.9333C81.2255 62.9467 81.7148 63.2684 82.2712 63.2818Z" fill="#FBECEC"/>
<path fill-rule="evenodd" clip-rule="evenodd" d="M81.8086 64.4751C81.4936 64.2874 81.2255 64.7633 81.5271 64.9577C82.0499 65.2996 82.432 65.7353 82.7403 66.2782C82.995 66.734 83.0688 67.2501 83.3905 67.659C83.4642 67.7528 83.605 67.6858 83.6385 67.592C84.0072 66.3988 82.7336 65.0315 81.8086 64.4751Z" fill="#FBECEC"/>
<path fill-rule="evenodd" clip-rule="evenodd" d="M81.4266 66.6807C81.7081 67.0963 81.8824 67.532 81.9963 68.0213C82.0834 68.41 81.9963 68.8323 82.1371 69.2144C82.1773 69.3149 82.2979 69.3618 82.3851 69.2814C83.1224 68.5575 82.4052 67.0627 81.9159 66.3992C81.6947 66.1176 81.2188 66.3791 81.4266 66.6807Z" fill="#FBECEC"/>
<path fill-rule="evenodd" clip-rule="evenodd" d="M80.4076 68.8386C80.5618 69.415 80.5082 69.911 80.2401 70.4406C79.9921 70.9232 79.5497 71.2583 79.2615 71.7074C79.1743 71.8482 79.3218 72.0761 79.4894 72.009C80.7562 71.4996 81.2991 69.9446 80.897 68.7045C80.7964 68.3895 80.3205 68.5168 80.4076 68.8386Z" fill="#FBECEC"/>
<path fill-rule="evenodd" clip-rule="evenodd" d="M78.4438 70.414C78.055 70.8564 77.6261 71.2183 77.0965 71.4932C76.6005 71.7546 76.0509 71.6808 75.5348 71.8417C75.3873 71.8886 75.3605 72.0763 75.4945 72.1634C76.6608 72.9209 78.1355 71.6272 78.8058 70.7759C79.0002 70.5212 78.665 70.1593 78.4438 70.414Z" fill="#FBECEC"/>
<path fill-rule="evenodd" clip-rule="evenodd" d="M75.9101 70.7091C75.3806 70.8632 74.8644 70.9571 74.3148 70.9303C73.7249 70.9034 73.3362 70.4946 72.7999 70.4074C72.6592 70.3806 72.5251 70.4879 72.5653 70.642C72.7061 71.1917 73.3429 71.4062 73.8456 71.5201C74.5829 71.6877 75.3739 71.5134 76.0777 71.2788C76.4329 71.1649 76.2854 70.6018 75.9101 70.7091Z" fill="#FBECEC"/>
<path fill-rule="evenodd" clip-rule="evenodd" d="M73.001 67.5786C72.9474 67.5585 72.8603 67.5786 72.8201 67.6255C72.5184 68.0075 72.9407 68.5237 73.2356 68.7851C73.6378 69.147 74.174 69.3414 74.6902 69.4688C75.0722 69.5693 75.2331 68.9862 74.851 68.8789C74.4287 68.765 74.0199 68.6175 73.6847 68.336C73.4233 68.1215 73.3228 67.6925 73.001 67.5786Z" fill="#FBECEC"/>
<path fill-rule="evenodd" clip-rule="evenodd" d="M74.4824 63.5437C74.0735 63.7649 74.1137 64.3145 74.1204 64.71C74.1204 65.0318 74.6231 65.0318 74.6231 64.71C74.6298 64.3749 74.6566 64.0665 74.7505 63.7448C74.7907 63.5906 74.6164 63.47 74.4824 63.5437Z" fill="#FBECEC"/>
<path fill-rule="evenodd" clip-rule="evenodd" d="M77.7802 66.506C77.9478 66.3318 77.7802 66.0569 77.5523 66.1106C76.9356 66.2513 76.2519 66.8077 76.2452 67.4847C76.2385 68.041 76.7748 68.3761 77.2306 68.5437C78.3365 68.9459 79.9989 68.5705 80.1865 67.23C80.4547 65.2794 78.4304 63.9723 76.7211 64.7633C75.9235 65.1319 75.28 65.8089 75.0588 66.6669C74.7974 67.6723 75.3605 68.5839 76.1179 69.1872C76.2251 69.2743 76.3391 69.3548 76.4597 69.4285C76.7748 69.643 77.0563 69.1403 76.7547 68.9258C76.1112 68.4633 75.5213 67.7863 75.6487 66.935C75.7492 66.2982 76.2251 65.7821 76.7547 65.4604C78.0483 64.6627 79.6168 65.5006 79.5632 67.0624C79.5297 68.0075 78.3097 68.1281 77.6126 67.9606C77.3646 67.9002 76.996 67.7729 76.9222 67.4981C76.8217 67.1428 77.5992 66.7004 77.7802 66.506Z" fill="#FBECEC"/>
<path fill-rule="evenodd" clip-rule="evenodd" d="M40.9077 24.9215C40.8876 24.9819 40.8608 25.0422 40.8407 25.1092C40.7535 25.3907 41.1356 25.5918 41.3233 25.4176C42.1276 26.3627 43.0191 27.2877 43.9642 28.1255C43.9776 28.2395 43.9776 28.3601 43.991 28.4741C44.0245 28.6685 44.2859 28.6215 44.3463 28.4741V28.4674C44.4468 28.5545 44.5541 28.6349 44.6546 28.7221C44.6479 28.9634 44.6345 29.2047 44.6345 29.4393C44.6345 29.5666 44.8289 29.6404 44.8892 29.5063C44.9562 29.3589 45.0031 29.198 45.0568 29.0505C45.3048 29.2449 45.5595 29.4326 45.8142 29.6069C45.7874 29.6404 45.7673 29.6739 45.7405 29.7007C45.5394 29.9688 45.955 30.2436 46.1829 30.0425C46.2231 30.0023 46.2633 29.9621 46.3102 29.9219C46.5247 29.9889 46.7258 29.761 46.6789 29.5666C48.8774 27.4083 50.6671 24.4792 52.0345 21.798C52.7852 20.3301 54.2531 17.0389 52.8522 15.5107C50.4526 12.91 46.4041 17.9237 45.955 20.2898C45.8678 20.1156 45.7606 19.9346 45.6466 19.7603C45.6801 19.586 45.5595 19.4721 45.4187 19.452C43.5419 16.925 39.3593 14.8806 38.0724 18.5471C37.382 20.5043 39.1783 22.723 40.2776 24.1373C40.4854 24.3987 40.6932 24.6601 40.9077 24.9215ZM44.7216 27.7569C44.6814 27.7233 44.6412 27.6831 44.601 27.6496C44.8088 26.7984 44.9026 25.8868 45.1037 25.0489C45.1506 24.8478 45.2176 24.6467 45.2713 24.4456C45.0233 25.5449 44.8289 26.6643 44.7216 27.7569ZM46.4577 20.5982C46.7995 18.9962 47.691 17.7696 48.9176 16.7105C49.3399 16.3418 49.8292 16.0469 50.3454 15.8324C49.8292 16.4424 49.4137 17.1261 48.8439 17.7025C48.7903 17.7562 48.7702 17.8165 48.7702 17.8701C48.053 20.2697 47.2888 22.6761 46.5582 25.0757C46.8733 23.3531 47.0073 21.5768 47.2084 19.9145C47.2352 19.6866 46.8464 19.633 46.8062 19.8609C46.7459 20.2563 46.6722 20.6451 46.6051 21.0339C46.5448 20.9132 46.3571 20.873 46.2432 20.9668C46.2365 20.9534 46.2298 20.94 46.2231 20.9333C46.2097 20.8864 46.1963 20.8395 46.1762 20.7859C46.2968 20.7993 46.4242 20.7389 46.4577 20.5982ZM45.9281 28.3132C46.1762 27.958 46.3973 27.5893 46.5984 27.2005C46.6655 27.2072 46.7325 27.1871 46.7727 27.1134C48.0798 24.8277 48.5222 22.0259 49.5008 19.586C49.6348 19.2576 49.1053 19.1235 48.978 19.4453C48.931 19.5592 48.8841 19.6799 48.8372 19.8005C48.9713 19.204 49.112 18.6141 49.2662 18.0444C49.8963 17.4009 50.6068 16.6033 50.781 15.6984C50.781 15.6917 50.781 15.685 50.781 15.6783C50.8615 15.6515 50.9419 15.6179 51.0223 15.5978C52.8388 15.0951 52.7517 17.3004 52.5774 18.4197C52.1886 20.9199 50.8213 23.152 49.2595 25.2366C49.5477 24.5462 49.8024 23.8357 50.0437 23.1252C50.104 23.1252 50.1644 23.1118 50.2046 23.0581C50.962 21.9388 51.4848 20.6518 52.0814 19.4386C52.2088 19.1705 51.8133 18.9359 51.6792 19.204C51.3374 19.8743 50.9687 20.5446 50.6269 21.2215C51.0894 19.5927 51.4848 17.9371 51.9071 16.3418C51.9876 16.0402 51.5318 15.9196 51.4446 16.2145C50.2716 20.1826 49.1522 24.0368 47.3089 27.7233C46.9336 28.1858 46.5716 28.6483 46.2231 29.0974C46.0019 28.9031 45.7874 28.7087 45.5729 28.5143C45.5997 28.4473 45.6265 28.3735 45.6533 28.3065C45.6935 28.4003 45.8544 28.4205 45.9281 28.3132ZM45.4254 20.5781C45.5193 20.7591 45.6064 20.9333 45.6801 21.1143C45.0434 22.8369 44.0916 25.0288 43.9508 27.0262C43.7832 26.8721 43.6157 26.7179 43.4548 26.557C43.8771 25.9069 44.0714 24.9148 44.2926 24.2915C44.7149 23.0782 45.0769 21.8248 45.4254 20.5781ZM44.3396 19.0967C43.7765 20.6652 43.1532 22.2069 42.6102 23.7821C42.503 24.0904 42.2282 24.7003 42.4225 25.0288C42.5968 25.3304 42.8917 25.0623 42.9454 24.8411C42.9521 24.8076 42.9454 24.7875 42.9387 24.7607C42.9454 24.754 42.9521 24.7473 42.9588 24.7406C43.0392 24.5998 43.0727 24.4322 43.1196 24.2781C43.2939 23.6949 43.4883 23.1185 43.6827 22.542C44.0245 21.5299 44.3597 20.511 44.6814 19.4855C44.8021 19.633 44.916 19.7871 45.03 19.9413C44.6479 21.2215 44.2256 22.4884 43.7899 23.7552C43.5687 24.3987 43.0928 25.2299 42.8649 25.994C42.4493 25.5717 42.0472 25.1494 41.6517 24.7071C41.9667 23.9563 42.2282 23.1855 42.4628 22.408C42.4628 22.4013 42.4695 22.4013 42.4695 22.3946V22.3879C42.6907 21.6505 42.9051 20.9132 43.1599 20.1893C43.2537 19.9145 42.8314 19.8072 42.7309 20.0687C42.2952 21.2283 41.9198 22.408 41.4841 23.5609C41.3769 23.7686 41.2763 23.9764 41.1825 24.1909C42.0472 22.2672 42.007 19.7469 42.1678 17.6958C42.1745 17.6355 42.1477 17.602 42.1209 17.5685C42.9387 17.8835 43.7028 18.4331 44.3396 19.0967ZM39.9023 17.6355C39.5805 18.8688 39.2521 20.4105 39.4196 21.7645C39.4196 21.7578 39.4129 21.7578 39.4062 21.7511C38.2802 19.8877 38.3606 16.7507 41.3099 17.3272C41.5109 17.3674 41.7053 17.4277 41.9064 17.4947C41.8059 17.5149 41.712 17.5752 41.6986 17.7025C41.578 18.8822 41.4372 20.0552 41.2629 21.2283C41.1423 22.0728 40.9211 22.8973 40.8138 23.7418C40.4787 23.3196 40.157 22.8906 39.8553 22.4482C40.0028 21.8784 39.9961 21.2886 40.0095 20.6987C40.043 19.7134 40.1167 18.7281 40.3111 17.7629C40.3782 17.4813 39.976 17.3607 39.9023 17.6355Z" fill="#FBECEC"/>
<path fill-rule="evenodd" clip-rule="evenodd" d="M40.8741 22.6423C41.1757 22.0055 41.1891 21.2615 41.2629 20.5644C41.3567 19.7467 41.3835 18.9155 41.3768 18.0911C41.3768 17.7626 40.8741 17.7626 40.8674 18.0911C40.8473 18.815 40.7869 19.5255 40.6998 20.2427C40.6127 21.0135 40.3915 21.8313 40.5456 22.5954C40.5792 22.7496 40.8071 22.7831 40.8741 22.6423Z" fill="#FBECEC"/>
<path fill-rule="evenodd" clip-rule="evenodd" d="M16.6566 42.4632C18.0709 42.2822 20.3097 42.0409 21.5162 41.1092C21.6972 41.0824 21.8513 40.9349 21.7843 40.7137C21.0604 38.3878 20.0684 36.1222 18.9959 33.9371C18.2519 32.4155 17.3269 30.4382 15.4836 30.0427C12.9365 29.4998 14.9876 35.4519 15.6377 36.7389C15.4501 36.7858 15.2557 36.8394 15.0546 36.8998C14.9473 36.873 14.8334 36.9132 14.7664 37.0003C14.2435 37.1746 13.7006 37.3891 13.1845 37.6572C13.1644 37.6371 13.1443 37.617 13.1309 37.5902C12.9365 37.369 12.6416 37.6572 12.7622 37.8851C11.2205 38.7967 10.2285 40.1306 11.9176 41.7392C13.151 42.919 15.1082 42.6642 16.6566 42.4632ZM15.1015 33.3472C14.9406 32.6904 14.8468 32.0201 14.8669 31.3364C15.5774 32.6032 16.3348 34.0041 17.1995 35.3112C16.6566 34.6476 16.1069 33.984 15.5573 33.3271C15.383 33.1126 15.1082 33.3472 15.1551 33.5751C15.1417 33.4947 15.1216 33.421 15.1015 33.3472ZM15.1618 33.5885C15.1685 33.6154 15.1886 33.6489 15.2088 33.6757C16.1539 34.8487 17.0923 36.0217 18.0039 37.2148C18.3189 37.6304 18.6205 38.0594 18.9222 38.4951C18.7546 38.294 18.5803 38.0996 18.4194 37.8918C17.8028 37.1143 17.2062 36.3166 16.556 35.5659C16.3617 35.338 16.0399 35.6664 16.2276 35.8943C16.3952 36.1021 16.5627 36.3166 16.7303 36.5445C16.5225 36.4239 16.2209 36.6384 16.3818 36.873C17.2934 38.1733 18.2988 39.9965 19.7466 40.7606C19.9008 40.8411 20.122 40.6668 20.0013 40.5059C19.9008 40.3652 19.7734 40.2445 19.6595 40.1104C19.76 40.1842 19.8539 40.2713 19.9544 40.3383C20.0818 40.4188 20.2225 40.278 20.1823 40.1507C20.2962 40.278 20.3968 40.4054 20.5174 40.526C20.6716 40.6802 20.8727 40.4858 20.799 40.3115C20.4169 39.4066 19.8002 38.5889 19.1769 37.798C19.3511 37.9722 19.5254 38.1465 19.7064 38.3007C19.8673 38.4347 20.1019 38.2672 19.9946 38.0795C19.3578 36.9065 18.4194 35.8541 17.6419 34.7682C16.7638 33.5349 15.9528 32.2547 15.1618 30.9677C15.1149 30.894 15.0546 30.8672 14.9876 30.8605C15.4098 30.2572 16.737 31.4436 17.0319 31.8257C18.902 34.299 20.1086 37.6639 21.047 40.6199C20.2761 40.821 19.5187 41.0421 18.7613 41.2499C18.768 41.2231 18.7747 41.203 18.7613 41.1762C18.5401 40.4456 17.9771 39.8423 17.5548 39.219C17.0722 38.5085 16.6365 37.7644 16.2745 36.9869C16.2745 36.9534 16.2678 36.9199 16.2544 36.8864C16.2946 36.8059 16.308 36.7054 16.2477 36.6048C15.745 35.6463 15.43 34.6208 15.1618 33.5885ZM15.8925 37.3019C16.241 38.0594 16.6499 38.7766 17.099 39.4804C17.5078 40.1172 17.91 40.8478 18.52 41.3103C18.3055 41.3706 18.091 41.4309 17.8765 41.4845C17.6218 40.8545 17.1727 40.278 16.8309 39.7016C16.3885 38.9576 15.9394 38.2135 15.4836 37.4695C15.6243 37.4159 15.7517 37.3556 15.8925 37.3019ZM14.9675 37.6639C15.4233 38.4414 15.8589 39.2257 16.308 40.0032C16.4823 40.3115 16.6566 40.6333 16.851 40.9483C16.5426 40.5528 16.174 40.1842 15.8992 39.7887C15.4702 39.172 15.1082 38.5219 14.7932 37.8382C14.7731 37.798 14.753 37.7778 14.7194 37.7577C14.7999 37.7242 14.8803 37.6907 14.9675 37.6639ZM14.3307 37.8985C14.3173 37.9387 14.3173 37.9789 14.3374 38.0258C14.6323 38.7431 14.9742 39.4268 15.383 40.0903C15.4098 40.1306 15.4367 40.1775 15.4635 40.2177C15.3026 40.0635 15.1484 39.9094 15.0144 39.7552C14.5586 39.2324 14.1028 38.7095 13.6537 38.1934C13.8682 38.0795 14.1028 37.9856 14.3307 37.8985ZM13.1108 38.4548C13.1309 38.4414 13.151 38.4347 13.1711 38.4213C13.6403 39.0112 14.0961 39.601 14.572 40.1842C15.0144 40.7204 15.5439 41.4577 16.1941 41.8197C16.0533 41.8398 15.9193 41.8733 15.7785 41.8867C15.7986 41.8264 15.8053 41.7594 15.7785 41.699C15.5104 41.1829 14.887 40.7941 14.458 40.4054C13.8749 39.8691 13.3051 39.3262 12.7421 38.7766C12.7153 38.7498 12.6885 38.7364 12.655 38.7229C12.8292 38.6157 12.9834 38.5219 13.1108 38.4548ZM12.2729 38.9911C12.2729 39.0514 12.293 39.1117 12.3466 39.1653C12.8963 39.7284 13.4459 40.2981 14.0089 40.8478C14.3776 41.2097 14.8133 41.6923 15.3093 41.9202C14.9809 41.9403 14.6457 41.9403 14.3106 41.9202C14.3441 41.8733 14.3642 41.8197 14.3508 41.7527C14.2435 41.2566 13.7006 40.8478 13.3655 40.4791C12.9566 40.0166 12.5276 39.5742 12.0919 39.1385C12.1522 39.0916 12.2126 39.0447 12.2729 38.9911ZM11.73 39.5876C12.0919 39.9831 12.4405 40.3853 12.7957 40.7874C13.0973 41.1226 13.4392 41.6521 13.8682 41.8867C13.7944 41.88 13.7274 41.88 13.6604 41.8666C12.7957 41.746 11.9646 41.0757 11.6629 40.2579C11.5691 40.0233 11.616 39.7954 11.73 39.5876Z" fill="#FBECEC"/>
<path fill-rule="evenodd" clip-rule="evenodd" d="M16.6096 32.395C17.4206 33.8026 18.2652 35.4113 19.3377 36.6379C19.4315 36.7452 19.6192 36.6312 19.579 36.4972C19.0427 34.9488 17.8228 33.5747 16.9984 32.1671C16.8509 31.9191 16.4621 32.147 16.6096 32.395Z" fill="#FBECEC"/>
<path fill-rule="evenodd" clip-rule="evenodd" d="M65.628 45.0501C65.628 45.2713 65.9497 45.3785 66.057 45.164C66.0972 45.0903 66.124 45.0099 66.1575 44.9294C66.2111 45.0769 66.3586 45.2043 66.5597 45.1708C69.8441 44.6412 73.3028 44.3061 76.3794 42.9521C77.6529 42.3891 80.1464 41.4641 80.0794 39.6878C79.9788 37.02 75.0321 37.7171 73.1084 38.6287C73.7653 37.1943 74.6769 35.3175 73.8457 33.9367C72.981 32.5023 71.8415 32.0264 70.3066 32.8173C68.7314 33.6284 67.9002 35.5454 67.3439 37.1876C67.3305 37.2077 67.3104 37.2211 67.297 37.2412C67.2635 37.2882 67.2635 37.3351 67.2769 37.3887C67.2434 37.5026 67.2031 37.6099 67.1696 37.7171C66.4658 39.9157 65.6213 42.7376 65.628 45.0501ZM78.0216 38.7427C78.2629 38.8365 78.4707 38.9438 78.645 39.0778C78.035 39.5604 77.4049 40.0162 76.7883 40.4921C76.1448 40.9882 75.3203 41.5445 74.9651 42.3019C74.8645 42.5097 75.079 42.7912 75.3002 42.6371C75.937 42.2148 76.4598 41.6048 77.0564 41.1222C77.72 40.5927 78.397 40.09 79.0538 39.5537C79.2348 39.9291 79.1611 40.3715 78.6986 40.8474C78.7321 40.6061 78.4975 40.3447 78.2562 40.5257C77.3781 41.1691 76.3928 41.6852 75.6689 42.5097C75.6421 42.5365 75.6354 42.57 75.6354 42.5968C74.6769 42.9655 73.6781 43.2537 72.6526 43.4816C73.1285 43.1599 73.5776 42.8046 74.0267 42.4829C75.0388 41.7523 76.0107 40.9613 76.9894 40.1771C77.1569 40.043 77.043 39.795 76.8754 39.728C77.224 39.4599 77.5725 39.2052 77.9211 38.9639C78.0082 38.9036 78.035 38.8164 78.0216 38.7427ZM67.4176 39.7414C68.0879 39.3191 68.6912 38.7762 69.2877 38.2802C70.2664 37.4624 71.2115 36.6045 72.1097 35.6996C72.3309 35.4784 71.989 35.1365 71.7678 35.351C70.9367 36.1487 70.072 36.8994 69.1805 37.6233C68.6644 38.0389 68.108 38.4411 67.5919 38.8767C67.6992 38.3472 67.8198 37.8244 67.9807 37.3351C67.9807 37.3351 67.9807 37.3284 67.9807 37.3217C68.0745 37.268 68.1617 37.201 68.2488 37.1407C68.1281 37.3083 68.0142 37.4758 67.9338 37.6568C67.8667 37.811 68.0142 38.0121 68.1818 37.9048C68.8789 37.4691 69.4285 36.7854 70.0318 36.2358C70.7423 35.5923 71.4528 34.9623 72.1231 34.2853C72.1901 34.2182 72.2035 34.1445 72.1968 34.0708C72.2839 34.0171 72.3711 33.9501 72.4649 33.8965C72.7263 33.7356 72.4984 33.3402 72.2303 33.4876C71.3053 33.9903 70.454 34.5802 69.6229 35.2237C69.2408 35.5186 68.8252 35.8202 68.4231 36.1353C69.0665 34.6807 70.1122 33.2128 71.7075 33.0184C74.3886 32.6967 73.3564 36.1755 73.0011 37.1742C72.8537 37.5831 72.6861 37.9853 72.5252 38.3941C72.5185 38.3941 72.5118 38.3874 72.4984 38.3874C71.5265 38.5215 70.5077 38.8834 69.5223 39.3459C69.5693 39.3057 69.6162 39.2655 69.6631 39.232C70.8093 38.3137 71.9153 37.3619 72.9542 36.3229C73.2223 36.0548 72.8135 35.6527 72.5453 35.9141C71.5935 36.8324 70.5948 37.6836 69.5626 38.5081C68.8521 39.0778 68.0343 39.6141 67.3305 40.2374C67.3573 40.0833 67.3908 39.909 67.4176 39.7414ZM70.6685 39.842C70.7691 39.795 70.8093 39.7146 70.816 39.6342C71.3455 39.4197 71.8616 39.1851 72.3376 38.8901C72.3107 38.9572 72.2839 39.0242 72.2571 39.0979C72.2035 39.2588 72.2772 39.3593 72.3845 39.413C70.6819 40.0497 69.033 41.0753 67.5383 41.9802C67.2367 42.1612 67.5115 42.6304 67.8131 42.4561C69.8374 41.2764 72.0359 40.4988 74.0736 39.3728C74.3082 39.2454 74.1406 38.9103 73.8993 38.9639C73.8122 38.984 73.7251 39.0108 73.6312 39.0309C74.5294 38.622 75.4812 38.4612 76.5135 38.4746C76.9089 38.4813 77.291 38.5282 77.6395 38.622C77.3781 38.7829 77.1167 38.9505 76.8553 39.118C76.8352 39.0979 76.8084 39.0778 76.7749 39.0912C76.2453 39.2722 75.7359 39.4867 75.2198 39.7079C75.1997 39.6945 75.1729 39.6878 75.1461 39.6878C72.4917 40.224 69.9111 41.7657 67.3908 42.751C67.049 42.8851 67.1964 43.4414 67.545 43.3073C68.3091 43.0191 69.1269 42.7309 69.9513 42.436C69.7905 42.5231 69.6296 42.6102 69.4687 42.6974C68.8856 42.9923 68.3091 43.2872 67.726 43.5956C67.3908 43.7698 67.6858 44.2525 68.0142 44.0916C70.2194 43.0526 72.3912 41.893 74.5093 40.6597C74.4959 40.6664 74.4892 40.6731 74.4758 40.6798C73.276 41.4976 71.9555 42.188 70.8093 43.0727C70.6484 43.1934 70.7289 43.4883 70.9568 43.4213C71.4126 43.2805 71.8617 43.0862 72.2973 42.8717C71.8549 43.1599 71.4193 43.4615 71.0305 43.8101C69.4419 44.0849 67.8533 44.286 66.3586 44.5273C66.3385 44.5273 66.3251 44.5407 66.3117 44.5474C66.6669 43.6626 66.8814 42.6907 67.0624 41.692C68.2957 41.1155 69.4754 40.4586 70.6685 39.842Z" fill="#FBECEC"/>
<path fill-rule="evenodd" clip-rule="evenodd" d="M67.3774 52.457C66.7138 52.6581 66.8613 51.7331 66.5932 51.4047C66.5261 51.3243 66.3988 51.3377 66.3317 51.4047C65.9698 51.7532 66.1173 52.4838 66.439 52.8257C66.7406 53.1474 67.1495 53.2078 67.5584 53.1139C68.3292 52.9396 69.0062 52.0281 68.3828 51.3444C67.498 50.3657 65.8022 50.2652 64.837 51.1433C64.3879 51.5522 64.274 52.1621 64.3544 52.7386C64.3879 52.9799 64.522 53.3686 64.7164 53.6636C60.5941 56.3514 56.5053 61.4322 55.0508 66.0572C54.9637 66.3454 55.4194 66.5465 55.5401 66.265C57.7789 61.1976 61.3515 57.8931 65.0783 54.0188C65.2258 54.0992 65.3933 54.1127 65.5743 54.0121C65.6749 53.9585 65.7419 53.8445 65.7352 53.7306C65.7218 53.4357 65.4202 53.2614 65.2727 53.0201C65.2325 52.9598 65.1856 52.9262 65.1319 52.9128C64.9241 52.3967 64.9443 51.8538 65.5073 51.4717C66.2312 50.9824 67.2165 51.2639 67.8332 51.78C68.1817 52.0616 67.6321 52.3833 67.3774 52.457Z" fill="#FBECEC"/>
<path fill-rule="evenodd" clip-rule="evenodd" d="M35.8134 71.7476C36.0078 72.0559 36.477 71.7811 36.3027 71.4594C34.6739 68.5704 31.9056 65.9027 28.8491 64.5688C28.648 64.4817 28.5073 64.723 28.6815 64.857C31.4096 66.9215 33.9634 68.7983 35.8134 71.7476Z" fill="#FBECEC"/>
<path fill-rule="evenodd" clip-rule="evenodd" d="M28.0113 74.0135C27.77 73.9733 27.5756 74.3152 27.8304 74.4425C30.163 75.5686 33.072 75.4077 34.6807 77.7805C34.8148 77.9749 35.1298 77.8007 35.0024 77.5929C33.5613 75.1932 30.6121 74.4626 28.0113 74.0135Z" fill="#FBECEC"/>
<path fill-rule="evenodd" clip-rule="evenodd" d="M63.074 74.4359C61.7201 74.2348 60.0376 75.1732 58.9182 75.8569C57.6447 76.6344 56.6125 77.7672 56.2505 79.2351C56.1634 79.5971 56.6996 79.7445 56.8068 79.3893C57.2425 77.9683 58.3083 77.0031 59.5483 76.2523C60.6744 75.5754 62.0217 75.4614 63.1277 74.838C63.2818 74.7509 63.2751 74.4627 63.074 74.4359Z" fill="#FBECEC"/>
<path fill-rule="evenodd" clip-rule="evenodd" d="M23.3796 72.5456C22.8567 74.0738 24.5459 75.4948 25.9267 75.5015C26.2484 75.5015 26.2417 75.0256 25.9267 75.0055C24.9078 74.9385 23.7951 73.913 23.9627 72.8271C24.1102 71.882 25.7725 71.4664 26.4562 72.063C26.8919 72.4383 26.9187 73.2092 26.6975 73.7052C26.3825 74.4023 25.8998 73.3633 25.6652 73.0885C25.558 72.9679 25.3167 73.0617 25.3368 73.2226C25.4239 74.1207 26.3959 75.1865 27.1466 74.1878C27.7029 73.4505 27.5152 72.1501 26.8382 71.5602C25.806 70.6755 23.8018 71.3122 23.3796 72.5456Z" fill="#FBECEC"/>
<path fill-rule="evenodd" clip-rule="evenodd" d="M27.703 51.371C28.4269 52.0681 29.1441 52.7786 29.8345 53.5025C30.0155 53.6902 30.2702 53.4154 30.116 53.221C29.4859 52.4233 28.8425 51.6592 28.132 50.9353C27.5153 50.3052 26.8316 49.5143 26.0206 49.1389C25.8597 49.0652 25.6385 49.2261 25.7524 49.407C26.2485 50.1578 27.0595 50.7476 27.703 51.371Z" fill="#FBECEC"/>
<path fill-rule="evenodd" clip-rule="evenodd" d="M52.6713 48.0327C52.5841 48.2673 52.9662 48.4282 53.0734 48.2003C54.5615 45.003 56.9477 42.6436 59.1529 39.9691C59.3741 39.701 59.039 39.3659 58.7776 39.5871C56.1568 41.7923 53.8912 44.8421 52.6713 48.0327Z" fill="#FBECEC"/>
<path fill-rule="evenodd" clip-rule="evenodd" d="M61.452 38.622C60.8353 39.1315 60.6007 40.1369 61.318 40.6664C61.9346 41.1222 62.8328 40.6865 63.2752 40.2039C64.16 39.2186 64.1466 37.4155 62.8194 36.8592C61.7738 36.4235 60.3997 36.7586 59.6087 37.5429C58.4625 38.6824 59.3808 40.1637 60.3862 41.0016C60.6611 41.2295 61.0632 40.8474 60.7884 40.5994C60.1181 39.9894 59.3071 39.0309 59.9439 38.126C60.3997 37.4759 61.3716 37.2547 62.1156 37.3217C63.0004 37.4021 63.3891 38.0858 63.2484 38.917C63.1344 39.5739 62.7323 40.224 61.9949 40.2508C61.1504 40.2777 61.6799 39.2387 61.8006 38.8298C61.8609 38.6153 61.5995 38.5014 61.452 38.622Z" fill="#FBECEC"/>
<path fill-rule="evenodd" clip-rule="evenodd" d="M42.0738 38.7694C42.409 36.1017 41.8124 33.2127 40.2842 30.9673C40.1635 30.7863 39.8418 30.8935 39.9155 31.1214C40.7601 33.7222 41.7186 35.9676 41.7923 38.7694C41.8057 38.9571 42.0537 38.9437 42.0738 38.7694Z" fill="#FBECEC"/>
<path fill-rule="evenodd" clip-rule="evenodd" d="M51.4044 32.0804C51.4044 32.4155 51.9071 32.4155 51.9272 32.0804C52.0478 29.674 53.013 27.7034 53.6565 25.4378C53.7168 25.2367 53.4487 25.1496 53.3415 25.3038C51.9875 27.1739 51.3977 29.8081 51.4044 32.0804Z" fill="#FBECEC"/>
<path fill-rule="evenodd" clip-rule="evenodd" d="M23.2925 44.4204C22.4748 44.4204 22.4748 45.6873 23.2925 45.6873C24.1036 45.6873 24.1036 44.4204 23.2925 44.4204Z" fill="#FBECEC"/>
<path fill-rule="evenodd" clip-rule="evenodd" d="M19.8405 43.8569C19.0831 43.8569 19.0831 45.0366 19.8405 45.0366C20.6047 45.0366 20.6047 43.8569 19.8405 43.8569Z" fill="#FBECEC"/>
<path fill-rule="evenodd" clip-rule="evenodd" d="M19.4383 75.897C18.6942 75.897 18.6942 77.0499 19.4383 77.0499C20.1823 77.0499 20.1823 75.897 19.4383 75.897Z" fill="#FBECEC"/>
<path fill-rule="evenodd" clip-rule="evenodd" d="M14.7731 76.4199C14.1832 76.4199 14.1832 77.3315 14.7731 77.3315C15.3629 77.3315 15.3629 76.4199 14.7731 76.4199Z" fill="#FBECEC"/>
<path fill-rule="evenodd" clip-rule="evenodd" d="M19.4383 73.162C19.6126 73.162 19.6126 72.8872 19.4383 72.8872C19.264 72.8872 19.264 73.162 19.4383 73.162Z" fill="#FBECEC"/>
<path fill-rule="evenodd" clip-rule="evenodd" d="M17.0051 45.8346C17.4945 45.8346 17.4945 45.0771 17.0051 45.0771C16.5225 45.0839 16.5225 45.8346 17.0051 45.8346Z" fill="#FBECEC"/>
<path fill-rule="evenodd" clip-rule="evenodd" d="M48.8908 43.2135C49.6281 43.6358 50.2514 43.0191 49.8292 42.2751C49.2661 41.2965 47.9054 42.6505 48.8908 43.2135Z" fill="#FBECEC"/>
<path fill-rule="evenodd" clip-rule="evenodd" d="M50.6536 40.854C50.2045 40.854 50.2045 41.5511 50.6536 41.5511C51.1027 41.5511 51.1027 40.854 50.6536 40.854Z" fill="#FBECEC"/>
<path fill-rule="evenodd" clip-rule="evenodd" d="M64.6359 35.2305C65.2995 35.2305 65.2995 34.1982 64.6359 34.1982C63.9723 34.1982 63.9723 35.2305 64.6359 35.2305Z" fill="#FBECEC"/>
<path fill-rule="evenodd" clip-rule="evenodd" d="M70.9232 50.2517C70.0451 50.2986 70.0451 51.5654 70.9232 51.6124C71.1511 51.6258 71.3254 51.6057 71.5399 51.4984C71.9622 51.2772 71.9622 50.5935 71.5399 50.3723C71.3254 50.2584 71.1511 50.2383 70.9232 50.2517Z" fill="#FBECEC"/>
<path fill-rule="evenodd" clip-rule="evenodd" d="M69.3011 49.4274C69.9781 49.4274 69.9781 48.375 69.3011 48.375C68.6241 48.3817 68.6241 49.4274 69.3011 49.4274Z" fill="#FBECEC"/>
<path fill-rule="evenodd" clip-rule="evenodd" d="M70.1122 62.0689C70.3602 62.0689 70.3602 61.6802 70.1122 61.6802C69.8641 61.6869 69.8641 62.0689 70.1122 62.0689Z" fill="#FBECEC"/>
<path fill-rule="evenodd" clip-rule="evenodd" d="M64.4147 72.1501C64.4281 72.1367 64.4348 72.1233 64.4415 72.1099C64.5555 71.9557 64.5555 71.6608 64.4415 71.5066C64.4348 71.4932 64.4214 71.4798 64.4147 71.4664C64.0394 70.9436 63.1546 71.091 63.1546 71.8082C63.1479 72.5321 64.0394 72.6729 64.4147 72.1501Z" fill="#FBECEC"/>
<path fill-rule="evenodd" clip-rule="evenodd" d="M64.4348 74.7104C63.731 74.7104 63.731 75.803 64.4348 75.803C65.1453 75.803 65.1453 74.7104 64.4348 74.7104Z" fill="#FBECEC"/>
<path fill-rule="evenodd" clip-rule="evenodd" d="M66.2579 72.894C65.5608 72.894 65.5608 73.9732 66.2579 73.9732C66.955 73.9665 66.955 72.894 66.2579 72.894Z" fill="#FBECEC"/>
<path fill-rule="evenodd" clip-rule="evenodd" d="M69.911 74.771C69.281 74.771 69.281 75.7429 69.911 75.7429C70.5411 75.7429 70.5411 74.771 69.911 74.771Z" fill="#FBECEC"/>
<path fill-rule="evenodd" clip-rule="evenodd" d="M35.8537 26.6912C36.7452 26.6912 36.7452 25.3037 35.8537 25.3037C34.9622 25.3037 34.9622 26.6912 35.8537 26.6912Z" fill="#FBECEC"/>
<path fill-rule="evenodd" clip-rule="evenodd" d="M33.2194 24.0165C33.7959 24.0165 33.7959 23.125 33.2194 23.125C32.643 23.1183 32.643 24.0165 33.2194 24.0165Z" fill="#FBECEC"/>
<path fill-rule="evenodd" clip-rule="evenodd" d="M55.1111 24.2842C55.7747 24.2842 55.7747 23.252 55.1111 23.252C54.4475 23.252 54.4475 24.2842 55.1111 24.2842Z" fill="#FBECEC"/>
<path fill-rule="evenodd" clip-rule="evenodd" d="M72.9474 46.7998C72.0626 46.7998 72.0626 48.1672 72.9474 48.1672C73.8322 48.1739 73.8322 46.7998 72.9474 46.7998Z" fill="#FBECEC"/>
<path fill-rule="evenodd" clip-rule="evenodd" d="M71.5332 47.9526C70.8294 47.9526 70.8294 49.0452 71.5332 49.0452C72.2303 49.0452 72.2303 47.9526 71.5332 47.9526Z" fill="#FBECEC"/>
<path fill-rule="evenodd" clip-rule="evenodd" d="M73.9596 51.4111C74.5762 51.4111 74.5762 50.4526 73.9596 50.4526C73.3429 50.4526 73.3429 51.4111 73.9596 51.4111Z" fill="#FBECEC"/>
<path fill-rule="evenodd" clip-rule="evenodd" d="M76.1917 47.3161C76.7614 47.3161 76.7614 46.438 76.1917 46.438C75.6286 46.438 75.6286 47.3161 76.1917 47.3161Z" fill="#FBECEC"/>
<path fill-rule="evenodd" clip-rule="evenodd" d="M71.3254 62.3102C72.1498 62.3102 72.1498 61.0366 71.3254 61.0366C70.5076 61.0366 70.5076 62.3102 71.3254 62.3102Z" fill="#FBECEC"/>
<path fill-rule="evenodd" clip-rule="evenodd" d="M68.6911 63.4966C67.9002 63.4966 67.9002 64.7165 68.6911 64.7165C69.482 64.7165 69.482 63.4966 68.6911 63.4966Z" fill="#FBECEC"/>
<path fill-rule="evenodd" clip-rule="evenodd" d="M68.8988 60.4067C68.309 60.4067 68.309 61.325 68.8988 61.325C69.4887 61.325 69.4887 60.4067 68.8988 60.4067Z" fill="#FBECEC"/>
<path fill-rule="evenodd" clip-rule="evenodd" d="M22.6825 60.7754C22.0458 60.7754 22.0458 61.754 22.6825 61.754C23.3126 61.7607 23.3126 60.7754 22.6825 60.7754Z" fill="#FBECEC"/>
<path fill-rule="evenodd" clip-rule="evenodd" d="M13.5598 59.7163C13.1241 59.7163 13.1241 60.3933 13.5598 60.3933C13.9955 60.3933 13.9955 59.7163 13.5598 59.7163Z" fill="#FBECEC"/>
<path fill-rule="evenodd" clip-rule="evenodd" d="M11.1267 74.2012C10.5502 74.2012 10.5502 75.0927 11.1267 75.0927C11.7031 75.0927 11.7031 74.2012 11.1267 74.2012Z" fill="#FBECEC"/>
<path fill-rule="evenodd" clip-rule="evenodd" d="M12.7488 72.2842C12.0517 72.2842 12.0517 73.37 12.7488 73.37C13.4459 73.3633 13.4459 72.2842 12.7488 72.2842Z" fill="#FBECEC"/>
<path fill-rule="evenodd" clip-rule="evenodd" d="M35.0426 45.9751C34.4059 45.9751 34.4059 46.9604 35.0426 46.9604C35.6861 46.9671 35.6861 45.9751 35.0426 45.9751Z" fill="#FBECEC"/>
<path fill-rule="evenodd" clip-rule="evenodd" d="M40.7468 67.5251C40.3312 67.6391 40.1368 68.1284 40.3513 68.497C40.5993 68.926 41.2495 68.9327 41.4975 68.497C41.779 67.9943 41.3299 67.3642 40.7468 67.5251Z" fill="#FBECEC"/>
<path fill-rule="evenodd" clip-rule="evenodd" d="M41.531 65.0317C40.8943 65.0317 40.8943 66.0171 41.531 66.0171C42.1678 66.0171 42.1678 65.0317 41.531 65.0317Z" fill="#FBECEC"/>
<path fill-rule="evenodd" clip-rule="evenodd" d="M39.0979 67.1162C38.7963 67.1162 38.7963 67.5787 39.0979 67.5787C39.3996 67.5787 39.3996 67.1162 39.0979 67.1162Z" fill="#FBECEC"/>
<path fill-rule="evenodd" clip-rule="evenodd" d="M48.4216 73.6514C47.6642 73.6514 47.6642 74.8311 48.4216 74.8311C49.1857 74.8311 49.1857 73.6514 48.4216 73.6514Z" fill="#FBECEC"/>
<path fill-rule="evenodd" clip-rule="evenodd" d="M48.6293 76.1787C47.9925 76.1787 47.9925 77.164 48.6293 77.164C49.2661 77.1707 49.2661 76.1787 48.6293 76.1787Z" fill="#FBECEC"/>
<path fill-rule="evenodd" clip-rule="evenodd" d="M56.1232 58.7778C55.5266 58.7778 55.5266 59.7028 56.1232 59.7028C56.7198 59.7028 56.7198 58.7778 56.1232 58.7778Z" fill="#FBECEC"/>
<path fill-rule="evenodd" clip-rule="evenodd" d="M46.7995 56.6465C47.3692 56.6465 47.3692 55.7617 46.7995 55.7617C46.2298 55.7617 46.2298 56.6465 46.7995 56.6465Z" fill="#FBECEC"/>
<path fill-rule="evenodd" clip-rule="evenodd" d="M52.0277 63.9054V64.0797C52.0277 64.9242 53.3348 64.9242 53.3348 64.0797V63.9054C53.3348 63.0608 52.0277 63.0608 52.0277 63.9054Z" fill="#FBECEC"/>
<path fill-rule="evenodd" clip-rule="evenodd" d="M42.952 49.0718C42.1208 49.0718 42.1208 50.3587 42.952 50.3587C43.7831 50.3587 43.7831 49.0718 42.952 49.0718Z" fill="#FBECEC"/>
<path fill-rule="evenodd" clip-rule="evenodd" d="M41.3299 49.1188C41.8661 49.1188 41.8661 48.2876 41.3299 48.2876C40.7937 48.2876 40.7937 49.1188 41.3299 49.1188Z" fill="#FBECEC"/>
<path fill-rule="evenodd" clip-rule="evenodd" d="M35.8536 49.0986C36.363 49.0986 36.363 48.3076 35.8536 48.3076C35.3442 48.3076 35.3442 49.0986 35.8536 49.0986Z" fill="#FBECEC"/>
<path fill-rule="evenodd" clip-rule="evenodd" d="M35.6526 17.8366C36.1084 17.8366 36.1084 17.1328 35.6526 17.1328C35.2035 17.1395 35.2035 17.8366 35.6526 17.8366Z" fill="#FBECEC"/>
<path fill-rule="evenodd" clip-rule="evenodd" d="M33.0183 19.3981C33.6484 19.3981 33.6484 18.4195 33.0183 18.4195C32.3883 18.4128 32.3883 19.3981 33.0183 19.3981Z" fill="#FBECEC"/>
<path fill-rule="evenodd" clip-rule="evenodd" d="M10.5168 46.9137C11.0865 46.9137 11.0865 46.0356 10.5168 46.0356C9.95372 46.0356 9.95372 46.9137 10.5168 46.9137Z" fill="#FBECEC"/>
<path fill-rule="evenodd" clip-rule="evenodd" d="M8.69352 43.8102C9.18283 43.8102 9.18283 43.0527 8.69352 43.0527C8.20421 43.0527 8.20421 43.8102 8.69352 43.8102Z" fill="#FBECEC"/>
<path fill-rule="evenodd" clip-rule="evenodd" d="M70.3133 29.9082C71.1645 29.9082 71.1645 28.5811 70.3133 28.5811C69.462 28.5811 69.462 29.9082 70.3133 29.9082Z" fill="#FBECEC"/>
<path fill-rule="evenodd" clip-rule="evenodd" d="M68.2889 27.093C68.9123 27.093 68.9123 26.1211 68.2889 26.1211C67.6656 26.1211 67.6656 27.093 68.2889 27.093Z" fill="#FBECEC"/>
<path fill-rule="evenodd" clip-rule="evenodd" d="M68.0878 22.589C68.6576 22.589 68.6576 21.7109 68.0878 21.7109C67.5181 21.7109 67.5181 22.589 68.0878 22.589Z" fill="#FBECEC"/>
<path fill-rule="evenodd" clip-rule="evenodd" d="M6.2605 61.5391C5.5634 61.5391 5.5634 62.6182 6.2605 62.6182C6.9576 62.6182 6.9576 61.5391 6.2605 61.5391Z" fill="#FBECEC"/>
<path fill-rule="evenodd" clip-rule="evenodd" d="M84.9053 58.9185C84.2217 58.9185 84.2217 59.9775 84.9053 59.9775C85.589 59.9708 85.589 58.9185 84.9053 58.9185Z" fill="#FBECEC"/>
<path fill-rule="evenodd" clip-rule="evenodd" d="M85.9242 62.0352C85.341 62.0352 85.341 62.94 85.9242 62.94C86.5073 62.94 86.5073 62.0352 85.9242 62.0352Z" fill="#FBECEC"/>
<path fill-rule="evenodd" clip-rule="evenodd" d="M88.7595 61.9683C88.0959 61.9683 88.0959 63.0005 88.7595 63.0005C89.4231 63.0005 89.4231 61.9683 88.7595 61.9683Z" fill="#FBECEC"/>
</svg>
