<svg width="95" height="95" viewBox="0 0 95 95" fill="none" xmlns="http://www.w3.org/2000/svg">
<g clip-path="url(#clip0_59_744)">
<path fill-rule="evenodd" clip-rule="evenodd" d="M56.9142 61.5261C58.0872 60.9764 59.1932 60.3128 60.1852 59.5085C60.3729 59.3543 60.1316 59.0795 59.9372 59.1868C59.897 59.2069 59.8567 59.227 59.8165 59.2471C65.9564 53.1542 67.2031 42.2553 60.7214 35.9546C54.4609 29.8616 43.0928 28.4942 36.4235 34.2118C36.3698 34.2051 36.3162 34.2051 36.2626 34.2319C28.561 37.7308 28.8358 49.796 32.7637 55.9761C37.6635 63.6844 49.1254 66.2315 56.9142 61.5261ZM33.9166 37.2884C33.9903 37.4024 34.1512 37.4694 34.2651 37.3488C41.3501 29.4461 52.316 29.627 60.2522 36.4305C67.1897 42.3759 64.7566 53.992 58.6435 59.4884C58.3017 59.7967 57.9464 60.0782 57.5845 60.3464C51.7932 62.9069 46.0689 63.3493 39.862 60.4536C30.6188 56.1369 30.1496 45.4458 33.9166 37.2884ZM33.5479 37.275C29.6267 44.494 30.0691 53.2547 36.2894 58.8181C35.1767 57.8797 34.178 56.8206 33.3401 55.6409C29.8546 50.7143 29.6468 42.1748 33.5479 37.275Z" fill="#FBECEC"/>
<path fill-rule="evenodd" clip-rule="evenodd" d="M39.4867 40.5797C39.0577 41.1092 38.8901 41.7527 38.8767 42.4297C38.0523 47.7384 43.4682 52.1422 46.8532 55.6612C46.9135 55.7617 46.9805 55.8623 47.0408 55.9628C47.0341 55.9695 47.0274 55.9762 47.0274 55.9829C46.7258 56.3181 47.2218 56.8141 47.5235 56.4789C47.5838 56.4052 47.6575 56.3315 47.7245 56.2577C47.7379 56.2443 47.7514 56.2309 47.7581 56.2175C51.0291 52.5376 56.7198 45.7677 54.7894 40.5998C53.5359 37.2483 48.5289 40.278 47.4698 42.7045C47.4497 42.671 47.4296 42.6442 47.4095 42.6107C47.4229 42.5637 47.4363 42.5235 47.4564 42.4766C47.5168 42.3023 47.3291 42.2152 47.195 42.2755C45.5461 39.9027 41.511 38.0862 39.4867 40.5797ZM47.2218 43.6161C47.2687 43.7233 47.3626 43.7501 47.4564 43.7568C46.7995 46.3576 45.955 48.851 45.0367 51.3713C44.9764 51.5389 45.2311 51.6327 45.3182 51.492C45.8343 50.6474 46.2231 49.7358 46.5448 48.8041C46.2164 49.9369 45.9081 51.0764 45.6735 52.2159C45.6399 52.3701 45.8745 52.4907 45.9483 52.3298C47.3492 49.2599 47.9927 45.8548 49.2059 42.6978C49.3265 42.3828 48.8238 42.2487 48.7032 42.557C48.0999 44.092 47.5168 45.6739 47.0006 47.2759C47.3291 46.0291 47.5771 44.7489 47.8519 43.5021C47.8519 43.4887 47.8452 43.4887 47.8452 43.4753C47.9524 43.4083 47.986 43.3078 47.9658 43.2139C48.0932 43.0463 48.2742 42.805 48.5624 42.4565C48.9378 41.9873 49.3466 41.5516 49.7555 41.1159C50.7542 40.0569 53.2946 38.4884 54.3738 41.3706C54.843 42.6174 54.2733 44.2059 53.8644 45.3991C53.422 46.6994 52.8053 47.9864 52.0814 49.2331C52.5305 47.7317 53.0265 46.2503 53.5628 44.7757C53.6633 44.5076 53.2276 44.3936 53.1338 44.655C52.4367 46.5721 51.7061 48.4958 51.3039 50.4999C50.962 51.0295 50.6068 51.5456 50.2314 52.055C51.2905 49.6822 51.887 47.0413 52.5439 44.5746C52.6311 44.2596 52.1417 44.1255 52.0546 44.4405C51.2503 47.4166 50.1443 50.3056 49.3131 53.2682C48.7434 53.9922 48.1535 54.696 47.5637 55.3662C47.5033 55.2992 47.4363 55.2255 47.376 55.1585C46.4041 53.5565 45.1506 52.1019 43.924 50.634C44.1385 50.2922 44.3195 49.9235 44.4803 49.5414C44.3664 49.9369 44.2659 50.3391 44.172 50.7346C44.1251 50.9289 44.3999 51.0563 44.5005 50.8753C45.7338 48.5829 46.3035 45.9286 47.1146 43.4351C47.1548 43.5021 47.195 43.5558 47.2218 43.6161ZM43.1197 40.2713C44.7284 40.5931 46.0287 41.6253 46.8666 42.9726C46.3504 44.2864 45.8142 45.6202 45.3316 46.9675C45.6533 45.6538 45.8879 44.3065 46.2231 43.1C46.2968 42.8453 45.9081 42.7447 45.8343 42.9927C45.0769 45.3655 44.239 47.792 43.5687 50.205C43.4012 49.9972 43.2269 49.7961 43.0593 49.5884C44.4669 47.363 44.8222 44.407 45.2177 41.8599C45.2646 41.5516 44.8021 41.4175 44.7418 41.7259C44.2591 44.2998 43.4481 46.7262 42.7845 49.2398C42.6169 49.032 42.4561 48.8175 42.2952 48.6097C43.428 46.4514 43.676 43.7233 44.3865 41.4444C44.487 41.1293 43.9977 40.9953 43.8972 41.3103C43.18 43.5021 42.4829 45.7342 41.826 47.9596C41.6852 47.7585 41.5445 47.5641 41.4104 47.363C42.4091 45.5331 42.751 43.2273 43.3073 41.2366C43.3878 40.955 42.9588 40.8411 42.8716 41.1159C42.2818 42.9659 41.3836 44.9366 41.1289 46.8938C41.0015 46.6726 40.8608 46.4648 40.7401 46.2369C41.2093 45.6605 41.4439 44.8561 41.6517 44.1657C42.007 42.9927 42.1611 41.7862 42.4024 40.5864C42.4427 40.392 42.1477 40.3049 42.1008 40.5059C41.8729 41.4443 41.6048 42.376 41.3434 43.301C41.1222 44.0853 40.7066 44.8293 40.4251 45.5934C40.3514 45.4393 40.2776 45.2851 40.2173 45.1242C40.2441 45.1175 40.2709 45.1108 40.2977 45.0773C41.216 43.8909 41.4439 42.0543 41.6383 40.6065C41.6785 40.3183 41.2428 40.1842 41.1892 40.4858C41.0619 41.2232 40.8809 41.9471 40.6664 42.6643C40.472 43.3145 40.1704 43.9579 40.0296 44.6215C39.9693 44.4472 39.9023 44.273 39.8486 44.092C40.0162 43.7032 40.0765 43.2608 40.1838 42.8587C40.3782 42.175 40.6061 41.498 40.8139 40.821C40.8541 40.707 40.8072 40.6132 40.7267 40.5663C41.3568 40.1976 42.188 40.0837 43.1197 40.2713ZM39.6208 42.6911C39.614 42.7112 39.6073 42.738 39.6006 42.7581C39.5805 41.9806 39.8285 41.3572 40.2575 40.9215C40.043 41.5114 39.8151 42.0945 39.6208 42.6911Z" fill="#FBECEC"/>
<path fill-rule="evenodd" clip-rule="evenodd" d="M47.9993 49.5815C48.1735 49.2464 48.2741 48.8844 48.4349 48.5426C48.502 48.4018 48.2875 48.2744 48.2205 48.4152C48.0596 48.7571 47.9657 49.1257 47.8183 49.4743C47.7647 49.5949 47.9322 49.7022 47.9993 49.5815Z" fill="#FBECEC"/>
<path fill-rule="evenodd" clip-rule="evenodd" d="M47.4095 53.1608C49.3533 49.8094 50.0169 45.8949 51.21 42.2485C51.277 42.034 50.9553 41.9536 50.8816 42.1547C49.5812 45.7675 48.5155 49.4474 47.1347 53.0402C47.0676 53.2077 47.329 53.3083 47.4095 53.1608Z" fill="#FBECEC"/>
<path fill-rule="evenodd" clip-rule="evenodd" d="M51.0693 44.8761C50.1778 48.1672 48.797 51.2706 47.8117 54.5215C47.7782 54.6288 47.939 54.6958 47.9927 54.5953C49.5209 51.5589 50.6202 48.261 51.4379 44.9699C51.4983 44.7353 51.1363 44.6348 51.0693 44.8761Z" fill="#FBECEC"/>
<path fill-rule="evenodd" clip-rule="evenodd" d="M54.9234 60.3394C58.0671 58.7106 61.7202 56.1501 62.2966 52.363C62.3234 52.1954 62.0687 52.0413 61.9883 52.2356C61.2443 53.965 60.5472 55.4262 59.22 56.8003C57.933 58.1342 56.3713 59.1731 54.8363 60.192C54.7492 60.259 54.8296 60.393 54.9234 60.3394Z" fill="#FBECEC"/>
<path fill-rule="evenodd" clip-rule="evenodd" d="M32.9916 43.435C34.1378 39.9696 35.7733 37.1745 38.9102 35.1502C39.0443 35.0631 38.9571 34.8218 38.7963 34.8821C35.6593 36.1356 32.9379 40.0299 32.6832 43.3881C32.6765 43.5758 32.9446 43.5959 32.9916 43.435Z" fill="#FBECEC"/>
<path fill-rule="evenodd" clip-rule="evenodd" d="M62.7926 50.0105C63.1009 49.5346 63.1746 48.8777 63.3087 48.3281C63.369 48.0734 62.9802 47.9661 62.9132 48.2208C62.7725 48.7638 62.5245 49.3804 62.5714 49.9502C62.5848 50.0641 62.7255 50.111 62.7926 50.0105Z" fill="#FBECEC"/>
<path fill-rule="evenodd" clip-rule="evenodd" d="M39.8018 34.5406C40.2106 34.2993 40.7603 34.125 41.082 33.7832C41.2161 33.6424 41.1088 33.4413 40.9346 33.4212C40.4184 33.3676 39.9425 33.8368 39.5605 34.1183C39.3125 34.2993 39.5269 34.7015 39.8018 34.5406Z" fill="#FBECEC"/>
<path fill-rule="evenodd" clip-rule="evenodd" d="M54.8899 65.9233C55.3323 66.8751 55.6205 68.0213 56.2506 68.8725C56.3779 69.0401 56.6259 68.9396 56.5857 68.7318C56.398 67.666 55.7345 66.6539 55.1446 65.7758C55.0374 65.6149 54.8095 65.749 54.8899 65.9233Z" fill="#FBECEC"/>
<path fill-rule="evenodd" clip-rule="evenodd" d="M63.7712 26.879C58.7977 22.8438 52.3897 20.967 46.0488 21.0542C37.5361 21.1815 31.5035 25.7931 25.9401 31.7453C25.8262 31.8659 25.8396 32.0067 25.9133 32.1139C18.1179 43.3748 20.6918 58.6238 31.6309 66.9153C42.9856 75.5151 60.0511 73.4372 68.8252 62.3171C77.4317 51.4115 74.087 35.2509 63.7712 26.879ZM22.6155 42.2353C22.4479 43.8105 22.4479 45.4125 22.5887 47.0144C22.5015 47.0346 22.4144 47.0547 22.3273 47.0815C22.2736 47.0949 22.2468 47.1284 22.22 47.1619C22.2133 45.5264 22.3407 43.8775 22.6155 42.2353ZM27.4282 62.2099C23.9494 57.9871 22.2938 52.7789 22.2133 47.4166C22.2468 47.4702 22.3005 47.5172 22.3809 47.5172C22.4613 47.5172 22.5418 47.5038 22.6222 47.4971C22.716 48.4086 22.8769 49.3135 23.0713 50.2117C23.3126 51.6998 23.6745 53.161 24.1505 54.5753C23.9829 54.2536 23.822 53.9385 23.6544 53.6168C23.5606 53.4291 23.2389 53.5632 23.3193 53.7575C23.6075 54.5083 23.9159 55.2791 24.2376 56.0499C24.0566 56.184 24.137 56.5057 24.3851 56.4253H24.3918C25.243 58.3959 26.2686 60.3465 27.6158 61.9887C27.522 62.0222 27.4349 62.1093 27.4282 62.2099ZM32.8508 66.9756C30.9204 65.749 29.2715 64.3213 27.8907 62.7461C28.5207 63.3226 29.1575 63.9124 29.8077 64.4889C29.8345 64.6028 29.935 64.6967 30.049 64.7101C31.1885 65.7088 32.3749 66.6606 33.6484 67.4582C33.3803 67.3041 33.1122 67.1432 32.8508 66.9756ZM67.7728 62.6255C59.9774 72.4854 45.8142 73.712 35.1566 68.2894C35.3979 68.343 35.5588 68.0414 35.3376 67.8738C35.2236 67.7867 35.1097 67.7062 34.9957 67.6191C35.8604 68.1151 36.7452 68.5575 37.6568 68.9396C37.6903 69.1072 37.8713 69.1943 38.0053 69.0803C46.8263 72.6329 57.571 70.9236 64.6225 64.5827C64.7833 64.7101 64.9576 64.8307 65.152 64.9111C65.2794 64.9648 65.4335 64.8039 65.3799 64.6833C65.3062 64.4956 65.1922 64.328 65.0716 64.1671C66.3317 62.9673 67.4779 61.6401 68.4498 60.132C69.0263 59.2338 69.5022 58.2753 69.8909 57.2833C70.0451 57.3168 70.206 57.3436 70.3601 57.3369C70.4808 57.3302 70.5411 57.1961 70.454 57.109C70.3467 56.995 70.2194 56.8945 70.0853 56.8007C71.9353 51.7199 71.6404 45.694 70.95 40.573C70.0853 34.1985 66.8746 29.5802 61.3716 26.3092C60.1047 25.5518 58.7508 24.9016 57.3431 24.352C57.2962 24.2179 57.1354 24.1509 57.0013 24.2179C46.5917 20.2967 33.2329 22.0663 28.0918 32.9853C27.9979 33.1864 28.2727 33.354 28.3934 33.1596C28.9631 32.2413 29.5798 31.3967 30.2233 30.6058C30.5048 30.8471 30.793 31.0817 31.0678 31.3364C31.4231 31.6581 31.7649 32.0469 32.1872 32.2681C32.3682 32.3619 32.5492 32.1743 32.4553 32C32.2341 31.5777 31.8387 31.2291 31.4901 30.9074C31.1952 30.6393 30.8936 30.4047 30.5651 30.1902C32.6095 27.8107 34.9823 26.0478 37.5763 24.8614C38.0321 25.9875 38.4209 27.4353 39.3392 28.2464C39.3995 28.3 39.4867 28.2464 39.4733 28.1659C39.1917 26.9929 38.6354 25.7328 38.0522 24.6536C40.7602 23.494 43.6827 22.9511 46.6856 22.9377C46.6319 23.5074 46.6386 24.0772 46.6319 24.6469C46.6319 25.3306 46.585 26.0344 46.7928 26.6913C46.833 26.8254 47.0207 26.8254 47.0609 26.6913C47.2419 26.1215 47.2285 25.5183 47.2218 24.9284C47.2218 24.2648 47.2352 23.6013 47.1682 22.9377C50.285 22.9846 53.4823 23.608 56.6125 24.7273C55.9825 25.7127 55.4529 26.9192 55.1446 28.0051C55.1044 28.1525 55.2921 28.2531 55.3993 28.1525C56.2506 27.3415 56.6595 26.021 57.1488 24.9217C58.1743 25.3105 59.1931 25.7462 60.1986 26.2422C61.9949 27.127 63.5433 28.2464 64.8705 29.5467C64.5219 29.7746 64.227 30.1098 63.9187 30.398C63.4495 30.8337 62.7256 31.2962 62.4239 31.8793C62.377 31.9665 62.4306 32.1072 62.5513 32.0938C63.1545 32.0268 63.7243 31.4034 64.1466 31.0147C64.5085 30.6795 64.9576 30.331 65.2257 29.9087C66.9283 31.6715 68.2152 33.7494 69.1603 36.0083C69.0263 35.7603 68.8922 35.5123 68.7448 35.2643C68.7045 35.1973 68.5839 35.2442 68.6174 35.3179C68.9794 36.2362 69.281 37.1746 69.5491 38.1331C68.3895 38.3543 67.2098 38.8838 66.1306 39.3195C65.9362 39.4 66.0033 39.7016 66.2178 39.648C67.3438 39.3665 68.6509 39.1587 69.6496 38.5085C69.8842 39.3597 70.0987 40.2177 70.3199 41.0623C70.3601 41.2299 70.588 41.2164 70.6484 41.0891C71.0103 43.0463 71.1578 45.0639 71.1243 47.0815C70.5411 47.0211 69.9312 47.1284 69.348 47.182C68.7917 47.2356 68.2554 47.3228 67.7393 47.5373C67.5583 47.611 67.6455 47.9327 67.8399 47.9126C68.4163 47.8456 68.9928 47.7719 69.5759 47.7249C70.0853 47.6847 70.6216 47.6847 71.1176 47.5306C71.017 50.6139 70.4875 53.6838 69.5893 56.5124C69.2676 56.3583 68.919 56.2309 68.6174 56.0834C67.8868 55.7349 67.1495 55.4132 66.3987 55.0914C66.1977 55.0043 66.0167 55.2791 66.2178 55.3998C66.9149 55.8019 67.5919 56.2309 68.3091 56.5996C68.6442 56.7671 69.0062 56.9749 69.3882 57.1291C68.423 59.9175 66.8948 62.2233 64.9844 64.08C64.6627 63.6845 64.2404 63.3494 63.8785 63.0142C63.2886 62.478 62.6384 62.0088 61.9681 61.5865C61.6866 61.4122 61.4587 61.8345 61.7134 62.0155C62.3837 62.5048 62.987 63.0545 63.5969 63.6175C63.8986 63.899 64.1935 64.2275 64.5152 64.5023C60.098 68.5039 53.8241 70.2735 47.6106 70.1863C47.6776 69.0803 47.6039 67.9207 47.5435 66.8215C47.5301 66.5534 47.1481 66.5601 47.1346 66.8215C47.0609 67.8872 46.8196 69.1474 47.2285 70.1796C44.1318 70.0992 41.0685 69.5562 38.2734 68.6111C38.4544 68.2693 38.6354 67.9207 38.7963 67.5655C38.9705 67.1566 39.185 66.7142 39.1381 66.2651C39.1247 66.1378 38.9705 66.0439 38.87 66.1579C38.5952 66.4461 38.4879 66.8148 38.3405 67.1767C38.1662 67.599 37.9919 68.028 37.8109 68.4503C37.3015 68.2693 36.8055 68.0749 36.3162 67.8671C34.2718 66.9823 32.4151 65.7088 30.7729 64.1403C31.5035 63.4633 32.2676 62.7461 32.7369 61.9083C32.824 61.7474 32.6296 61.5061 32.462 61.6334C31.6912 62.2233 31.0209 63.0008 30.3573 63.7381C28.2526 61.62 26.5233 59.026 25.2631 56.1907C25.2631 56.184 25.2631 56.184 25.2564 56.1773C25.6117 56.0767 25.9669 55.9762 26.3222 55.8622C26.845 55.7014 27.3678 55.574 27.7901 55.2121C27.8907 55.1249 27.8102 54.9574 27.6829 54.9574C27.1533 54.9574 26.6707 55.1651 26.1747 55.3193C25.8195 55.4333 25.4776 55.5673 25.1358 55.7014C24.3918 52.8527 23.8689 50.1112 23.6544 47.3228C23.822 47.2826 23.9896 47.2356 24.1572 47.1954C24.7872 47.0279 25.4843 46.9742 26.0809 46.7128C26.1948 46.6592 26.1412 46.505 26.0474 46.4715C25.538 46.2771 24.995 46.4112 24.4789 46.5318C24.1907 46.5989 23.8957 46.6793 23.6075 46.753C23.5673 46.0425 23.5405 45.3253 23.5405 44.6014C24.0499 42.3492 24.5325 40.1775 25.1626 38.0125H25.1693C25.2095 38.0795 25.2966 38.113 25.3704 38.0862C25.6385 38.18 25.8999 38.2739 26.1613 38.3677C26.7043 38.5755 27.2338 38.8168 27.8236 38.8369C28.018 38.8436 28.0985 38.5554 27.9242 38.4616C27.4148 38.1934 26.8517 38.0259 26.3088 37.8248C26.0943 37.7444 25.8731 37.6639 25.6519 37.6036C26.5903 35.7402 27.3947 33.7829 28.4872 32.0067C28.5744 31.8659 28.3666 31.7587 28.2727 31.8793C26.9925 33.6221 26.0608 35.4587 25.3235 37.4695C25.7055 36.2161 26.1479 34.956 26.6908 33.6891C26.7646 33.5215 26.5501 33.3875 26.4428 33.5416C25.2028 35.3581 24.2912 37.5768 23.7081 39.8692C23.6142 39.8357 23.4936 39.8625 23.4601 39.9764C23.2791 40.6735 23.1316 41.384 23.0177 42.1012C23.4534 38.5822 24.6733 35.2509 26.8584 32.5027C27.0327 32.2882 26.7244 31.9732 26.5501 32.1944C25.8865 33.0389 25.3168 33.9304 24.8207 34.8554C25.2162 33.9639 25.6452 33.0858 26.1211 32.2279C26.1948 32.2346 26.282 32.2145 26.349 32.1407C31.9459 26.6176 36.9329 22.4819 45.0366 21.7178C51.2703 21.1279 57.504 23.246 62.5781 26.7717C74.1406 34.8219 76.4062 51.7065 67.7728 62.6255Z" fill="#FBECEC"/>
<path fill-rule="evenodd" clip-rule="evenodd" d="M24.6867 32.4153C26.2015 30.2101 28.0113 28.3668 29.8546 26.4497C29.935 26.3626 29.8278 26.2218 29.7272 26.2822C27.4684 27.7166 25.8731 30.0559 24.5526 32.3282C24.4923 32.4287 24.6263 32.5024 24.6867 32.4153Z" fill="#FBECEC"/>
<path fill-rule="evenodd" clip-rule="evenodd" d="M69.9311 61.8548C68.3224 64.4086 66.4791 66.6139 64.0125 68.37C63.8583 68.484 63.9856 68.7052 64.1599 68.6247C66.8947 67.3445 68.8989 64.6633 70.2327 62.0291C70.34 61.828 70.0518 61.6537 69.9311 61.8548Z" fill="#FBECEC"/>
<path fill-rule="evenodd" clip-rule="evenodd" d="M18.1515 19.9012C18.0978 19.6733 17.8297 19.6934 17.7292 19.8475C17.7225 19.8475 17.7158 19.8475 17.7091 19.8475C16.7103 20.0352 16.9047 22.9108 16.8645 23.5475C16.6969 26.222 16.5763 28.7624 15.6111 31.2089C15.162 27.4888 15.4033 23.6682 14.7397 20.0486C14.7062 19.8542 14.4582 19.9079 14.3978 20.0486C13.9555 21.1144 14.0694 29.1042 13.379 30.4314C13.1109 28.1457 13.6538 19.5861 11.3614 19.68C11.1805 19.6867 11.1805 19.9481 11.3614 19.9548C11.4017 19.9548 11.4352 19.9682 11.4687 19.9816C10.9056 23.4336 11.5022 26.9057 11.6765 30.3778C11.8373 33.5482 13.8951 35.7803 14.1297 38.991C14.2638 40.8745 14.304 42.7781 14.2973 44.6951C14.2303 44.5678 14.1834 44.427 14.1498 44.2863C14.0627 43.9176 13.5332 44.0785 13.5935 44.4404C13.6672 44.923 13.875 45.3386 14.2906 45.6134H14.2973C14.2973 45.8413 14.2839 46.0625 14.2839 46.2904C14.2035 46.2435 14.1297 46.1899 14.0627 46.1296C13.808 45.9151 13.4594 46.2569 13.694 46.4982C13.8616 46.6658 14.056 46.8199 14.2638 46.9339C14.1834 50.2786 13.9756 53.6234 13.7745 56.9078C13.5131 61.211 13.3522 65.5277 13.6672 69.8377C13.7879 71.4799 13.8281 74.7844 15.7585 75.4413C15.8926 75.4882 16.0468 75.3877 16.0803 75.2603C17.3873 70.2331 16.8846 63.5504 16.2143 58.4562C15.7384 54.85 15.3631 50.9958 15.2491 47.1417C15.6178 47.1216 16.0065 47.0009 16.1339 46.6457C16.1674 46.5585 16.1004 46.4513 16.0132 46.4312C15.7518 46.3776 15.4904 46.4848 15.229 46.5183C15.2223 46.2837 15.2089 46.0491 15.2089 45.8145C15.3698 45.7877 15.5038 45.714 15.5843 45.5799C15.6245 45.4995 15.6178 45.4056 15.5507 45.3386C15.4502 45.2448 15.3296 45.2113 15.2022 45.1911C15.1955 42.081 15.4033 38.991 15.9529 36.0618C15.9663 36.0015 15.9529 35.9479 15.9328 35.8942C17.5013 30.4783 19.5054 25.8131 18.1515 19.9012ZM16.0535 62.7259C16.1339 64.9312 15.9328 67.1431 15.9864 69.3484C16.0065 70.1393 16.1339 76.5741 14.9341 73.7052C13.8214 71.0308 14.0761 67.5051 14.0761 64.663C14.0761 58.8047 14.5453 52.9464 14.6794 47.0881C14.7129 47.0948 14.7464 47.1015 14.7732 47.1082C15.0547 52.3565 15.8591 57.6384 16.0535 62.7259ZM17.5482 29.6405C16.9584 32.1406 15.6178 34.3526 15.2022 36.9198C15.1955 36.9466 15.2156 36.9667 15.2156 36.9935C14.9877 38.2805 14.8335 39.5741 14.7531 40.8812C14.7062 39.1049 14.5453 37.3421 14.1096 35.6596C13.5131 33.3673 12.2864 31.4636 12.1658 28.883C12.0317 25.9874 11.6765 23.1387 11.7971 20.243C12.9433 21.8249 12.2663 29.6472 12.9366 30.9743C13.0238 31.1419 13.198 31.1285 13.3187 31.028C14.5721 30.6861 14.3911 24.2513 14.418 23.5341C14.4515 22.7432 14.4783 21.9522 14.5654 21.168C14.6727 24.62 14.1968 28.4071 15.1486 31.7452C15.1754 31.839 15.2357 31.8859 15.3027 31.9127C15.2692 31.9798 15.2424 32.0535 15.2089 32.1272C15.1151 32.3283 15.3094 32.5294 15.5105 32.4289C17.0723 31.6178 17.0991 28.5948 17.2533 27.1001C17.394 25.7662 17.4477 24.4256 17.5281 23.0917C17.5683 22.408 17.508 21.4026 17.7694 20.6787C18.2252 23.5945 18.2185 26.7917 17.5482 29.6405Z" fill="#FBECEC"/>
<path fill-rule="evenodd" clip-rule="evenodd" d="M82.3651 50.6004C82.4455 50.5334 82.5126 50.453 82.5729 50.3524C82.6869 50.1715 82.5193 49.9771 82.3316 49.9838C82.3249 49.8698 82.3182 49.7626 82.3115 49.6486C82.3249 49.6218 82.345 49.595 82.3517 49.5682C82.3651 49.5079 82.3383 49.4609 82.2981 49.4274C82.2243 47.8657 82.1774 46.3106 82.164 44.7421C82.1238 40.278 82.3718 35.7669 82.5595 31.3095C82.7338 27.2543 82.1372 23.1454 82.593 19.1237C82.6265 18.8489 82.164 18.7885 82.1104 19.0567C82.097 19.1304 82.0903 19.2041 82.0769 19.2778C82.0635 19.0969 81.8691 18.9092 81.6479 19.0164C80.2001 19.6934 79.8247 21.2217 79.4426 22.6762C78.5109 26.1617 77.7468 29.8885 77.0028 33.4276C76.6945 34.9023 76.4129 36.3099 76.2588 37.7242C76.1247 37.7912 76.0309 37.9454 76.1314 38.0861C76.1582 38.1264 76.185 38.1666 76.2119 38.2068C76.0912 39.6278 76.1046 41.0622 76.3861 42.5771C76.8754 45.1979 79.3421 46.6524 80.6023 48.8912C80.4883 48.9381 80.4012 49.0454 80.4414 49.1794C80.5486 49.5347 80.7162 49.8765 81.0245 50.0575C81.0111 50.1446 80.991 50.2385 80.9776 50.3323C80.857 50.3122 80.7296 50.2854 80.609 50.2452C80.2604 50.1312 80.1398 50.6474 80.4615 50.7747C80.5888 50.8283 80.7363 50.8685 80.8838 50.8954C79.6705 57.9937 76.8419 65.4674 78.4908 72.6127C79.3488 76.3261 82.4388 74.4761 82.7137 71.6073C83.3839 64.576 82.7204 57.5982 82.3651 50.6004ZM80.4481 47.316C79.7845 46.5318 79.0941 45.7878 78.3903 45.0437C77.2039 43.7769 76.7548 42.2017 76.661 40.5595C76.9358 40.8745 77.1704 41.2968 77.5792 41.4309C77.6798 41.4644 77.7736 41.3639 77.7468 41.2633C77.6262 40.8343 77.2575 40.459 76.9492 40.1506C76.8486 40.0501 76.7347 40.0635 76.6475 40.1305C76.6341 39.7149 76.6408 39.2927 76.6677 38.8704C76.7012 38.9173 76.728 38.9642 76.7615 39.0111C76.9492 39.3128 77.0966 39.6948 77.405 39.8892C77.4787 39.9428 77.5994 39.8959 77.6195 39.8021C77.7468 39.1854 77.1637 38.5017 76.7347 37.999C76.795 37.3823 76.8821 36.7724 76.9626 36.1825C77.0095 35.8742 77.0698 35.5726 77.1235 35.2642C77.2977 35.8608 77.3379 36.5043 77.4184 37.1142C77.4251 37.1679 77.5055 37.2081 77.5323 37.1477C77.901 36.3032 77.6865 35.5122 77.2173 34.7682C77.3648 34.0041 77.5256 33.24 77.7133 32.4825C77.7803 32.7976 77.8809 33.0925 78.0619 33.3204C78.1423 33.4209 78.3032 33.3539 78.3367 33.2467C78.5042 32.6635 78.1758 31.9463 77.9948 31.3766C78.1289 30.8805 78.2763 30.3845 78.4238 29.8885C78.4506 30.3175 78.5244 30.7331 78.7925 31.0414C78.8528 31.1084 78.9466 31.0615 78.9734 30.9945C79.2148 30.3309 78.9735 29.4796 78.7925 28.8161C78.7858 28.8027 78.7724 28.7959 78.7657 28.7825C78.8394 28.5546 78.9064 28.3267 78.9802 28.0988C79.1008 27.7235 79.1946 27.2677 79.2751 26.7583C79.3086 26.8655 79.3354 26.9795 79.3689 27.0867C79.5164 27.5358 79.5901 28.0318 79.8917 28.4072C79.9588 28.4943 80.0861 28.434 80.1129 28.3469C80.4079 27.5291 79.7644 26.4499 79.4292 25.6523C79.4963 25.1362 79.5633 24.5932 79.6437 24.0503C79.7443 24.4994 79.9253 24.915 80.3006 25.1295C80.4548 25.2166 80.6157 25.0758 80.5821 24.9083C80.5285 24.5999 80.3542 24.3184 80.2403 24.0235C80.1062 23.6749 80.0057 23.3063 79.9051 22.9443C79.8984 22.9175 79.8716 22.9041 79.8582 22.884C80.1934 21.349 80.7564 20.0018 81.9361 19.4856C82.0032 19.4521 82.0434 19.4052 82.0635 19.3516C81.7149 21.4965 81.8557 23.5811 81.9965 25.7595C82.1975 28.9702 81.8624 32.2278 81.7686 35.4318C81.6278 40.1439 81.6814 44.7689 81.8557 49.414C81.7686 49.4408 81.6814 49.4676 81.5943 49.4878C81.5943 49.3939 81.601 49.3068 81.601 49.2129C81.601 49.0521 81.487 48.9917 81.3664 48.9984C81.2122 48.4421 80.9441 47.9059 80.4481 47.316ZM82.345 66.0506C82.345 67.5654 82.2713 69.0736 82.1774 70.5884C82.5796 72.8808 81.5675 73.4975 79.1276 72.4384C78.826 71.1984 78.6785 69.9383 78.6718 68.6647C78.3769 62.5986 81.0513 56.8944 81.5205 50.9356C81.6546 50.9222 81.7887 50.9021 81.9093 50.8618C81.9897 52.8861 82.0903 54.9171 82.2176 56.9615C82.412 59.9778 82.345 63.0276 82.345 66.0506Z" fill="#FBECEC"/>
<path fill-rule="evenodd" clip-rule="evenodd" d="M83.5448 67.9408C83.3169 70.7896 82.6869 73.5109 81.5876 76.1519C81.5541 76.2323 81.6814 76.2792 81.7216 76.2055C83.1561 73.6383 84.0811 70.9102 83.9604 67.9408C83.947 67.6727 83.5649 67.6727 83.5448 67.9408Z" fill="#FBECEC"/>
<path fill-rule="evenodd" clip-rule="evenodd" d="M11.7234 66.9622C11.8306 68.3698 11.8709 69.7842 12.4875 71.0912C12.568 71.2655 12.8026 71.1314 12.7758 70.9706C12.5479 69.6367 12.2931 68.3095 12.1256 66.9689C12.0988 66.7142 11.7033 66.7008 11.7234 66.9622Z" fill="#FBECEC"/>
<path fill-rule="evenodd" clip-rule="evenodd" d="M11.033 69.4756C10.9995 70.4476 11.2877 71.4999 11.958 72.2305C12.0653 72.3445 12.2261 72.2238 12.1993 72.0898C12.0317 71.1849 11.4955 70.414 11.4151 69.4756C11.4017 69.2276 11.0464 69.2209 11.033 69.4756Z" fill="#FBECEC"/>
<path fill-rule="evenodd" clip-rule="evenodd" d="M18.8753 19.4522C19.2641 20.6922 19.425 21.9255 19.6395 23.1991C19.6529 23.2929 19.8137 23.2929 19.8272 23.1991C20.0081 21.8987 19.6127 20.5782 19.1971 19.365C19.1301 19.1572 18.8083 19.2377 18.8753 19.4522Z" fill="#FBECEC"/>
<path fill-rule="evenodd" clip-rule="evenodd" d="M78.035 22.8372C78.3165 22.3345 78.417 21.7044 78.6114 21.1547C78.8728 20.4241 79.2147 19.727 79.7241 19.1439C79.9118 18.9294 79.6169 18.6278 79.4091 18.8288C78.4841 19.7471 77.6395 21.4162 77.7333 22.75C77.74 22.9042 77.9478 22.9846 78.035 22.8372Z" fill="#FBECEC"/>
</g>
<defs>
<clipPath id="clip0_59_744">
<rect width="95" height="95" fill="white" transform="translate(0 0.000488281)"/>
</clipPath>
</defs>
</svg>
