<svg width="95" height="95" viewBox="0 0 95 95" fill="none" xmlns="http://www.w3.org/2000/svg">
<path fill-rule="evenodd" clip-rule="evenodd" d="M85.9646 53.6229C86.2327 53.6765 86.4271 53.4754 86.3802 53.2207C86.0048 51.1964 84.5235 48.9711 82.4255 48.2002C82.7271 47.9254 82.9885 47.6305 83.1896 47.3758C84.0543 46.2966 84.6441 45.0432 84.5771 43.6624C84.5704 43.468 84.3626 43.2736 84.1481 43.3473C83.7392 43.4948 83.3505 43.7227 82.9952 43.9975C84.128 41.9196 84.7313 39.3725 83.9336 37.2209C83.8867 37.1003 83.7794 36.9997 83.6387 37.0064C82.459 37.0466 81.6077 39.3591 81.2659 40.2171C81.172 40.445 81.0983 40.6796 81.0313 40.9209C80.9106 40.8204 80.7766 40.7265 80.6358 40.6327C80.991 39.6809 80.6358 38.8698 80.0057 38.2397C80.0862 38.2464 80.1733 38.2062 80.1934 38.1124C80.5352 36.4903 79.8784 34.8749 78.2295 34.2247C76.5537 33.5678 71.1244 32.9981 72.8269 30.3102C72.8537 30.2633 72.8671 30.2164 72.8671 30.1762C73.705 30.3504 74.5496 30.5113 75.3673 30.7794C76.9827 31.3023 77.4653 32.187 77.7737 33.7019C77.8206 33.9298 78.1691 33.9097 78.2295 33.7019C78.4439 32.9713 78.397 32.3881 78.1691 31.9189C79.4226 32.5289 80.8369 32.8506 82.03 32.797C82.2244 32.7903 82.4322 32.6026 82.345 32.4015C81.6345 30.7057 80.18 28.3262 78.3099 27.5017C79.6237 26.8851 80.8235 26.0941 81.6948 24.9211C81.7686 24.8206 81.7485 24.6396 81.6479 24.5592C80.5956 23.7682 79.3421 24.0229 78.2227 24.72C78.3099 23.8822 78.2026 23.0108 77.9882 22.3874C77.5994 21.268 76.7816 20.6514 75.8164 20.524C76.6074 18.426 75.2936 15.8588 74.6568 13.7072C74.5764 13.4257 74.201 13.4659 74.1072 13.7072C73.2023 15.9594 72.5588 18.5333 74.1541 20.6581C74.1809 20.6916 74.2077 20.7184 74.2412 20.7318C74.1139 20.7787 73.9798 20.8189 73.8525 20.886C73.5441 21.0334 73.8123 21.4557 74.1206 21.3217C74.3284 21.2278 74.5295 21.1675 74.7238 21.1206C74.5697 21.3954 74.4021 21.6769 74.2077 21.9651V21.9718C74.1742 21.9785 74.1474 21.9852 74.1139 21.9919C73.9597 22.0456 73.9061 22.1796 73.9195 22.3003C73.8324 22.2198 73.7318 22.1461 73.6313 22.0791C73.819 21.6635 73.7184 21.0804 73.5844 20.6648C73.4972 20.39 73.3296 20.1621 73.1286 19.961C72.3309 18.426 69.5961 17.6418 68.0813 18.3724C68.5505 16.4219 68.5706 14.1764 68.0277 12.3532C67.974 12.1722 67.6791 12.0583 67.5384 12.2325C66.0369 14.0758 66.1978 16.5492 67.297 18.5467C67.3239 18.6003 67.3641 18.6271 67.4043 18.6539C67.3976 18.7478 67.3976 18.8416 67.3909 18.9421C67.297 19.0762 67.2099 19.217 67.1563 19.3845C67.1429 19.3778 67.1228 19.3778 67.1094 19.3711C67.0624 16.757 64.3679 15.3628 62.0018 14.4445C61.7873 14.3641 61.5795 14.5652 61.5728 14.7595C61.4923 17.2329 64.0059 19.1298 66.4056 19.8068C66.4324 20.0079 66.4525 20.209 66.486 20.4168C66.5262 20.6715 66.9485 20.6514 67.0021 20.4168C67.0289 20.2961 67.0423 20.1889 67.0557 20.0749C67.0557 20.1688 67.0423 20.2492 67.0557 20.3497C67.0893 20.6983 67.659 20.7117 67.6322 20.3497C67.6188 20.2224 67.6389 20.1084 67.6523 20.0012C67.8199 19.9208 67.8802 19.7063 67.7528 19.5856C68.1014 18.7478 69.1873 18.5735 70.2128 18.7947C70.8295 18.9287 71.2853 19.1767 71.6673 19.4985C71.3255 19.5387 70.9903 19.6392 70.7021 19.7733C70.072 20.0615 69.4554 20.638 69.3749 21.3351C69.2744 22.1796 70.0653 22.6689 70.8027 22.8968C70.7892 23.1784 70.8228 23.4666 70.863 23.7146C70.93 24.1034 71.54 23.9358 71.4796 23.5537C71.3456 22.7561 71.5802 22.0121 72.5588 22.2802C72.646 22.307 72.7934 22.3673 72.961 22.441H72.9543C72.5588 22.7628 71.3523 23.9291 72.4717 24.2173C72.6392 24.2575 72.8269 24.2575 73.0213 24.224C73.0213 24.5055 73.0079 24.7803 73.0682 25.0619C73.1554 25.464 73.7988 25.2965 73.7117 24.8943C73.6514 24.6061 73.7184 24.2776 73.6916 23.9827C73.9262 23.8419 74.1206 23.6677 74.2345 23.4666C74.4289 23.1381 74.3552 22.8298 74.1474 22.555C74.1876 22.5617 74.2278 22.555 74.2747 22.5416C75.3472 22.2467 76.0577 22.7226 75.9907 23.8017C75.9639 24.2441 75.7494 24.6597 75.488 25.0149C75.1662 25.464 74.6166 25.6182 74.2613 26.0003C74.1742 26.0941 74.1943 26.2751 74.3485 26.3019C75.7494 26.5432 76.6744 24.6128 76.6744 23.547C76.6744 22.4544 75.8969 21.8646 74.9517 21.8646C75.2065 21.6166 75.4008 21.3552 75.5617 21.0871C76.4934 21.1943 77.1905 21.8847 77.4921 22.984C77.6798 23.661 77.6396 24.3983 77.4854 25.0753C77.4653 25.1758 77.4184 25.263 77.3849 25.3568C76.6275 26.007 75.9974 26.8113 75.6019 27.5352C75.4277 27.6157 75.2467 27.7095 75.0657 27.8302C75.0389 27.8503 75.0255 27.8704 75.0054 27.8905C74.4758 27.5084 73.819 27.3073 73.095 27.1934C73.1219 27.1666 73.1353 27.1398 73.1353 27.0928C73.2358 25.2697 71.9757 24.3782 70.1994 24.1838C67.7126 23.9157 64.6896 25.1289 62.8597 23.0912C62.8798 23.0845 62.9067 23.0845 62.9268 23.0845C65.7219 22.7025 67.7931 22.1059 70.2597 23.7883C70.434 23.9023 70.6217 23.6811 70.5345 23.5269C69.7436 22.1796 68.2623 21.8981 66.7675 21.9249C66.7742 21.8914 66.7876 21.8579 66.7742 21.8244C65.9163 19.5789 64.4148 19.3778 62.6989 19.8068C62.6922 19.8001 62.6989 19.7934 62.6922 19.7867C62.0688 19.0494 60.9829 18.8148 59.9775 18.8349C59.3675 18.3724 58.4559 18.1981 57.732 18.0372C56.6797 17.8026 55.6206 17.8496 54.5951 18.1579C54.4007 18.2182 54.3672 18.3992 54.4275 18.5333C54.1594 18.6137 53.8913 18.7142 53.6299 18.8416C53.65 18.788 53.6433 18.7276 53.5896 18.6807C52.6579 17.9367 51.009 18.0037 49.8561 18.3255C46.5248 18.4126 45.1239 23.0979 41.6585 23.3258C41.7523 23.2186 41.8462 23.118 41.9333 23.0108C42.5768 22.2198 43.1935 21.4155 43.8973 20.6782C44.9831 19.532 46.2299 19.1432 47.671 18.5802C47.8587 18.5064 47.8319 18.2584 47.6241 18.2383C46.4444 18.1512 45.4725 18.4997 44.6078 19.0829C44.6681 18.9555 44.5877 18.7813 44.4 18.7612C42.8114 18.5601 41.129 19.7398 39.9962 20.6782C39.3862 21.1876 38.8366 21.7909 38.3741 22.4544C38.4679 21.5294 38.4746 20.5709 38.4411 19.5655C38.4344 19.3242 38.1395 19.2103 37.9585 19.3711C36.8525 20.3564 35.3377 22.3405 34.9422 24.1905C34.4998 22.5684 33.8362 20.9597 32.5359 19.9409C32.3683 19.8068 32.1002 19.8403 32.0332 20.0682C31.4031 22.24 32.1672 24.4251 33.6419 26.0807C33.615 26.074 33.5949 26.0606 33.5681 26.0472C32.4018 25.6517 31.1685 25.8863 30.21 26.4762C31.2556 25.3903 31.6176 23.6207 31.6377 22.2601C31.6377 22.0992 31.4902 21.945 31.316 21.9517C29.0973 22.0791 28.4002 24.8541 28.8091 26.5767C28.8426 26.7309 28.9632 26.7845 29.0906 26.7845C28.9699 26.9856 29.2314 27.1934 29.4324 27.0928C29.4526 27.0794 29.4727 27.066 29.4928 27.0526C29.2247 27.314 28.9968 27.6023 28.8292 27.9106C28.8024 26.0405 28.2795 24.0832 28.2125 22.2601C28.2058 22.0121 27.864 21.8445 27.6763 22.0456C25.9738 23.8554 26.1346 26.6639 28.0986 28.239C28.1187 28.42 28.1455 28.5943 28.1723 28.7753C26.9591 27.2269 25.4442 25.893 23.2725 25.9802C23.058 25.9869 22.8837 26.1813 22.944 26.389C22.9709 26.4829 23.0178 26.5633 23.0513 26.6572C22.9239 26.7778 22.877 26.9789 23.0379 27.1062C23.1518 27.1934 23.2658 27.2939 23.3864 27.3945C23.6747 27.9106 24.05 28.3731 24.4857 28.7686C24.2913 28.6948 24.0969 28.6412 23.8959 28.6211C23.2725 28.5541 22.5285 28.7753 22.0727 29.2311C22.6826 26.3421 22.133 23.4666 20.9265 20.7586C20.8863 20.6715 20.7522 20.6045 20.6584 20.6112C20.5913 20.6179 20.5243 20.6179 20.4573 20.6179C20.3232 20.6179 20.1959 20.705 20.1624 20.8323C19.5323 23.1918 19.3647 25.5244 20.2696 27.6559C19.7937 27.2068 19.2843 26.7778 18.795 26.3689C17.937 25.645 16.9986 25.0217 15.9127 24.6731C15.6647 24.5927 15.4971 24.834 15.5307 25.0418C15.8323 27.0191 18.004 28.105 19.7803 28.7082C19.7937 28.7149 19.8071 28.7082 19.8138 28.7149C19.4653 28.7351 19.1234 28.8021 18.8151 28.916C17.8633 29.2579 16.9852 29.9483 16.5361 30.8331C16.4221 31.061 16.3484 31.3358 16.3216 31.6173C15.2894 30.089 13.4997 29.4053 12.0318 28.2189C11.8173 28.0447 11.4888 28.1519 11.4754 28.4401C11.3682 30.7794 13.7008 32.0932 15.6848 32.9512C14.7397 32.8439 13.8214 33.2997 13.2718 34.4191C12.7288 35.5184 12.9903 36.497 13.7075 37.1137C13.312 37.4689 13.0774 38.0722 13.1042 38.8028C13.1377 39.9155 13.808 40.8673 14.7397 41.3097C12.9232 40.6729 10.5437 40.6059 8.8881 41.2292C8.61998 41.3298 8.53955 41.6649 8.80766 41.8258C10.7381 42.9452 13.4192 43.0524 15.4971 42.1408C15.5307 42.1408 15.5709 42.1475 15.6044 42.1475C13.6136 43.9774 12.3669 46.6183 12.4674 49.2593C12.4808 49.5475 12.8294 49.6883 13.0439 49.4872C15.2894 47.4696 16.8444 45.2577 17.0857 42.4156C17.1595 42.3084 17.2399 42.1944 17.3203 42.0872C17.5951 42.858 18.1917 43.5015 18.9826 43.8769C19.2709 44.0176 19.606 44.0914 19.9479 44.1115C18.185 45.2845 17.0455 47.0876 16.5026 49.1721C16.4624 49.3397 16.5562 49.5341 16.7372 49.5743C19.1569 50.1106 20.8259 47.9723 21.7308 45.8341C21.7308 45.8341 21.7308 45.8341 21.7308 45.8408C21.7375 46.1223 21.7777 46.4039 21.8381 46.6854C21.7509 46.6854 21.6638 46.7189 21.6236 46.8127C20.7589 48.6426 20.3567 50.5261 20.5176 52.537C20.5444 52.8855 21.0873 52.9928 21.1812 52.6241C21.3756 51.8399 21.6839 51.0154 21.9386 50.1776C22.1866 50.7674 22.6022 51.3037 23.1183 51.7595C23.0379 51.8131 22.9843 51.9069 23.0111 52.0276C23.2055 52.9124 23.5138 53.7301 23.8825 54.5278C23.869 54.5479 23.8556 54.568 23.8422 54.5948C23.1652 56.7196 23.4267 58.8176 24.1171 60.8486C24.0299 60.8352 23.9227 60.8687 23.8825 60.9692C23.1652 62.6919 23.2926 64.1531 23.9696 65.7886C23.916 65.8087 23.869 65.8422 23.8422 65.8959C23.0848 67.5716 23.1183 69.0596 23.916 70.6951C23.2524 72.4312 23.3328 73.9862 24.1774 75.7022C24.1774 75.7089 24.1841 75.7089 24.1841 75.7156C24.0433 77.5723 23.42 79.858 24.1908 81.6141C21.9386 81.7884 19.6797 81.956 17.5013 81.6074C17.193 81.5605 17.0589 81.9761 17.3672 82.0632C22.6357 83.5177 28.0919 81.4063 33.4676 82.834C33.7357 82.9078 33.9234 82.5123 33.662 82.3984C31.6444 81.527 29.5196 81.3661 27.3545 81.4264C27.368 81.1784 27.3747 80.9304 27.3478 80.6891C27.7969 79.5027 27.8036 78.1353 27.4819 76.8685C27.5623 76.4797 27.5489 76.0976 27.4819 75.7223C27.6964 74.8777 27.7366 73.9862 27.6227 73.1216C27.6696 73.088 27.7031 73.0411 27.7098 72.9808C27.75 72.3306 27.6629 71.7207 27.5087 71.1308C28.0181 69.8103 27.7969 68.3089 27.4484 66.9013C27.4752 66.8678 27.4886 66.8209 27.4752 66.7672C27.2205 65.6009 26.7848 64.5419 26.3156 63.5297C26.3826 63.5297 26.443 63.5096 26.4698 63.4426C27.2473 61.6797 27.0596 60.0375 26.4966 58.4489C27.2138 56.8738 26.9658 54.8763 26.5368 53.2609C26.5234 53.2207 26.5033 53.1872 26.4832 53.1604C27.5355 53.2207 28.6013 52.9526 29.4928 52.2488C29.4995 52.356 29.4995 52.4633 29.5062 52.5705C28.2728 54.0317 27.6026 55.8549 27.7701 57.7585C27.7969 58.0267 28.1187 58.1875 28.3332 57.9797C29.1911 57.1821 29.6469 56.2102 29.8614 55.1779C30.1899 56.485 30.8736 57.6714 32.1538 58.4154C32.3214 58.5093 32.5024 58.4422 32.6029 58.3015C33.5748 57.0078 33.4542 55.5533 32.7906 54.2663C33.4743 54.5948 34.2585 54.7288 35.0226 54.6015C35.2036 54.568 35.3042 54.3602 35.2572 54.206C34.9154 53.0732 33.8496 52.0812 32.6297 51.8265C34.2987 51.3573 35.2505 49.7084 34.7545 48.0662C34.6808 47.8182 34.3121 47.8785 34.2987 48.1265C34.1915 49.6481 33.8966 51.1093 32.0332 51.3372C31.7852 51.364 31.5439 51.364 31.3025 51.3305C31.2556 51.1763 31.0679 51.1696 30.9607 51.2701C30.7998 51.2299 30.639 51.183 30.4915 51.1227C30.6256 50.9082 30.3239 50.7004 30.143 50.8613C30.1228 50.8814 30.096 50.9015 30.0759 50.9216C29.667 50.6937 29.3051 50.3854 28.9968 50.0301C29.9821 49.7419 30.5652 48.8571 30.6859 47.9388C31.8656 47.6238 32.6967 46.7658 32.3482 45.4118C32.2946 45.204 32.2074 45.0231 32.1002 44.8622C32.0734 44.5539 31.9996 44.279 31.8924 44.0377C32.1136 43.8434 32.2611 43.5819 32.3616 43.3004C33.0453 43.7093 33.6083 44.3193 34.0239 44.9627C34.2719 45.3448 34.4529 45.7604 34.4529 46.2162C34.4529 46.4843 34.292 46.6586 34.0909 46.7993C34.0038 46.4709 33.8765 46.1492 33.7491 45.8743C33.6284 45.6129 33.1794 45.8006 33.2732 46.0687C33.4073 46.4508 33.481 46.7993 33.5212 47.1479C33.481 47.1747 33.4408 47.2015 33.4006 47.235C33.3 47.3154 33.3536 47.4897 33.481 47.5165C33.5011 47.5232 33.5212 47.5165 33.5413 47.5232C33.5413 47.8919 33.5011 48.2606 33.3871 48.6694C33.3603 48.7767 33.4944 48.904 33.6016 48.8236C34.0842 48.475 34.2317 47.9924 34.2116 47.483C35.3243 47.3356 35.8069 46.2363 35.6594 45.2242C35.4784 44.0042 34.3859 42.8379 33.2531 42.3352C32.9783 42.2146 32.7303 42.5966 33.0118 42.7307C33.9033 43.1664 34.5467 43.9573 34.9087 44.8421C35.083 45.2577 35.1098 45.5928 35.0361 45.881C35.0226 45.7068 34.9958 45.5325 34.9422 45.3783C34.5669 44.3126 33.5614 43.3272 32.4823 42.8446C32.5225 42.5832 32.5359 42.3151 32.4957 42.0403C32.3683 41.1622 31.8187 40.2372 31.0814 39.5401C31.202 39.6004 31.3025 39.6742 31.4366 39.7278C32.2812 40.0629 33.2196 39.8954 33.91 39.3457C34.0977 39.1983 34.2719 38.9972 34.4261 38.7626C34.4864 41.2091 35.1567 44.0713 37.3955 45.1303C37.6301 45.2443 37.8781 45.1035 37.8982 44.8555C38.0993 42.3084 38.2601 39.3256 36.3766 37.3281C36.7587 37.4019 37.1877 37.3885 37.6502 37.2611C38.4009 37.0533 39.0712 36.5305 39.3862 35.8401C39.6946 35.1564 39.6074 34.1309 39.0176 33.5946C39.594 33.1321 39.9024 32.4015 39.9694 31.6441C40.2978 31.9055 40.5525 32.234 40.5659 32.6696C40.586 33.2528 39.842 33.608 39.4466 33.9298C39.2857 34.0638 39.46 34.2716 39.6342 34.2381C40.4453 34.0974 41.129 33.474 41.1692 32.6696C41.2027 31.986 40.5726 31.4832 39.9828 31.1682C39.9694 30.9202 39.9426 30.6789 39.8822 30.4443C39.5471 29.1573 38.5551 28.105 37.315 27.5956C38.736 26.9923 40.0364 26.1947 41.2228 25.216C41.4306 25.0418 41.263 24.6865 40.9949 24.6999C40.7603 24.7133 40.519 24.7468 40.2844 24.7803C40.5994 24.5122 40.8944 24.224 41.1826 23.9224C41.1893 23.9224 41.1893 23.9224 41.196 23.9291C41.3904 23.9492 41.5781 23.9626 41.7658 23.9626C41.7523 24.0028 41.7389 24.0497 41.759 24.1101C44.2391 32.9042 48.1938 41.5242 54.1326 48.6828C58.4358 53.8709 65.6012 59.4142 72.9476 59.6421C73.1487 60.7816 74.1072 61.7401 75.2534 62.0819C71.0775 67.3169 66.7742 72.9942 65.3398 79.5027C65.2795 79.7842 65.6817 79.8848 65.7822 79.6167C68.0612 73.564 71.3188 68.5971 75.0255 63.4627C73.6916 66.8074 72.4315 70.3332 71.7478 73.7114C71.6874 74.0197 72.1566 74.1538 72.2438 73.8388C73.3766 69.7701 75.8633 65.6344 76.4867 61.4451C76.547 61.358 76.6074 61.2776 76.6744 61.1904C76.7146 61.1368 76.7213 61.0832 76.7213 61.0363C76.909 60.9759 77.09 60.8955 77.2441 60.7681C76.9157 61.6127 76.7749 62.464 77.2776 63.3152C77.4318 63.5767 77.6061 63.8113 77.7804 64.0257C78.3903 65.6881 77.3179 67.337 78.0552 68.939C76.9291 70.6951 75.4411 72.6859 77.1235 74.5091C76.7548 75.1257 76.5939 75.7692 77.472 76.1177C77.5525 76.1513 77.6262 76.1714 77.6999 76.1982C77.2173 77.6192 76.6342 80.4277 77.8943 81.6275C73.5173 81.1583 69.2007 80.1529 64.7432 80.3942C58.5632 80.7293 52.4904 83.7322 46.3706 81.2455C46.0355 81.1114 45.7406 81.5672 46.0824 81.7214C51.0224 83.8998 56.7266 82.4051 61.8141 81.4801C69.2074 80.1328 76.2521 83.511 83.5381 82.3179C83.8398 82.271 83.7727 81.7817 83.4644 81.8018C81.8825 81.909 80.3208 81.8554 78.7657 81.7147C78.2563 80.8634 77.8809 80.2266 77.8273 79.1944C77.7804 78.2493 77.9815 77.2706 78.2429 76.3591C78.7724 76.4998 79.1813 76.6205 79.6706 77.2774C80.6894 78.6447 79.7711 79.9116 79.2282 81.2388C79.1478 81.4331 79.4494 81.5873 79.5901 81.4398C80.7967 80.1328 81.2055 78.4906 80.2403 76.9556C79.932 76.473 79.5097 76.0038 78.9266 75.8295C78.0552 75.5681 77.3648 75.5681 77.5793 74.8375C78.0686 75.0252 78.7322 74.9783 79.188 74.9649C79.6639 74.9514 80.1331 74.9179 80.6023 74.985C81.4602 75.1123 81.3731 75.91 81.286 76.587C81.2256 76.3926 81.1653 76.2049 81.0916 76.0373C80.9776 75.7491 80.5017 75.863 80.6023 76.1647C80.8503 76.9355 80.9709 77.6996 80.9307 78.5107C80.8905 79.3687 80.4481 80.0591 80.2537 80.8701C80.2068 81.0578 80.4414 81.1851 80.5889 81.0578C81.6211 80.1462 81.7284 78.6045 81.4602 77.2639C81.534 77.2639 81.6077 77.2438 81.6479 77.1701C82.2847 75.9837 82.1171 74.4353 80.4749 74.3147C79.6505 74.2544 78.6584 74.4957 77.8608 74.2141C77.901 74.013 77.6329 73.879 77.472 74.0265C76.0912 73.1082 77.6061 70.8024 78.4775 69.4283C78.6048 69.5154 78.7389 69.5891 78.8528 69.6562C80.495 70.5812 80.0392 72.029 79.6237 73.5371C79.5566 73.7851 79.9052 73.9192 80.0459 73.7047C80.7095 72.706 81.1921 70.9632 80.3543 69.9042C80.3677 69.8908 80.3878 69.8975 80.4012 69.8774C80.8302 69.3948 80.9307 68.7446 80.8838 68.1078C81.0514 67.6453 81.038 67.1828 80.8972 66.7337C82.1372 65.3864 82.6802 63.4627 81.42 61.9478C81.2525 61.7401 80.8034 61.5122 80.5755 61.3848C78.9266 60.4531 79.074 59.146 79.3421 57.6513C79.4896 56.8335 79.4561 56.1633 79.2349 55.5198C80.6693 56.9073 80.5621 58.4959 81.0514 60.3392C81.1117 60.5671 81.4602 60.5067 81.4669 60.2855C81.5206 58.8846 81.4535 57.9261 81.1586 57.1151C81.2189 57.1821 81.2793 57.2558 81.3396 57.3229C81.8222 59.8565 82.8612 62.531 85.1133 64.0392C85.2675 64.1397 85.4954 64.066 85.5825 63.9185C87.1041 61.3178 84.7849 58.1339 82.2847 56.6191C82.5662 56.4381 82.8343 56.17 83.0488 55.9957C83.5515 55.5868 84.0543 55.1712 84.5168 54.7221C84.7178 54.5278 84.5771 54.1658 84.2822 54.1725C83.5515 54.1926 82.7338 54.3468 82.0434 54.5814C82.4456 53.4017 82.4724 52.2086 82.1976 50.9953C83.0086 52.2823 84.3358 53.3011 85.9646 53.6229ZM65.5543 17.7959C65.4873 17.7021 65.4202 17.6016 65.3465 17.5077C65.1454 17.2329 64.6829 17.4809 64.8773 17.7691C65.1052 18.111 65.3398 18.4528 65.5677 18.7947C63.959 18.0507 62.471 16.8642 62.2565 15.2354C63.3021 15.6443 64.3478 16.0934 65.1923 16.824C65.5543 17.1391 65.7956 17.4876 65.9632 17.8563C65.8559 17.7155 65.6817 17.7155 65.5543 17.7959ZM67.478 17.6083C66.9217 16.1805 66.8144 14.5249 67.5786 13.1844C67.8132 14.6724 67.6255 16.1336 67.478 17.6083ZM72.5253 21.6099C72.0427 21.5026 71.54 21.5965 71.178 21.9316C71.0507 22.0523 70.9635 22.193 70.8965 22.3405C70.4742 22.1528 69.938 21.8311 70.0117 21.3552C70.0921 20.8793 70.5547 20.5307 70.9635 20.3229C71.359 20.1218 71.8751 20.0213 72.3108 20.1822C72.5387 20.4771 72.7532 20.7921 72.9811 21.1273C73.0079 21.3418 73.0146 21.5697 73.0414 21.7842C72.8537 21.7037 72.6728 21.6434 72.5253 21.6099ZM74.992 20.5441C74.8713 20.5575 74.7574 20.5843 74.6367 20.6179C74.6568 20.5575 74.6568 20.4838 74.6032 20.4101C73.5039 18.7947 73.5173 16.4621 74.2747 14.6389C74.5026 15.4969 74.8244 16.328 75.0925 17.1726C75.5148 18.4662 75.4411 19.4985 74.992 20.5441ZM27.5891 23.1918C27.6361 24.0497 27.7366 24.9077 27.8372 25.7657C27.9042 26.2818 27.9377 26.8113 27.9846 27.3409C27.0127 26.141 26.8384 24.5189 27.5891 23.1918ZM16.2948 25.5043C17.5549 26.1008 18.4732 27.113 19.4921 27.991C18.2319 27.4615 16.8511 26.7242 16.2948 25.5043ZM12.1524 29.1104C12.8696 29.5997 13.6471 30.0354 14.3442 30.5448C14.2705 30.6186 14.237 30.7124 14.2772 30.8264C14.3912 31.1816 14.5654 31.5436 14.7866 31.8787C13.5667 31.2352 12.4138 30.3706 12.1524 29.1104ZM9.86002 41.6247C10.899 41.3968 11.9245 41.4705 13.0171 41.6649C13.379 41.7319 13.7477 41.8392 14.1163 41.933C12.7154 42.2481 11.1671 42.1475 9.86002 41.6247ZM28.4136 56.8872C28.4337 56.5587 28.4806 56.237 28.541 55.9153C28.6281 55.9018 28.7152 55.8616 28.7689 55.7812C28.9901 55.4729 29.1643 55.1511 29.3185 54.816C29.1643 55.5667 28.8828 56.2705 28.4136 56.8872ZM34.4462 53.9915C33.7022 54.0049 32.9917 53.7033 32.4085 53.2609C32.0801 53.0129 31.8522 52.7314 31.6846 52.423C32.8643 52.356 33.9569 52.9593 34.4462 53.9915ZM30.3708 52.5035C30.391 52.47 30.4044 52.4297 30.4111 52.3962C31.9728 53.7636 33.3804 55.741 32.2141 57.6647C30.6926 56.6057 30.2167 54.7221 30.1161 52.9392C30.2033 52.7917 30.2837 52.6442 30.3708 52.5035ZM32.4756 20.7251C33.0855 21.3552 33.5212 22.1327 33.8496 22.984C33.662 22.8968 33.3871 22.984 33.4073 23.232C33.4073 23.2588 33.4207 23.2856 33.4207 23.3124C33.4207 23.3191 33.4274 23.3258 33.4274 23.3258C33.4944 23.9492 33.7223 24.5055 34.0507 25.0217C34.2049 25.4037 34.3792 25.7724 34.5602 26.141C33.1123 24.72 32.1069 22.7092 32.4756 20.7251ZM29.3721 26.3957C29.1241 25.1758 29.5062 23.0041 30.954 22.6354C30.9004 23.4197 30.7395 24.1771 30.4178 24.9077C30.1631 25.4707 29.7542 25.9198 29.3721 26.3957ZM33.5413 26.7041C34.473 27.0928 35.2304 27.8503 35.7399 28.6814C36.2359 29.4925 36.1688 30.0957 35.8203 30.6923C35.2841 30.5381 34.7076 30.4912 34.1982 30.5582C34.1312 30.5649 34.0708 30.585 34.0038 30.5985C33.9703 29.8477 33.7491 28.9629 33.1056 28.4937C32.6699 28.1787 32.0935 28.172 31.631 28.4468C31.1752 28.7216 30.9205 29.2512 31.0143 29.7606C31.1551 30.5247 31.946 30.947 32.6364 31.2017C32.6632 31.2151 32.6833 31.2151 32.7102 31.2151C32.6498 31.2754 32.6029 31.3559 32.5493 31.4296C32.5292 31.3827 32.5024 31.3358 32.442 31.3023C31.5573 30.7727 30.5317 30.4309 29.5062 30.5448C28.0181 28.172 30.9942 25.6383 33.5413 26.7041ZM34.7411 32.3479C34.3926 32.435 34.0775 32.7032 33.8496 33.0316C33.8161 33.0517 33.7826 33.0718 33.7491 33.0852C33.6486 32.9378 33.4877 32.8037 33.4207 32.5959C33.3536 32.4082 33.1391 32.3479 32.9716 32.4082C32.9112 31.9591 33.0922 31.5436 33.729 31.3023C34.2518 31.1079 34.8752 31.0878 35.4449 31.2218C35.3578 31.3291 35.2573 31.443 35.1567 31.5503C35.0025 31.7178 35.1433 31.9994 35.3913 31.939C35.713 31.8519 35.9678 31.6977 36.1688 31.5033C36.3029 31.5771 36.437 31.6642 36.5509 31.7648C36.9732 32.1334 37.0737 32.6562 36.9866 33.1791C36.8995 33.7019 36.5107 33.9633 36.0415 34.084C36.0415 34.0638 36.0549 34.0571 36.0549 34.037C35.9946 33.3198 35.7868 32.0865 34.7411 32.3479ZM32.9515 31.0207C32.9783 30.9001 32.9314 30.7526 32.7772 30.6923C32.3013 30.4979 31.7516 30.203 31.5975 29.6869C31.5103 29.3986 31.6645 29.0836 31.9192 28.916C32.194 28.7283 32.5426 28.7283 32.7973 28.9428C33.3201 29.3651 33.3536 30.1561 33.414 30.7526C33.414 30.7593 33.414 30.7593 33.414 30.766C33.2531 30.8331 33.0989 30.9202 32.9515 31.0207ZM28.5141 30.8129C27.8036 31.128 27.2272 31.6709 26.8853 32.3412C26.8988 31.6307 26.6709 30.8867 26.1815 30.1762C26.0877 30.0421 25.9805 29.9081 25.8732 29.7874C26.691 30.2432 27.6093 30.5783 28.5141 30.8129ZM19.0229 35.4178C19.2239 37.0667 21.3555 38.6419 22.8703 37.1338C24.3181 35.6926 21.8917 34.0303 20.4305 34.1041C20.2629 34.1108 20.102 34.2381 20.1087 34.4124C20.1288 34.7811 20.1556 35.1765 20.5042 35.3977C20.7589 35.5519 21.0002 35.21 20.8125 35.0157C20.7656 34.9687 20.7522 34.8548 20.7522 34.7341C21.4962 34.8012 22.1665 35.2234 22.562 35.8401C23.0647 36.6109 21.9051 37.0332 21.3152 37.0734C20.6852 37.1137 20.2227 36.6311 19.9345 36.1618C19.3982 35.2704 19.606 34.2046 20.2495 33.4472C20.4841 33.1657 20.779 33.0048 21.0873 32.9109C21.1544 32.9244 21.2214 32.9445 21.2884 32.9579C21.3421 33.045 21.4627 33.0718 21.5431 33.0115C22.1397 33.1657 22.7162 33.4137 23.1988 33.6885C23.6613 33.9566 24.0902 34.3186 24.412 34.7542C24.4254 34.7878 24.4321 34.828 24.4388 34.8682C24.3718 34.9754 24.412 35.1229 24.5058 35.2033C24.593 35.9138 24.3919 36.6512 23.8154 37.1807C22.991 37.9381 21.5968 37.8577 20.5712 37.6365C19.5658 37.422 18.5067 36.926 17.87 36.1283C17.0187 35.0626 17.823 34.0035 18.7749 33.3332C19.1435 33.0718 19.5524 32.9445 19.9814 32.8841C19.2843 33.4807 18.8955 34.4057 19.0229 35.4178ZM24.5796 37.4019C25.3973 36.7986 25.5984 35.8468 25.2297 34.9754C25.8464 34.6269 26.2821 34.1577 26.5569 33.6349C26.5569 33.8292 26.5904 34.0236 26.644 34.2113C26.5904 34.218 26.5435 34.2113 26.4899 34.2314C26.1078 34.3722 26.2486 34.7676 26.2955 35.0425C26.3089 35.1229 26.4228 35.1832 26.5033 35.1564C26.6373 35.1028 26.7781 35.0291 26.8183 34.8816C26.825 34.8615 26.825 34.8414 26.825 34.828C26.8317 34.8414 26.825 34.8414 26.8317 34.8481C26.9055 35.009 26.9457 35.1832 26.9859 35.3508C27.2004 36.182 27.073 37.107 26.8652 37.9247C26.7982 38.1995 26.6977 38.4676 26.5837 38.7291C25.9201 39.0575 25.3571 39.5669 24.9415 40.1836C24.4321 40.0964 23.9495 39.6272 23.6344 39.2452C23.6009 39.205 23.554 39.1848 23.5138 39.1714C23.5071 39.1312 23.5138 39.091 23.5071 39.0508C24.0299 38.5883 24.4254 38.0051 24.5796 37.4019ZM23.8489 26.8985C23.8154 26.8247 23.7886 26.7443 23.7551 26.6706C25.1828 26.7845 26.2687 27.6023 27.1669 28.6345C26.0609 28.0514 24.908 27.5553 23.8489 26.8985ZM21.8448 30.1628C21.8716 30.1628 21.9051 30.1628 21.9319 30.1427C22.562 29.7539 22.8837 29.1908 23.7216 29.2177C24.5192 29.2378 25.2163 29.8947 25.6453 30.4778C26.7178 31.9189 26.4228 33.5879 24.9884 34.5129C24.5863 33.3399 23.4937 32.3814 22.1799 32.2273C22.0459 32.2139 21.9185 32.2206 21.7912 32.2206C21.9587 31.5369 22.0325 30.8129 21.8448 30.1628ZM20.5913 21.5093C20.6986 21.0334 20.5712 21.6032 20.7656 22.0992C21.0538 22.8432 21.2415 23.614 21.4158 24.3916C21.7308 25.8059 21.7174 27.2336 21.4761 28.6412C20.0484 26.4628 20.0015 24.0564 20.5913 21.5093ZM16.4892 32.7836C16.5026 32.7769 16.516 32.7769 16.5294 32.7702C16.6634 32.9713 16.8444 33.1388 17.0924 33.2461C17.2935 33.3332 17.4879 33.159 17.3874 32.9646C17.0522 32.2742 16.7104 31.8318 17.0991 31.0677C17.4477 30.384 18.1314 29.8745 18.8352 29.5528C19.4585 29.2713 20.3098 29.1372 20.8662 29.6131C21.5431 30.1963 21.4761 31.3626 21.3421 32.2675C21.2415 32.2876 21.141 32.2943 21.0471 32.3211C20.6517 32.2742 20.2495 32.2608 19.8607 32.3077C18.9558 32.4082 17.9437 32.9914 17.3538 33.7823C17.0254 33.4807 16.6701 33.2662 16.3015 33.1187C16.4422 33.0517 16.5294 32.9109 16.4892 32.7836ZM13.1444 48.4482C13.2785 46.4776 14.17 44.5405 15.5575 43.0658C14.9073 44.2254 14.2705 45.3917 13.7008 46.5915C13.5265 46.9602 14.0694 47.2819 14.2705 46.9133C14.9006 45.8006 15.524 44.7482 16.1875 43.7093C15.6714 45.5124 14.5856 47.0339 13.1444 48.4482ZM17.2399 48.9912C17.6421 47.6372 18.3191 46.4374 19.2843 45.4722C19.1502 45.7336 19.5591 46.0553 19.8607 45.8274C20.4104 45.4185 20.9332 44.9828 21.456 44.5472C20.8393 46.5379 19.4317 49.1856 17.2399 48.9912ZM21.9051 43.1865C21.9453 43.106 21.9989 43.0323 22.0258 42.9452C22.0794 42.7843 21.8783 42.6502 21.7375 42.7307C21.3219 42.9653 21.0136 43.2937 20.5377 43.4345C20.0551 43.5819 19.5457 43.4546 19.11 43.2468C18.2185 42.8245 17.6622 41.8995 17.689 40.9611C17.6957 40.6126 17.1528 40.6193 17.1259 40.9611C17.1125 41.1354 17.1192 41.3097 17.1393 41.4772C17.1326 41.4839 17.1259 41.4839 17.1192 41.4906C17.1125 41.4504 17.0924 41.4102 17.0656 41.3767C17.0656 41.303 17.0723 41.2359 17.0723 41.1622C17.0589 40.9477 16.8444 40.874 16.6903 40.9276C15.2894 40.9745 14.2102 40.7399 13.7946 39.2653C13.5734 38.4945 13.7611 37.7236 14.2638 37.4957C14.5788 37.6432 14.9408 37.7303 15.3296 37.7705C15.3832 38.233 15.6245 38.662 16.1406 38.8497C16.2948 38.9033 16.4557 38.7358 16.4087 38.595C16.3082 38.3068 16.087 38.099 15.973 37.8242C15.839 37.4957 15.8993 37.174 16.0401 36.8589C16.1808 36.5506 15.7183 36.2758 15.5575 36.5908C15.4904 36.7182 15.4368 36.8657 15.3966 37.0064C15.0011 36.8053 14.6392 36.745 14.3174 36.8053C12.6551 35.5921 14.6861 32.0463 17.0589 34.2716C16.9718 34.466 16.9047 34.6604 16.8779 34.8682C16.7305 36.0613 17.6622 36.9662 18.6475 37.5493C19.9948 38.3403 22.0191 38.6486 23.4602 38.0387C22.9977 38.6218 22.5084 39.1312 21.6035 39.3658C20.1556 39.7345 18.9156 38.6486 18.2386 37.5628C18.0643 37.2812 17.6153 37.5359 17.7761 37.8175C18.547 39.1446 19.7736 40.13 21.4292 40.0026C21.9855 39.9624 22.5486 39.7345 23.0446 39.3993C23.0513 40.7198 21.9989 41.3767 20.5444 41.3097C19.9277 41.2761 19.3044 41.0885 18.7816 40.7734C18.252 40.4517 18.2989 40.13 18.2453 39.6138C18.2252 39.4127 17.9973 39.3122 17.8297 39.4463C17.3002 39.8954 17.689 40.6528 18.0912 41.0348C18.681 41.5912 19.5859 41.8124 20.3835 41.8995C22.0593 42.0805 23.2926 41.2627 23.4937 39.9088C23.8154 40.264 24.1908 40.5791 24.6198 40.7131C24.2846 41.3834 24.0969 42.1207 24.1238 42.858C23.4065 43.0055 22.743 43.401 22.2872 43.9908C22.3073 43.9104 22.3274 43.8232 22.3408 43.7495C22.381 43.5417 22.2537 43.4077 22.0861 43.3742C22.0794 43.2803 22.0056 43.2066 21.9051 43.1865ZM26.7647 43.5283C27.3881 43.153 28.1857 42.9519 28.8359 42.9117C29.8145 42.8513 30.5987 43.153 31.0948 43.716C30.9674 43.7964 30.8132 43.8769 30.6524 43.9439C29.9016 43.7294 29.0504 43.7093 28.3868 43.8031C27.9779 43.8568 27.6227 43.9908 27.3009 44.1718C27.1468 43.9171 26.9658 43.7026 26.7647 43.5283ZM27.2406 45.7805C27.0328 45.9414 26.8652 46.1626 26.7848 46.4776C26.7513 46.6116 26.7446 46.739 26.7513 46.8731C26.5904 46.7725 26.4363 46.6586 26.3089 46.5245C26.329 46.4508 26.3424 46.3703 26.3625 46.2966C26.4966 45.8341 26.7312 45.4655 27.0261 45.1638C27.0529 45.318 27.0931 45.4856 27.1669 45.6799C27.187 45.7202 27.2071 45.7537 27.2406 45.7805ZM26.8451 44.4868C26.4094 44.8622 26.081 45.3448 25.8732 45.8743C25.7995 45.7001 25.7459 45.5124 25.7257 45.2979C25.6721 44.7214 25.9 44.2589 26.2754 43.897C26.4765 44.0578 26.6709 44.2522 26.8451 44.4868ZM25.3169 44.6343C25.0353 44.2589 24.8678 43.8501 24.7806 43.4211C25.156 43.4144 25.5314 43.5015 25.8866 43.6691C25.6185 43.9573 25.4241 44.279 25.3169 44.6343ZM25.0555 45.2107C25.1024 45.2644 25.156 45.2845 25.2163 45.2912C25.2163 45.6062 25.27 45.928 25.3906 46.2497C25.4509 46.4106 25.5448 46.558 25.6386 46.6921C25.4978 47.5366 25.6185 48.4013 26.0073 49.0582C25.2096 49.4805 24.5728 49.5877 23.7551 48.8772C23.2658 48.4482 22.9373 47.8718 22.7027 47.2685C22.8435 47.0205 23.0178 46.7792 23.2256 46.5513C23.4468 46.3033 23.0781 45.9414 22.8502 46.1894C22.7162 46.3301 22.5955 46.4709 22.4883 46.6116C22.4681 46.5245 22.4346 46.4374 22.4145 46.3435C22.0928 44.8421 23.0379 43.7763 24.2042 43.5015C24.3382 44.1048 24.6064 44.6946 25.0555 45.2107ZM23.6009 52.1549C24.345 52.6644 25.2431 52.9995 26.1547 53.1C26.0609 53.147 25.9939 53.2408 26.0207 53.3682C26.1748 54.2798 26.2486 55.1846 26.2486 56.1029C26.2486 56.5989 26.1815 57.0883 26.1413 57.5843C25.3571 55.7745 24.2176 54.0049 23.6009 52.1549ZM24.1908 55.198C24.4723 55.7544 24.7672 56.3107 25.0823 56.8738C26.2553 59.0053 26.3759 60.7816 26.0944 63.0873C24.8946 60.6073 23.5808 58.3082 24.1908 55.198ZM24.6332 81.5806C24.6533 80.6556 24.4991 79.7306 24.5393 78.7922C24.5729 78.075 24.6399 77.3645 24.6868 76.654C25.0018 77.1567 25.337 77.646 25.6453 78.1487C26.2955 79.2145 26.5368 80.2869 26.7647 81.4465C26.0609 81.4734 25.3504 81.527 24.6332 81.5806ZM26.892 79.1408C26.6373 78.5442 26.3156 77.9678 25.9671 77.4181C24.6667 75.3268 23.7953 73.6913 24.2712 71.3855C24.7203 72.1295 25.2632 72.8199 25.7459 73.5371C26.0341 73.9728 26.2486 74.4085 26.4228 74.8509C26.2821 74.8844 26.1614 75.0386 26.2419 75.2062C26.8853 76.5534 26.9055 77.8203 26.892 79.1408ZM26.9859 74.3817C26.7111 73.8388 26.3759 73.3226 26.0475 72.84C24.6131 70.7085 23.3395 68.9524 24.2042 66.3852C25.0085 68.0877 25.9536 69.569 26.6574 71.2448C26.6574 71.2582 26.644 71.2716 26.6507 71.2917C26.9792 72.3507 27.0261 73.3562 26.9859 74.3817ZM26.8317 66.3986C26.9323 67.1225 27.0194 67.8397 27.0864 68.5636C27.1334 69.0529 27.1132 69.5422 27.0998 70.0248C25.8464 67.1426 23.125 64.7295 24.2109 61.177C24.8812 62.9935 25.8665 64.743 26.8317 66.3986ZM29.6 51.2903C28.0114 52.5303 26.2218 53.0062 24.2377 51.9471C22.6558 51.1026 21.9922 49.5676 22.3676 48.1131C22.6826 48.6761 23.0982 49.1789 23.5875 49.5609C24.4321 50.2178 25.6453 50.2513 26.3826 49.5341C26.8451 49.9899 27.5154 50.2379 28.3868 50.1374C28.7085 50.5865 29.1308 50.9819 29.6 51.2903ZM28.5745 49.447C28.5477 49.4067 28.5209 49.3665 28.5007 49.3263C28.36 49.0649 27.9913 49.2526 28.0315 49.5006C27.8237 49.4939 27.6026 49.4738 27.3545 49.4067C27.0663 49.3263 26.8451 49.1856 26.6776 48.9979C26.6574 48.951 26.6239 48.9107 26.577 48.8839C26.2486 48.4482 26.1614 47.8249 26.195 47.2417C26.4296 47.4093 26.7044 47.5433 26.9926 47.6506C27.1602 47.9254 27.3881 48.1734 27.6495 48.341C28.3667 48.8169 29.104 48.589 29.6603 48.0595C29.6804 48.0595 29.7006 48.0595 29.7207 48.0595C29.781 48.0595 29.848 48.0461 29.9083 48.0394C29.7676 48.6828 29.3185 49.266 28.5745 49.447ZM28.0785 46.0821C28.9632 45.8743 29.533 46.2363 29.7944 46.7993C29.667 47.054 29.4727 47.3087 29.2448 47.5098C28.6616 47.5098 28.0516 47.4227 27.5087 47.235C27.3009 46.7591 27.4819 46.2229 28.0785 46.0821ZM28.8828 45.4722C28.5074 45.4252 28.1187 45.4319 27.7768 45.5258V45.5191C27.4082 44.5807 27.9846 44.2992 28.856 44.6544C29.466 44.9024 29.8681 45.3649 29.9486 45.9145C29.6737 45.6866 29.3252 45.5258 28.8828 45.4722ZM30.6792 47.2953C30.6524 47.0607 30.592 46.8328 30.4982 46.625C30.6524 46.0151 30.6054 45.385 30.2368 44.9292C30.029 44.6678 29.7408 44.46 29.4257 44.2924C30.0424 44.3193 30.6524 44.4734 31.1618 44.7885C31.45 44.9627 31.631 45.1772 31.7315 45.4051C31.7315 45.4722 31.7449 45.5258 31.7449 45.5928C31.7449 45.6464 31.7718 45.6799 31.8187 45.7068C31.8991 46.3636 31.4165 47.0406 30.6792 47.2953ZM31.6578 41.5376C31.9996 42.3486 31.9058 42.9653 31.4634 43.4211C30.3708 42.2615 28.0852 42.2146 26.5167 43.153C26.4698 43.1798 26.4363 43.2133 26.396 43.2401C25.8866 42.9251 25.3035 42.7843 24.7203 42.8044C24.7069 42.1073 24.9147 41.4035 25.2767 40.7868C25.4174 40.7734 25.5582 40.7399 25.7056 40.6863C26.3625 40.4316 26.7982 39.8283 27.0998 39.1848C27.7098 38.9435 28.4069 38.8698 29.1442 39.0642C30.3105 39.3658 31.2221 40.5053 31.6578 41.5376ZM27.8439 37.9649C27.9511 37.8912 28.0516 37.8175 28.1522 37.7437C28.4404 37.6298 28.6415 37.422 28.8493 37.2142C29.0437 37.06 29.2314 36.8992 29.4123 36.7249C29.3721 37.4957 29.6067 38.2464 30.143 38.8363C29.9419 38.7223 29.7408 38.6285 29.533 38.5548C28.7756 38.3001 28.0516 38.28 27.3881 38.4341C27.4082 38.3805 27.4216 38.3269 27.4417 38.28C27.4752 38.1794 27.4953 38.0722 27.5221 37.9716C27.6093 38.032 27.7232 38.0521 27.8439 37.9649ZM27.6361 35.4245C27.9176 35.5787 28.2326 35.6591 28.5611 35.7061C28.2058 35.934 27.9243 36.2423 27.7232 36.6109C27.7232 36.2088 27.7098 35.8066 27.6361 35.4245ZM34.5602 35.8669C34.3054 36.3495 34.3457 36.9327 34.2183 37.4555C34.1044 37.9113 33.91 38.347 33.5882 38.7022C33.0989 39.2452 32.3683 39.3323 31.6846 39.1245C30.0826 38.6352 29.6737 36.9796 30.2234 35.6457C30.4848 35.5988 30.7328 35.5318 30.9607 35.4379C31.3897 35.8736 31.9527 36.2691 32.5024 36.316C32.6364 36.3294 32.737 36.1551 32.6632 36.0479C32.375 35.6524 31.9058 35.3776 31.5036 35.0559C31.5573 34.9218 31.45 34.7676 31.2891 34.7542C31.2556 34.7542 31.2221 34.7609 31.1886 34.7609C30.6725 34.1979 30.4446 33.4405 30.6591 32.7099C30.7194 32.4954 30.3977 32.4216 30.3172 32.6227C29.9955 33.4137 30.029 34.1242 30.4848 34.8347C30.3843 34.7274 30.1765 34.7006 30.0625 34.8548C30.0357 34.8883 30.0223 34.9285 29.9955 34.9687C29.7743 35.0224 29.5598 35.076 29.3386 35.0894C28.856 35.1296 28.3466 35.0827 27.9109 34.8548C27.2272 34.5062 27.0864 33.7354 27.254 33.0718C27.4551 32.2809 28.0718 31.6441 28.8292 31.309C29.0102 31.2285 29.1911 31.1816 29.3788 31.1481C29.4593 31.1749 29.5464 31.1615 29.6134 31.1079C30.4848 31.0207 31.4098 31.3358 32.1471 31.7312C32.2141 31.7648 32.2745 31.7715 32.3281 31.7581C32.0533 32.5356 32.5225 33.3734 33.0051 33.9767C33.1123 34.1108 33.3268 34.151 33.4743 34.084C33.5279 34.4593 33.9569 34.6403 34.4395 34.7207C34.4328 35.1028 34.4864 35.4647 34.6004 35.7865C34.6004 35.82 34.5736 35.8401 34.5602 35.8669ZM34.3792 33.4472C34.4998 33.2595 34.6942 33.0517 34.9154 32.9646C34.9623 32.9445 35.0025 32.9445 35.0428 32.9579C35.1433 33.4807 35.0092 33.7823 35.3913 34.1577C35.2036 34.1577 35.0226 34.151 34.8551 34.1309C34.1714 34.037 33.9971 34.037 34.3792 33.4472ZM37.248 44.2857C35.2707 42.9318 34.9154 39.6272 34.9623 37.3818C35.0226 37.0868 35.0562 36.7919 35.0361 36.5171C35.1165 36.6176 35.217 36.6914 35.3176 36.7785C35.2707 36.8254 35.2505 36.8992 35.2841 36.9863C35.4717 37.5024 35.5991 38.032 35.713 38.5615C35.8404 39.1379 35.8672 39.768 36.1822 40.2774C36.256 40.3981 36.4705 40.3847 36.504 40.2372C36.638 39.6138 36.504 38.8832 36.2895 38.1928C37.4826 39.9222 37.4022 42.228 37.248 44.2857ZM39.0042 29.9684C39.3326 30.585 39.4331 31.309 39.2924 31.986C39.1047 32.8841 38.3272 33.1858 37.6234 33.6483C37.4558 33.7555 37.496 34.0705 37.7373 34.0504C38.0457 34.0236 38.3071 33.9365 38.5484 33.8225C38.7092 34.4325 39.0377 34.9352 38.7428 35.5921C38.5082 36.1082 37.9853 36.4568 37.4491 36.6311C35.9946 37.1003 35.0763 36.0747 34.9891 34.7945C35.2975 34.8079 35.5857 34.8012 35.7533 34.7811C36.9129 34.6805 37.6368 33.9097 37.6703 32.8104C37.6971 31.9658 37.2011 31.3492 36.5107 30.9738C36.7788 30.4041 36.7922 29.707 36.6179 29.1037C36.504 28.7216 36.3029 28.3396 36.0549 27.991C36.1018 27.9977 36.1487 27.9977 36.2091 27.9843C36.3096 27.9575 36.4034 27.9173 36.4973 27.8838C37.5966 28.1854 38.4679 28.9562 39.0042 29.9684ZM36.1018 26.4829C35.9074 26.7175 36.1219 27.0258 36.3498 27.0325C36.3297 27.0727 36.2962 27.0995 36.2761 27.1398C36.2493 27.1867 36.2426 27.2269 36.2359 27.2671C36.0013 27.2336 35.7667 27.2202 35.5254 27.2336C35.4919 27.2336 35.465 27.247 35.4449 27.2537C35.3645 27.18 35.2841 27.113 35.1969 27.0392C35.2438 26.9722 35.264 26.8851 35.2371 26.8046C35.2841 26.7845 35.3243 26.751 35.3645 26.7108C35.4181 26.7778 35.4583 26.8515 35.5187 26.9119C35.7801 27.1934 36.189 26.7845 35.9476 26.503C34.5736 24.8876 36.4303 21.811 37.8513 20.2626C37.7909 22.5416 37.6837 24.5524 36.1018 26.4829ZM38.5283 26.2483C38.4813 26.2148 38.421 26.188 38.3406 26.188C38.2199 26.188 38.0859 26.1813 37.9585 26.1745C38.5216 25.7791 39.1851 25.5177 39.8755 25.3836C39.4399 25.6919 38.9908 25.9869 38.5283 26.2483ZM37.4826 25.5177C37.5295 25.4238 37.5832 25.3367 37.6301 25.2495C37.7239 25.2294 37.8111 25.1691 37.8379 25.0485C38.24 23.614 39.0578 22.4477 40.137 21.4021C41.3971 20.1755 42.7913 19.78 44.4 19.2304C41.9802 20.9865 40.385 24.5457 37.4826 25.5177ZM83.8867 44.1986C83.8063 45.1504 83.3773 46.0084 82.7941 46.806C82.5528 47.1345 82.2713 47.3825 81.9764 47.6037C82.3785 47.168 82.7338 46.672 82.7137 46.1693C82.707 45.9145 82.4188 45.8274 82.2244 45.9749C82.1439 46.0419 82.0702 46.1089 81.9965 46.176C82.459 45.3649 83.0891 44.6343 83.8867 44.1986ZM83.4108 37.7437C83.6387 37.4689 83.5918 38.4274 83.6253 38.6955C83.7191 39.4932 83.5583 40.3109 83.3773 41.0885C83.2164 41.7856 82.9483 42.4492 82.6534 43.0993C82.7673 42.3553 82.6332 41.4839 82.5059 40.8874C82.4322 40.5254 81.8758 40.6863 81.9361 41.0348C82.0233 41.5577 82.0501 42.0805 82.0233 42.61C81.9965 43.0926 81.7887 43.5618 81.8155 44.031C81.7619 43.9305 81.7083 43.8232 81.668 43.7227C82.1842 42.8915 82.0233 42.0939 81.534 41.4504C81.8155 40.083 82.6131 38.7022 83.4108 37.7437ZM81.3195 45.9414C80.9441 46.5915 80.6894 47.2752 80.5621 47.9455C79.9387 47.235 79.2483 46.5647 78.759 45.8475C78.7188 45.7805 78.6852 45.7202 78.645 45.6598C78.6383 45.6464 78.6249 45.6397 78.6182 45.633C78.1155 44.8086 77.9144 43.9037 78.4238 42.8044C78.5311 42.8915 78.6383 42.9787 78.7523 43.0658C79.4561 43.5752 80.2202 44.0176 80.8503 44.6142C81.3061 45.0499 81.3932 45.4923 81.3195 45.9414ZM80.8838 41.6582C80.7698 42.4559 80.8369 43.2602 81.1519 43.9841C79.8046 42.7106 77.5055 42.047 77.7737 40.0093C77.9077 40.083 78.0418 40.1568 78.1825 40.2171C78.9064 40.5589 79.6706 40.8271 80.361 41.2292C80.5889 41.3633 80.7564 41.5108 80.8838 41.6582ZM80.1465 40.3646C79.4025 39.9959 78.5512 39.701 77.8541 39.2854C77.8139 39.2251 77.7401 39.1848 77.6664 39.1647C76.9894 38.7156 76.5068 38.1258 76.5068 37.174C77.2709 37.4756 78.0485 37.7303 78.7791 38.1057C79.8113 38.6486 79.9923 39.3926 80.1465 40.3646ZM74.3418 33.7421C75.4545 34.1577 76.6409 34.3655 77.767 34.7542C79.436 35.3307 79.4695 36.6512 79.8247 38.0789C79.4293 37.737 78.9601 37.4555 78.4909 37.2477C76.6208 36.4099 74.2546 36.0412 74.2479 33.7019C74.2814 33.7153 74.3083 33.7287 74.3418 33.7421ZM78.0217 25.6584C78.6048 25.216 79.255 24.8809 79.9119 24.72C80.4682 24.586 81.1385 24.7133 80.5755 25.2965C80.1264 25.759 79.57 26.1075 79.0204 26.436C78.8662 26.5231 78.7121 26.6035 78.5512 26.684C78.9199 26.3957 79.2885 26.0941 79.6371 25.7657C79.8918 25.5244 79.5499 25.0753 79.2483 25.2764C78.7724 25.5981 78.3367 25.9601 77.8675 26.2818C77.7804 26.3421 77.7468 26.4159 77.7468 26.4896C77.6329 26.5767 77.519 26.6639 77.3983 26.7443C77.6798 26.4561 77.8876 26.074 78.0217 25.6584ZM75.669 28.5474C76.2722 28.3329 76.8822 28.1117 77.4787 27.8704C79.3153 28.2659 80.7564 30.4778 81.5273 32.1602C79.4025 32.0865 77.3648 30.9336 76.0175 29.3852C76.0175 29.3718 76.0242 29.3584 76.0242 29.3383C76.0041 29.2847 75.9773 29.2378 75.9572 29.1908C76.2253 29.5059 76.5202 29.8008 76.8889 30.022C77.2642 30.2566 77.8608 30.518 78.2965 30.3236C78.4104 30.27 78.4037 30.1225 78.3367 30.0421C78.0686 29.7472 77.5458 29.7003 77.1972 29.5193C76.7883 29.3048 76.4733 28.9764 76.1851 28.6345C76.0577 28.4803 75.8298 28.5675 75.7427 28.7149C75.7092 28.6546 75.6622 28.6077 75.622 28.5541C75.6421 28.5541 75.6555 28.5541 75.669 28.5474ZM75.1461 29.0836C75.1528 29.1037 75.1528 29.1238 75.1595 29.1439C75.3539 29.5863 75.6421 29.9952 75.9907 30.3706C73.3766 29.4858 69.5425 29.4724 69.5693 27.5822C71.6204 27.743 73.6179 27.6827 75.1461 29.0836ZM66.1844 24.9613C68.946 25.0015 71.6137 24.0363 72.8202 27.1264C72.8269 27.1398 72.8336 27.1398 72.8403 27.1532C71.8148 27.0191 70.6753 27.0392 69.6095 26.9789C69.5224 26.7979 69.2342 26.7577 69.1001 26.9387C68.9929 26.9253 68.8856 26.9119 68.7784 26.8985C68.7784 26.8985 68.7784 26.8985 68.7784 26.8918C68.765 26.6236 68.3963 26.6102 68.3226 26.8314C67.1228 26.6169 66.1374 26.1343 65.7152 24.9412C65.8693 24.9479 66.0235 24.9613 66.1844 24.9613ZM62.5313 20.4034C64.3076 19.8872 65.246 20.7251 66.2648 21.945C63.5635 22.1059 61.0567 23.1314 58.4626 21.9517C58.7442 21.8646 59.0324 21.7641 59.3072 21.6568C60.3864 21.2278 61.4119 20.7251 62.5313 20.4034ZM60.1116 19.4381C60.3327 19.4516 60.5539 19.465 60.7751 19.5052C61.2309 19.5923 61.6063 19.8068 62.0085 20.0012C59.7027 20.7385 57.1355 22.2333 55.3123 21.2412C56.7869 20.4637 57.9197 19.6191 59.8837 19.6258C60.0244 19.6258 60.0981 19.5387 60.1116 19.4381ZM55.7212 18.8349C55.8887 18.788 55.9155 18.6338 55.8552 18.5199C56.5389 18.4863 57.2159 18.5534 57.913 18.7142C58.2079 18.7813 58.4962 18.8952 58.7777 19.0092C57.9197 19.0628 57.0953 19.4113 56.3311 19.8269C54.5482 20.7921 53.2076 21.8981 51.1431 21.3753C52.5976 20.4235 53.9047 19.3644 55.7212 18.8349ZM47.423 20.1755C48.3949 19.284 49.4272 19.0762 50.6873 18.8215C50.7677 18.8081 50.8079 18.7478 50.8281 18.6874C51.1029 18.6874 51.3777 18.6941 51.6592 18.7209C52.229 18.7679 52.7853 18.9958 53.3617 18.9756C50.8817 20.3296 48.7368 23.3593 45.9685 21.6702C46.4444 21.1608 46.9069 20.6514 47.423 20.1755ZM75.8969 61.1837C75.803 61.3044 75.7025 61.425 75.6086 61.5457C74.7037 61.0698 73.8257 60.6542 73.5106 59.6219C73.5575 59.6219 73.6045 59.6287 73.6514 59.6287C73.9128 60.071 74.2681 60.4598 74.7238 60.7145C74.8512 60.8084 74.9987 60.8821 75.1528 60.9424C75.3941 61.0296 75.6622 61.0765 75.9371 61.0832C75.9237 61.1167 75.9103 61.1502 75.8969 61.1837ZM76.1784 59.4008H76.1717C76.165 59.4008 76.165 59.3941 76.1583 59.3873C76.0309 59.327 75.9036 59.2734 75.7762 59.2198C75.7695 59.2131 75.7628 59.2064 75.7494 59.1997C75.3606 58.9852 75.1461 58.7975 74.6903 58.9718C74.6702 58.9785 74.6635 58.9986 74.6434 59.012C74.563 59.012 74.4825 59.0053 74.4088 59.0053C74.3619 58.9919 74.315 58.9852 74.2681 58.9718C74.1809 58.945 74.1072 58.9651 74.0469 58.9919C55.6541 58.2948 47.4096 37.918 42.2148 23.9358C42.2081 23.9157 42.1947 23.909 42.188 23.8889C43.046 23.8084 43.79 23.48 44.4871 22.9907C44.5676 23.4599 44.7888 23.8688 45.1373 24.2441C45.1976 24.3111 45.2982 24.224 45.258 24.1503C45.0368 23.6945 44.8022 23.2789 44.7485 22.7829C44.8759 22.6823 45.0032 22.5952 45.1239 22.4813C45.4657 23.8956 45.9417 25.3099 46.6455 26.5834C46.746 26.7644 47.0208 26.637 46.9739 26.4494C46.6119 24.9814 45.9953 23.5604 45.4993 22.126C45.5261 22.0992 45.5529 22.0724 45.573 22.0456C45.5797 22.0523 45.5797 22.059 45.5864 22.0657C46.8398 23.0175 48.0933 22.9505 49.4942 22.2869C49.8494 22.1193 50.1779 21.9316 50.5063 21.7372C50.8348 21.878 51.1498 21.9852 51.4648 22.0523C51.4045 22.0925 51.3576 22.1595 51.3509 22.2601C50.9755 28.7082 55.567 36.001 59.3005 41.0617C59.4547 41.2694 59.8099 41.0818 59.6625 40.8606C55.8753 35.3106 52.3764 28.9764 51.9072 22.2601C51.9005 22.1997 51.8804 22.1528 51.8536 22.1193C52.6646 22.2198 53.4623 22.0791 54.3203 21.7171C54.4208 21.6769 54.5146 21.63 54.6152 21.5831C54.6286 22.8834 54.8632 24.4586 55.7547 25.4506C55.8619 25.5713 56.0362 25.4372 56.0094 25.3099C55.7748 24.1235 55.319 23.0443 55.1514 21.8512C55.386 21.9785 55.6273 22.0657 55.8686 22.126C55.8284 22.1796 55.8016 22.2467 55.8217 22.3271C55.9893 23.1583 56.1367 24.0363 56.4786 24.8206C56.559 25.0015 56.8942 25.0082 56.8741 24.7669C56.8003 23.909 56.5724 23.0242 56.3177 22.1997C56.8003 22.2534 57.2963 22.2198 57.7991 22.1126C57.8058 22.1863 57.846 22.2601 57.9398 22.307C59.2804 23.0711 60.6813 23.2655 62.1827 23.1515C62.8262 24.2374 63.8987 24.6999 65.1052 24.8675C65.3666 26.4963 66.7273 27.1599 68.3427 27.4213C68.3963 28.8356 68.6845 30.2298 69.194 31.557C69.2744 31.7715 69.5693 31.6843 69.5425 31.4631C69.3481 30.1292 69.0063 28.8289 68.8655 27.495C68.899 27.5017 68.9393 27.5017 68.9728 27.5084C68.9057 28.0782 69.1001 28.5206 69.442 28.8624C69.3951 28.8959 69.3615 28.9361 69.3682 29.0032C69.5425 30.451 69.7637 31.9994 70.4541 33.3131C70.5144 33.4271 70.7289 33.3801 70.7155 33.2461C70.5882 31.8653 70.0989 30.5247 69.8106 29.164C70.3804 29.5461 71.1512 29.7807 71.8885 29.9483C72.0293 29.9818 72.1767 30.0086 72.3175 30.0421C71.1512 31.6374 72.2572 32.7635 73.7251 33.4539C73.524 35.143 74.4222 36.182 75.9035 36.8858C75.9035 36.8925 75.8969 36.8992 75.8969 36.9059C75.7293 38.1593 76.3258 39.024 77.2575 39.6608C76.9894 40.7131 77.2843 41.5912 77.968 42.3352L77.9613 42.3419C77.2843 43.5685 77.0095 44.8153 77.9949 45.995C78.1356 46.1626 78.2831 46.3234 78.4238 46.4843C79.1343 48.8571 76.661 50.7674 77.2508 53.3212C77.3447 53.7234 77.6463 54.1055 77.9949 54.4339C78.7523 55.56 78.7188 56.4046 78.5981 57.4167C78.578 57.4502 78.5579 57.4904 78.5512 57.5307C78.4842 57.9999 78.2898 58.4825 78.0619 58.9651C75.7025 52.423 76.0443 46.0419 75.3941 39.2184C75.374 38.9972 75.0255 38.9838 75.0255 39.2184C75.0121 45.6665 74.6769 52.5906 77.2776 58.6634C76.9894 58.516 76.7079 58.3484 76.4264 58.1875C72.465 54.3736 70.7222 49.2392 68.7985 44.2388C66.3989 38.0051 64.8304 31.5235 63.1211 25.0954C63.0541 24.8541 62.6788 24.9546 62.7391 25.1959C64.4416 32.3345 66.2983 39.3323 68.899 46.2229C70.2262 49.7285 71.6137 53.6564 74.067 56.6861C66.3787 51.1093 62.4911 41.5175 58.2012 33.5678C58.1409 33.4539 57.9398 33.5343 57.9867 33.655C60.3327 39.3658 63.0608 44.7415 66.7407 49.7821C69.0666 52.966 72.103 57.2893 76.118 58.7707C76.3191 58.9383 76.5336 59.0857 76.7481 59.2399C76.5336 59.2868 76.3526 59.3538 76.1784 59.4008ZM77.2374 60.2386C77.1972 60.1917 77.1503 60.1515 77.0833 60.1314C76.909 60.0777 76.728 60.0241 76.547 59.9772C76.7816 59.8968 77.0028 59.7962 77.1704 59.6488C77.2039 59.6219 77.2106 59.5884 77.224 59.5549C77.4251 59.5281 77.5793 59.2533 77.3916 59.0991C77.3715 59.0857 77.3514 59.0656 77.338 59.0522C77.3581 59.0321 77.3782 59.0053 77.3916 58.9785C77.4921 59.2064 77.5994 59.4343 77.7066 59.6622C77.5927 59.8834 77.4854 60.1046 77.3849 60.3258C77.3514 60.2721 77.2978 60.2453 77.2374 60.2386ZM80.1331 68.9121C80.0996 69.1266 80.0593 69.3478 80.0258 69.5757C79.9923 69.5489 79.9789 69.5154 79.9454 69.4953C79.6974 69.3143 79.4494 69.1803 79.1746 69.0395C79.0338 68.9658 78.9131 68.8786 78.8126 68.7848C78.8327 68.7513 78.8528 68.7111 78.8662 68.6843C79.0003 68.4228 78.7255 68.1949 78.4976 68.262C78.2898 67.6185 78.4976 66.8074 78.6182 66.1908C78.7054 65.7417 78.7121 65.3529 78.6517 64.9776C79.2282 65.5473 79.7644 66.0835 80.0124 66.7873C79.9521 66.8879 79.8851 66.9817 79.8247 67.0756C79.6907 67.2833 79.9588 67.4442 80.1398 67.337C80.18 67.719 80.1465 68.1547 80.0057 68.6708C79.9789 68.7714 80.0459 68.8652 80.1331 68.9121ZM79.7845 61.7267C81.6814 62.779 81.3262 64.4279 80.5151 65.9428C80.3208 65.6411 80.0795 65.3462 79.8046 65.0647C78.6316 63.8716 77.3246 63.1276 77.767 61.1971C77.901 60.6207 78.149 60.1113 78.397 59.6085C78.4037 60.0442 78.4708 60.4933 78.6987 60.8084C79.0137 61.2239 79.3153 61.4652 79.7845 61.7267ZM81.3731 53.5022C81.3396 54.1055 81.2525 54.6953 81.1251 55.2919C81.0715 55.5332 81.0044 55.7745 80.9374 56.0158C80.8168 56.0694 80.7631 56.2437 80.8637 56.3442C80.857 56.3845 80.8436 56.418 80.8369 56.4582C80.3945 55.674 79.6706 54.9836 78.5512 54.0586C76.4063 52.2957 78.6517 50.01 79.2684 48.3142C79.3622 48.0595 79.3891 47.8115 79.3823 47.5635C79.7108 47.912 80.0325 48.2673 80.3208 48.656C80.3476 48.6962 80.3744 48.7365 80.4012 48.7767C80.3275 48.9241 80.4414 49.1118 80.6157 49.1118C80.6157 49.1118 80.6224 49.1118 80.6291 49.1118C81.5072 50.506 81.6747 51.8466 81.5474 53.2944C81.4535 53.3212 81.3798 53.3816 81.3731 53.5022ZM85.12 63.1946C83.5851 62.0149 82.7204 60.1716 82.1775 58.3149C82.278 58.4288 82.3718 58.5428 82.4724 58.6634C82.9751 59.26 83.3371 60.0442 83.9135 60.5604C84.0208 60.6542 84.2084 60.5939 84.2084 60.4464C84.1883 59.7627 83.6655 59.1326 83.2432 58.6098C82.9014 58.1942 82.5327 57.7921 82.164 57.3966C84.0409 58.9248 86.1322 60.9156 85.12 63.1946ZM82.1104 55.131C82.4791 55.0774 82.841 54.997 83.2097 54.9165C83.0153 55.0774 82.8343 55.2517 82.64 55.4058C82.3517 55.6404 81.8892 55.8817 81.6211 56.1901C81.6077 56.1767 81.601 56.1566 81.5809 56.1432C81.7083 55.8013 81.7887 55.4192 81.8289 55.0372C81.8892 55.1109 81.9898 55.1511 82.1104 55.131ZM81.8289 48.6761C81.8423 48.6694 81.849 48.6627 81.8624 48.656C82.6265 49.0716 83.3773 49.4604 84.0342 50.077C84.8318 50.8278 85.3144 51.7997 85.5892 52.8252C83.6923 52.222 82.2914 50.5328 81.8289 48.6761Z" fill="#FBECEC"/>
<path fill-rule="evenodd" clip-rule="evenodd" d="M70.9099 44.3998C69.938 39.9893 68.2824 35.7396 67.5048 31.2889C67.4713 31.1012 67.1295 31.1482 67.1563 31.3358C67.7729 35.8536 69.3816 40.1032 70.6016 44.4869C70.6485 44.6746 70.9501 44.5941 70.9099 44.3998Z" fill="#FBECEC"/>
<path fill-rule="evenodd" clip-rule="evenodd" d="M63.6105 47.6572C59.7094 42.4625 55.5201 37.7168 52.3496 32.0328C52.2692 31.8853 52.048 32.0127 52.115 32.1601C54.8431 37.8509 58.6436 43.4612 63.4161 47.7913C63.5166 47.8851 63.6909 47.7645 63.6105 47.6572Z" fill="#FBECEC"/>
<path fill-rule="evenodd" clip-rule="evenodd" d="M55.8351 41.4504C55.6944 41.2359 55.3391 41.4303 55.4732 41.6515C57.9264 45.5057 61.4924 49.1118 65.6414 51.3171C65.7889 51.3908 65.9565 51.2031 65.8224 51.0892C62.1492 48.0729 58.4694 45.4319 55.8351 41.4504Z" fill="#FBECEC"/>
<path fill-rule="evenodd" clip-rule="evenodd" d="M73.705 47.7172C73.5509 46.122 72.8068 44.6272 72.532 43.0453C72.4985 42.8509 72.15 42.8979 72.1768 43.0922C72.3778 44.6808 72.7733 46.3163 73.4503 47.7843C73.5039 47.8982 73.7184 47.8446 73.705 47.7172Z" fill="#FBECEC"/>
<path fill-rule="evenodd" clip-rule="evenodd" d="M74.5161 76.2853C74.992 73.6645 75.4746 71.0034 75.602 68.3424C75.6154 68.0609 75.1931 68.0743 75.1596 68.3424C74.8378 70.9632 74.2011 73.5974 74.2279 76.2451C74.2346 76.3992 74.4893 76.4395 74.5161 76.2853Z" fill="#FBECEC"/>
<path fill-rule="evenodd" clip-rule="evenodd" d="M70.8429 70.3999C70.1056 71.4053 69.6632 72.4979 69.6431 73.7379C69.6431 73.8586 69.8106 73.8653 69.8509 73.7647C70.2463 72.6856 70.5614 71.5595 71.0708 70.5273C71.1378 70.3798 70.9367 70.2658 70.8429 70.3999Z" fill="#FBECEC"/>
<path fill-rule="evenodd" clip-rule="evenodd" d="M70.615 72.3573C70.3871 73.155 70.1592 74.0666 70.2463 74.8977C70.253 74.9848 70.3804 75.0385 70.434 74.9446C70.8496 74.1738 70.7155 73.2555 70.8831 72.4244C70.9233 72.2568 70.6686 72.1897 70.615 72.3573Z" fill="#FBECEC"/>
<path fill-rule="evenodd" clip-rule="evenodd" d="M46.2701 22.8831C46.746 24.8805 47.4699 26.8914 48.4687 28.7146C48.5558 28.8687 48.8172 28.7615 48.7636 28.5939C48.1804 26.63 47.2889 24.7263 46.5181 22.8227C46.4578 22.6686 46.2299 22.7222 46.2701 22.8831Z" fill="#FBECEC"/>
<path fill-rule="evenodd" clip-rule="evenodd" d="M73.0817 37.3077C73.0884 36.7849 72.78 36.2956 72.7666 35.7661C72.7599 35.5181 72.3578 35.5181 72.3645 35.7661C72.3779 36.3157 72.5253 36.9458 72.8873 37.3882C72.9476 37.4686 73.0817 37.3949 73.0817 37.3077Z" fill="#FBECEC"/>
<path fill-rule="evenodd" clip-rule="evenodd" d="M28.4136 40.9005C27.8036 40.867 27.3143 41.1686 26.892 41.5708C26.6574 41.792 27.0127 42.1271 27.254 41.9126C27.6025 41.611 27.9846 41.3697 28.4739 41.4501C28.8359 41.5105 29.104 41.7786 29.4391 41.8992C29.6 41.9528 29.6871 41.7719 29.6335 41.6579C29.4391 41.2356 28.8962 40.9273 28.4136 40.9005Z" fill="#FBECEC"/>
</svg>
