<svg width="95" height="95" viewBox="0 0 95 95" fill="none" xmlns="http://www.w3.org/2000/svg">
<path fill-rule="evenodd" clip-rule="evenodd" d="M85.14 50.2651C84.53 50.2651 84.53 51.2102 85.14 51.2102C85.7499 51.2102 85.7499 50.2651 85.14 50.2651Z" fill="#FBECEC"/>
<path fill-rule="evenodd" clip-rule="evenodd" d="M78.4639 59.2002C78.0081 59.2002 78.0081 59.9107 78.4639 59.9107C78.9264 59.9107 78.9264 59.2002 78.4639 59.2002Z" fill="#FBECEC"/>
<path fill-rule="evenodd" clip-rule="evenodd" d="M30.183 60.8155C27.9576 59.9106 26.7913 58.7778 25.7658 56.5726C24.9212 54.7628 24.4721 52.7989 23.7013 50.9556C23.5873 50.6808 23.145 50.855 23.2187 51.1365C24.0096 54.2668 25.5647 61.9081 30.1629 61.3316C30.4511 61.2981 30.4042 60.9027 30.183 60.8155Z" fill="#FBECEC"/>
<path fill-rule="evenodd" clip-rule="evenodd" d="M29.6468 77.1172C29.6937 77.1172 29.7004 77.0435 29.6468 77.0435C29.5998 77.0435 29.5931 77.1172 29.6468 77.1172Z" fill="#FBECEC"/>
<path fill-rule="evenodd" clip-rule="evenodd" d="M34.7544 76.0914C33.3803 75.8166 32.0263 76.5673 30.6991 76.8019C30.545 76.8287 30.5651 77.0901 30.7259 77.0834C32.0665 76.9963 33.5278 76.8287 34.7745 76.2992C34.8616 76.2657 34.8549 76.1115 34.7544 76.0914Z" fill="#FBECEC"/>
<path fill-rule="evenodd" clip-rule="evenodd" d="M22.9305 41.2771C22.9037 41.3374 22.9305 41.3843 22.9775 41.4178C22.9037 41.4379 22.8367 41.4849 22.8367 41.572C22.8166 41.9004 22.7831 42.6109 23.2791 42.6244C23.6344 42.6311 23.8488 42.2021 23.9762 41.934C24.1036 41.6524 24.2376 41.21 24.0164 40.9419C23.7014 40.5532 23.0914 40.9486 22.9305 41.2771ZM23.574 41.7262C23.5204 41.8669 23.4199 42.0479 23.2992 42.1417C23.2992 42.135 23.2992 42.135 23.2992 42.135C23.2322 41.9541 23.2054 41.7329 23.1853 41.5385C23.1786 41.4849 23.1517 41.4513 23.1182 41.4312C23.2791 41.3977 23.4199 41.3374 23.574 41.2704C23.6209 41.2503 23.6545 41.2503 23.6679 41.2503C23.7014 41.3575 23.6276 41.5921 23.574 41.7262Z" fill="#FBECEC"/>
<path fill-rule="evenodd" clip-rule="evenodd" d="M26.1613 33.0521C26.4898 33.0119 26.664 32.6097 26.7512 32.3416C26.8316 32.0936 26.9187 31.6311 26.6238 31.4836C26.3289 31.3295 25.9267 31.6244 25.7457 31.9327C25.6385 31.8791 25.4843 31.9595 25.5111 32.1137C25.5648 32.4623 25.672 33.1057 26.1613 33.0521ZM26.2552 32.0266C26.2887 31.9998 26.3356 31.9595 26.3825 31.9327C26.3825 32.0266 26.3624 32.1137 26.3356 32.2008C26.2954 32.3349 26.2149 32.536 26.1077 32.6097C26.0876 32.5963 26.0675 32.5829 26.0541 32.5628C25.9937 32.4757 25.9468 32.3751 25.9133 32.2746C26.034 32.221 26.1479 32.1204 26.2552 32.0266Z" fill="#FBECEC"/>
<path fill-rule="evenodd" clip-rule="evenodd" d="M22.2468 31.9666C22.6088 32.0001 22.9037 31.6449 23.0646 31.3634C23.2254 31.0751 23.3528 30.6797 23.1316 30.3847C22.8367 30.0027 22.0859 30.3512 21.8983 30.6663C21.8916 30.6797 21.8916 30.6931 21.8849 30.6998C21.8044 30.6998 21.7173 30.7467 21.7173 30.8405C21.724 31.2226 21.7307 31.9197 22.2468 31.9666ZM22.8233 30.6864C22.8032 30.673 22.8233 30.74 22.8166 30.8137C22.8032 30.921 22.7562 31.0282 22.7026 31.1221C22.6155 31.2829 22.468 31.5041 22.287 31.5376C22.1731 31.5577 22.0658 31.0081 22.039 30.8405C22.2535 30.8204 22.6691 30.5858 22.8233 30.6864Z" fill="#FBECEC"/>
<path fill-rule="evenodd" clip-rule="evenodd" d="M25.0352 28.2868C25.176 27.7572 24.3783 27.4757 24.0834 27.8846C24.0432 27.9382 24.0834 27.9985 24.1303 28.0254C24.2242 28.0723 24.6464 28.0589 24.6464 28.1862C24.6531 28.4342 24.0432 28.0589 23.9963 28.0254C23.8488 27.9181 23.6477 28.1527 23.7885 28.2734C24.0968 28.5482 24.8609 28.9369 25.0352 28.2868Z" fill="#FBECEC"/>
<path fill-rule="evenodd" clip-rule="evenodd" d="M30.679 49.3606C31.3225 48.1608 31.4833 46.7398 31.6107 45.3992C31.6241 45.2785 31.4163 45.2383 31.3962 45.359C31.1549 46.6794 30.6991 47.9798 30.5583 49.3137C30.5583 49.3874 30.6522 49.4142 30.679 49.3606Z" fill="#FBECEC"/>
<path fill-rule="evenodd" clip-rule="evenodd" d="M32.033 46.3375C31.7247 47.5306 31.4365 48.7305 31.1013 49.9169C31.0678 50.0308 31.2287 50.1113 31.289 50.004C31.9258 48.9181 32.0733 47.6446 32.3347 46.4314C32.3816 46.237 32.0867 46.1364 32.033 46.3375Z" fill="#FBECEC"/>
<path fill-rule="evenodd" clip-rule="evenodd" d="M32.7302 48.4489C32.757 48.288 32.4822 48.2411 32.4487 48.402C32.2811 49.2867 32.0532 50.1715 31.9326 51.063C31.9259 51.13 32.0264 51.1569 32.0532 51.1032C32.4822 50.2788 32.576 49.3404 32.7302 48.4489Z" fill="#FBECEC"/>
<path fill-rule="evenodd" clip-rule="evenodd" d="M33.1792 47.745C33.1792 47.6378 33.0184 47.631 33.005 47.7383C32.8039 50.0977 32.5224 52.3499 31.899 54.6356C31.8722 54.716 31.9928 54.783 32.0397 54.7026C33.1926 52.6113 33.1926 50.0642 33.1792 47.745Z" fill="#FBECEC"/>
<path fill-rule="evenodd" clip-rule="evenodd" d="M33.6953 56.3519C34.4058 54.9041 34.8147 53.2685 34.7745 51.6532C34.7678 51.4588 34.4728 51.4454 34.4661 51.6397C34.4594 53.2618 33.8294 54.6963 33.4808 56.2513C33.454 56.372 33.6283 56.4792 33.6953 56.3519Z" fill="#FBECEC"/>
<path fill-rule="evenodd" clip-rule="evenodd" d="M32.8172 59.1068C33.7556 58.5706 34.1042 57.2032 34.3589 56.238C34.4125 56.0369 34.1042 55.9364 34.0506 56.1374C33.8964 56.6871 33.7154 57.2166 33.4674 57.726C33.2529 58.1684 32.9312 58.5371 32.6832 58.9527C32.6229 59.0465 32.7167 59.1604 32.8172 59.1068Z" fill="#FBECEC"/>
<path fill-rule="evenodd" clip-rule="evenodd" d="M32.7838 60.0785C33.4876 59.73 33.8965 58.9792 34.1713 58.2754C34.2584 58.0609 33.9099 57.9537 33.8294 58.1682C33.5613 58.8586 33.1323 59.3412 32.6497 59.8841C32.5559 59.9847 32.6564 60.1455 32.7838 60.0785Z" fill="#FBECEC"/>
<path fill-rule="evenodd" clip-rule="evenodd" d="M71.9889 62.1898C74.2344 60.7352 75.1527 58.0474 75.8364 55.5941C77.3714 50.0776 78.0685 43.2742 77.4451 37.4896C77.4786 37.4695 77.5188 37.4561 77.559 37.436C77.7735 37.322 77.8406 37.1009 77.7132 36.8931C76.9022 35.586 75.2465 35.1235 73.6982 34.9157C73.544 33.9572 72.0962 33.1864 71.3656 34.0041C71.2516 34.1315 71.4058 34.299 71.5465 34.2454C71.9286 34.1047 72.2369 34.0443 72.619 34.2186C72.8938 34.3393 73.1083 34.5806 73.2089 34.8621C72.8871 34.8286 72.5788 34.8018 72.2839 34.7817C72.1565 34.7682 72.0157 34.7615 71.8817 34.7548C71.9219 34.5739 71.6672 34.4599 71.5868 34.6476C71.5734 34.6744 71.5667 34.7079 71.5533 34.7347C69.8775 34.661 67.9404 34.7682 66.5127 35.6128C66.4255 35.6061 66.3518 35.6396 66.2982 35.6999C66.1574 35.5726 65.8893 35.5726 65.8089 35.7938C63.7243 41.632 63.0607 49.0052 63.5768 55.1383C63.7712 57.4441 64.3946 60.0247 66.3183 61.4927C67.6991 62.545 68.423 61.5195 67.8063 63.7984C67.0154 66.7008 66.6132 69.7439 66.5663 72.7468C66.4792 72.653 66.3183 72.6328 66.2513 72.787C66.2379 72.8205 66.2379 72.854 66.2245 72.8809C64.1801 72.6261 62.1625 72.7937 60.2455 73.5981C59.9908 73.7053 59.917 74.074 60.1516 74.2482C63.5232 76.6881 70.1322 77.2914 73.9864 75.8301C74.2679 75.7229 74.2746 75.3743 74.0802 75.1934C72.7263 73.9466 70.9165 73.1088 69.0866 72.8205C69.348 70.1327 69.8909 67.485 70.2261 64.8039C70.5009 62.5785 70.4942 63.155 71.9889 62.1898ZM73.1753 35.4385C72.9944 35.7603 72.5721 36.015 72.2504 35.9077C72.0225 35.8273 71.9018 35.6061 71.8549 35.3581C72.2973 35.3648 72.7397 35.3916 73.1753 35.4385ZM71.4661 35.3648C71.4929 35.7134 71.6538 36.0418 71.9688 36.2429C72.5788 36.6249 73.3362 36.0887 73.6043 35.5324C73.611 35.519 73.611 35.5123 73.6177 35.4989C74.9315 35.7067 76.0978 36.1557 76.815 36.9333C76.815 36.9534 76.815 36.9802 76.8083 37.0003C73.8993 38.2806 70.0049 37.5902 67.2701 36.0351C68.4029 35.653 69.9312 35.3916 71.4661 35.3648ZM69.596 62.3238C69.4888 65.8495 68.8319 69.2814 68.3761 72.7669C68.1616 72.8675 68.1013 73.2093 68.3694 73.3098C70.0317 73.9265 71.6672 74.3153 73.0882 75.3609C69.7167 76.42 64.2873 75.8569 61.2241 74.0472C62.8663 73.5109 64.5018 73.4841 66.2513 73.6115C66.3116 73.7053 66.3853 73.7924 66.4993 73.8662C66.8813 74.0941 67.5717 74.1343 67.927 73.8327C68.0342 73.7388 67.994 73.5645 67.8533 73.5377C67.5315 73.4908 66.8612 73.6383 66.64 73.3903C66.6803 73.283 66.687 73.1624 66.6333 73.0685C66.7808 73.2495 67.1226 73.2428 67.1361 72.9479C67.2634 69.1876 67.9404 65.5747 68.9927 61.9619C69.0464 61.7675 68.9659 61.5396 68.738 61.5195C63.3757 61.0302 64.0393 52.5778 64.2739 48.851C64.3879 47.115 64.6292 45.4057 64.9241 43.7099C67.136 44.2863 69.5491 44.4204 71.8214 44.5209C72.9877 44.5679 75.7828 44.9633 76.4464 43.6496C77.1837 42.1816 73.9462 41.7795 72.9072 41.699C72.9407 41.6387 72.9676 41.5717 72.9944 41.5046C73.2156 40.8813 72.9072 40.1775 72.2839 39.9295C72.0426 39.8356 71.7879 39.8624 71.5734 39.9697C71.5868 39.7887 71.3254 39.7016 71.2248 39.8825C70.9366 40.4188 71.017 41.1226 71.3187 41.6521C69.2542 41.6655 66.9417 41.9269 65.1051 42.7179C65.5005 40.5931 65.9496 38.4816 66.3116 36.3367C66.3786 36.3568 66.4457 36.3568 66.5261 36.3233C66.5395 36.3166 66.5596 36.3099 66.573 36.3032C69.167 38.3007 73.6244 38.9643 76.748 37.7845C76.4665 41.6521 76.6541 45.5532 76.2386 49.4275C76.2185 49.6084 76.1984 49.7961 76.1782 49.9905C75.2868 51.9679 74.0601 53.6302 72.6391 55.2523C72.5788 55.3193 72.6726 55.4064 72.7397 55.3595C74.3014 54.2669 75.3002 52.5711 76.0777 50.8552C75.5884 54.9976 74.4154 61.6669 69.9177 61.9887C69.7636 62.0088 69.6027 62.1629 69.596 62.3238ZM73.8322 42.5034C74.4422 42.5704 76.5603 43.3681 74.9583 43.6764C72.2839 44.1925 68.7514 43.797 65.9228 43.1402C67.3572 42.7715 68.8855 42.6039 70.3333 42.4766C71.4996 42.3827 72.6659 42.376 73.8322 42.5034ZM71.4661 40.8008C71.5935 40.5193 71.7141 40.2244 72.1029 40.345C72.5118 40.4791 72.6927 40.9349 72.5788 41.3304C72.552 41.4376 72.4984 41.565 72.4179 41.6722C72.2235 41.6655 72.0292 41.6588 71.8281 41.6588C71.7879 41.6119 71.7543 41.565 71.7275 41.5248C71.5935 41.317 71.4996 41.0623 71.4661 40.8008Z" fill="#FBECEC"/>
<path fill-rule="evenodd" clip-rule="evenodd" d="M65.7955 54.4011C65.648 52.4841 65.9094 50.5603 65.8357 48.6433C65.8223 48.3551 65.3732 48.3685 65.3397 48.6433C64.9978 51.7333 63.8047 59.1534 68.1482 60.1857C68.423 60.2527 68.5102 59.884 68.3426 59.7232C66.64 58.1547 65.9765 56.7337 65.7955 54.4011Z" fill="#FBECEC"/>
<path fill-rule="evenodd" clip-rule="evenodd" d="M62.3368 74.2416C62.377 74.2618 62.4105 74.1947 62.3636 74.1746C62.3167 74.1545 62.2899 74.2215 62.3368 74.2416Z" fill="#FBECEC"/>
<path fill-rule="evenodd" clip-rule="evenodd" d="M63.3891 74.3151C63.2416 74.2882 63.1679 74.5296 63.3154 74.5765C64.5554 74.9518 65.9295 75.2937 67.2366 75.2468C67.3304 75.2401 67.3706 75.0993 67.2902 75.0524C66.144 74.3352 64.6693 74.5564 63.3891 74.3151Z" fill="#FBECEC"/>
<path fill-rule="evenodd" clip-rule="evenodd" d="M68.4163 39.6482C68.3694 39.6951 68.3761 39.7488 68.4096 39.789C68.3358 39.7823 68.2621 39.8024 68.2286 39.8761C68.0945 40.1643 67.8264 40.7944 68.2755 40.9754C68.5906 41.1027 68.9324 40.7877 69.1402 40.5933C69.3547 40.3855 69.6228 40.0303 69.5156 39.7085C69.3614 39.2594 68.671 39.4069 68.4163 39.6482ZM68.8453 40.2716C68.7447 40.3788 68.5973 40.5129 68.4565 40.5531C68.4565 40.5464 68.4565 40.5464 68.4565 40.5464C68.4565 40.3587 68.5101 40.1509 68.557 39.9699C68.5704 39.9163 68.557 39.8761 68.5302 39.8493C68.6844 39.8761 68.8386 39.8694 68.9994 39.8627C69.0464 39.8627 69.0732 39.8694 69.0866 39.8761C69.0866 39.9834 68.9391 40.171 68.8453 40.2716Z" fill="#FBECEC"/>
<path fill-rule="evenodd" clip-rule="evenodd" d="M73.8457 32.2615C73.772 32.5967 73.658 33.2133 74.1138 33.3273C74.4222 33.401 74.7171 33.0994 74.8914 32.8849C75.0455 32.6905 75.2801 32.3017 75.0657 32.0671C74.8512 31.8325 74.3887 31.9599 74.1205 32.1744C74.0401 32.0939 73.8792 32.1074 73.8457 32.2615ZM74.5428 32.4291C74.583 32.4157 74.6434 32.3956 74.6903 32.3889C74.6568 32.4693 74.6099 32.543 74.5562 32.6168C74.4758 32.7307 74.335 32.8849 74.2077 32.9117C74.1943 32.8916 74.1809 32.8715 74.1742 32.8514C74.1474 32.7508 74.1407 32.6503 74.1474 32.5497C74.2881 32.5296 74.4222 32.4827 74.5428 32.4291Z" fill="#FBECEC"/>
<path fill-rule="evenodd" clip-rule="evenodd" d="M70.9567 31.0213C71.2717 31.1754 71.6605 30.9542 71.9018 30.7532C72.1498 30.5521 72.3978 30.2303 72.2906 29.8952C72.1498 29.4528 71.3589 29.5131 71.084 29.7343C71.0706 29.741 71.0706 29.7544 71.0639 29.7611C70.9902 29.7343 70.8964 29.741 70.8696 29.8282C70.7355 30.17 70.5076 30.8001 70.9567 31.0213ZM71.1444 29.9354C71.3522 29.989 71.8013 29.9153 71.9085 30.0628C71.8951 30.0426 71.8884 30.1097 71.8549 30.1767C71.808 30.2705 71.7275 30.351 71.6471 30.418C71.513 30.532 71.3119 30.6861 71.131 30.6526C71.017 30.6325 71.1042 30.0963 71.1444 29.9354Z" fill="#FBECEC"/>
<path fill-rule="evenodd" clip-rule="evenodd" d="M74.7102 28.6482C75.0186 28.2192 74.3885 27.6964 73.9863 27.9578C73.9327 27.9913 73.9461 28.0584 73.9863 28.0986C74.0601 28.1723 74.4421 28.2997 74.3952 28.4203C74.3148 28.6482 73.8925 28.0986 73.8657 28.0584C73.7651 27.9042 73.5037 28.0584 73.5909 28.2125C73.7785 28.5678 74.3349 29.171 74.7102 28.6482Z" fill="#FBECEC"/>
<path fill-rule="evenodd" clip-rule="evenodd" d="M72.6727 49.5617C73.658 48.6971 74.2814 47.4704 74.8511 46.3108C74.9047 46.2036 74.7305 46.103 74.6701 46.2036C74.0065 47.3163 73.1553 48.3351 72.5721 49.488C72.552 49.5416 72.6257 49.602 72.6727 49.5617Z" fill="#FBECEC"/>
<path fill-rule="evenodd" clip-rule="evenodd" d="M73.001 50.3523C73.9462 49.5882 74.5092 48.4956 75.1527 47.4835C75.2599 47.3226 75.0253 47.1282 74.9114 47.2958C74.2277 48.2677 73.5641 49.2463 72.8603 50.2116C72.8 50.2987 72.9139 50.4261 73.001 50.3523Z" fill="#FBECEC"/>
<path fill-rule="evenodd" clip-rule="evenodd" d="M74.5897 49.2936C74.1339 50.031 73.6379 50.7549 73.229 51.519C73.2022 51.5726 73.2826 51.633 73.3228 51.5927C73.9797 51.0029 74.3819 50.1851 74.8243 49.4344C74.9047 49.2936 74.6701 49.1596 74.5897 49.2936Z" fill="#FBECEC"/>
<path fill-rule="evenodd" clip-rule="evenodd" d="M72.0895 54.8435C73.839 53.3488 74.697 51.0497 75.4678 48.9517C75.5013 48.8511 75.3605 48.7908 75.3136 48.8847C74.335 50.9424 73.3162 52.8796 71.9823 54.7296C71.9354 54.8033 72.0225 54.8971 72.0895 54.8435Z" fill="#FBECEC"/>
<path fill-rule="evenodd" clip-rule="evenodd" d="M73.0212 56.8878C74.154 55.822 75.0723 54.4814 75.5817 53.0135C75.642 52.8325 75.3806 52.7186 75.3069 52.8995C74.7505 54.3608 73.6982 55.4399 72.8536 56.7269C72.7933 56.8207 72.9206 56.9816 73.0212 56.8878Z" fill="#FBECEC"/>
<path fill-rule="evenodd" clip-rule="evenodd" d="M71.2918 59.0731C72.3174 58.9122 73.0949 57.7928 73.6512 57.0086C73.7652 56.8477 73.5239 56.6533 73.4032 56.8142C73.0815 57.2566 72.7396 57.6789 72.3375 58.0542C71.9956 58.3827 71.58 58.6039 71.2114 58.8921C71.1443 58.9524 71.1913 59.0932 71.2918 59.0731Z" fill="#FBECEC"/>
<path fill-rule="evenodd" clip-rule="evenodd" d="M72.5252 58.5702C72.0493 59.0997 71.5064 59.3946 70.883 59.7164C70.7691 59.7767 70.8026 59.9577 70.9433 59.9376C71.6941 59.8638 72.3174 59.3209 72.8 58.778C72.9475 58.6171 72.6727 58.4026 72.5252 58.5702Z" fill="#FBECEC"/>
<path fill-rule="evenodd" clip-rule="evenodd" d="M56.3913 51.4584C54.9502 46.6725 52.9461 42.0677 51.2033 37.3958C49.3131 32.3083 49.2528 26.9728 49.2729 21.6239C49.6348 21.4496 49.9499 21.2284 50.1778 20.9603C50.9888 20.0085 50.0638 17.7027 48.8975 18.0244C48.797 17.2536 48.7836 16.4693 48.7702 15.6851C48.8037 15.5644 48.8238 15.4371 48.8171 15.2896C48.7433 13.7815 44.7417 14.7266 43.9441 14.9344C43.7028 14.9947 43.7229 15.3835 43.9843 15.3768C45.2847 15.3567 46.6185 14.8942 47.9189 15.1623C48.4082 15.2628 48.1937 15.6047 47.8452 15.7789C47.3894 16.0135 46.7526 15.9398 46.2566 15.913C45.3986 15.8527 44.4066 15.6851 43.6357 15.2762C43.3877 15.1422 43.1531 15.417 43.2604 15.6181C43.2135 16.1811 43.1733 16.7509 43.1464 17.3139C43.1129 18.0311 43.066 17.9239 42.5834 18.2724C41.9399 18.7416 41.6316 19.3248 41.531 20.109C41.3635 21.4496 42.6035 22.1534 43.8234 22.4081C45.4321 27.328 43.8435 32.2546 42.6973 37.1209C41.5646 41.947 39.6676 46.5519 38.8767 51.4584C38.0321 56.7135 38.012 62.1294 38.0656 67.4381C38.0858 69.1205 38.0858 71.118 38.26 73.0886C37.3887 73.0417 36.5106 73.102 35.6727 73.2763C34.9488 70.5683 34.5064 67.7933 33.8562 65.072C33.3133 62.8064 33.5211 63.3761 34.6204 61.8881C36.2693 59.656 36.1821 56.7135 35.9542 54.0725C35.4314 48.1539 33.6283 41.2834 30.9137 35.8876C30.9405 35.8541 30.974 35.8273 31.0075 35.7938C31.1751 35.6061 31.155 35.3648 30.9539 35.2106C29.687 34.232 27.9108 34.3929 26.3289 34.7548C25.8262 33.8767 24.1438 33.6622 23.7282 34.7213C23.6679 34.8822 23.8756 34.9894 23.9963 34.8889C24.318 34.6141 24.5928 34.4465 25.0285 34.4666C25.3369 34.4867 25.6385 34.6409 25.8329 34.8755C25.5111 34.9626 25.1961 35.0497 24.9079 35.1302C24.7738 35.1704 24.6398 35.2106 24.5057 35.2508C24.4722 35.0631 24.1907 35.043 24.1773 35.2575C24.1773 35.291 24.1773 35.3246 24.1773 35.3514C22.5217 35.8876 20.6784 36.7054 19.5992 38.0459C19.5121 38.066 19.4584 38.1331 19.4182 38.2068C19.2305 38.1331 18.9758 38.2269 18.9758 38.4749C19.0764 44.9097 21.1275 52.3164 23.8689 58.0943C24.9012 60.2593 26.4495 62.545 28.8559 63.2689C30.5852 63.7917 30.9137 62.5249 31.1416 64.9714C31.4298 68.0816 32.1537 71.185 33.2061 74.1209C33.0921 74.0605 32.9178 74.0941 32.9111 74.275C32.9111 74.3085 32.9178 74.3421 32.9178 74.3756C30.8332 74.8783 28.9363 75.7698 27.3745 77.2578C27.1668 77.4522 27.2271 77.841 27.522 77.9214C30.6992 78.7928 35.3108 77.9348 38.7493 76.2256C38.9303 76.9696 39.1448 77.6935 39.4397 78.337C39.232 78.3303 39.0376 78.6319 39.2252 78.7928C41.5713 80.8305 44.9562 80.616 47.872 80.4484C51.4111 80.2406 55.6071 80.5556 58.6234 78.3973C58.7441 78.3102 58.6234 78.0957 58.4893 78.1426C58.3352 78.1962 58.181 78.2431 58.0268 78.2968C60.594 69.9517 58.8513 59.6024 56.3913 51.4584ZM49.6348 34.118C49.8627 35.1838 50.1644 36.2294 50.4995 37.2751C48.5356 35.9144 46.3839 34.9224 44.5607 33.3338C44.6814 32.7708 44.7886 32.2077 44.8825 31.6447C45.3785 32.1541 45.9281 32.5898 46.5247 32.9987C47.3223 33.5416 48.1937 34.165 49.0852 34.547C49.1857 34.5872 49.2528 34.4532 49.1857 34.3862C48.6696 33.7829 47.8921 33.4142 47.2151 33.0121C46.3973 32.5228 45.6064 32.0133 44.9227 31.3497C45.0165 30.7532 45.0836 30.1633 45.1372 29.5735C46.1225 30.5521 47.262 31.6983 48.5758 32.1206C48.6629 32.1474 48.7568 32.0267 48.6763 31.9597C48.1468 31.4972 47.5234 31.142 46.9537 30.7264C46.3236 30.2639 45.7405 29.7478 45.1707 29.2182C45.1975 28.8496 45.2176 28.4876 45.2243 28.1257C46.0756 29.1177 47.2017 30.0896 48.4015 30.418C48.4819 30.4382 48.5557 30.3376 48.4886 30.2773C47.9993 29.8215 47.376 29.5132 46.8263 29.1311C46.2365 28.7222 45.7069 28.2329 45.231 27.6967C45.231 27.5425 45.2176 27.3883 45.2176 27.2342C46.1895 28.2932 47.4899 29.3054 48.7903 29.6137C48.8439 29.6271 48.8975 29.5936 48.9176 29.5467C49.0718 31.0749 49.3064 32.5965 49.6348 34.118ZM44.5071 16.161C44.3999 16.1744 44.3127 16.2481 44.3194 16.3688C44.3597 16.9385 44.2725 17.8434 44.5876 18.4065C44.4468 18.3528 44.3194 18.2858 44.2055 18.1987C44.2591 17.9306 44.1988 17.6222 44.1921 17.3675C44.1787 16.9184 44.1318 16.4693 44.058 16.0269C44.1988 16.0672 44.353 16.1141 44.5071 16.161ZM44.42 22.4885C44.6814 22.5086 44.9227 22.5153 45.1439 22.5019C45.3852 22.4818 45.4656 22.1601 45.2176 22.073C44.8691 21.9456 44.5071 21.8853 44.1452 21.8249C44.0781 21.7445 43.9575 21.7311 43.8636 21.778C43.7497 21.7579 43.629 21.7378 43.5151 21.711C41.7455 21.2887 41.7254 18.9963 43.4548 18.5271C43.5218 18.507 43.5754 18.4668 43.6156 18.4132C43.9039 18.7818 44.3731 19.0164 44.9361 19.117C45.774 19.2644 47.4899 19.2309 48.0261 18.4333C48.1535 18.2456 47.9658 18.0646 47.7781 18.0847C47.4497 18.1182 47.1347 18.3059 46.8129 18.3998C46.3973 18.5204 45.9684 18.5606 45.5394 18.5673C45.3986 18.5673 45.2646 18.5606 45.1305 18.5472C45.1506 18.2121 45.0031 17.8904 44.9428 17.5552C44.8691 17.1463 44.8289 16.7375 44.7685 16.3286C44.7618 16.2817 44.735 16.2414 44.7015 16.2146C45.8812 16.5364 47.4497 16.7509 48.2741 16.2951C48.2406 17.0391 48.2607 17.7764 48.3881 18.5271C48.4283 18.7483 48.7098 18.8019 48.864 18.6746C49.3868 18.2389 49.8761 19.3717 49.9499 19.7001C50.1979 20.7994 48.8439 21.2485 48.0328 21.3691C47.1481 21.5032 46.1962 21.4094 45.3316 21.1815C44.8691 21.0608 44.4267 20.8396 44.1184 20.4643C44.1519 20.4509 44.1988 20.4307 44.2658 20.4039C44.5071 20.3034 44.3664 20.0018 44.1653 19.9682C43.81 19.9079 43.743 19.8543 43.4682 20.0822C43.3609 20.1693 43.3542 20.3235 43.4079 20.4441C44.1586 22.0394 46.8934 22.4483 48.7702 21.8249C48.7702 21.8518 48.7702 21.8786 48.7702 21.9054C48.3345 21.9121 47.9323 22.1601 47.51 22.2472C46.9604 22.3612 46.3705 22.321 45.8276 22.1936C45.526 22.1199 45.3785 22.569 45.6801 22.6561C46.2633 22.8304 46.8464 22.884 47.4497 22.8237C47.8653 22.7835 48.4283 22.6628 48.7501 22.3478C48.6428 24.7273 48.683 27.1001 48.9176 29.4595C48.9109 29.4528 48.9109 29.4461 48.9042 29.4394C48.3412 28.9434 47.624 28.6284 46.9939 28.2262C46.3571 27.8106 45.7472 27.3414 45.2109 26.8052C45.2042 26.6778 45.1908 26.5572 45.1841 26.4365C45.6466 26.8655 46.1024 27.3079 46.5917 27.7034C47.0877 28.1056 47.8586 28.6552 48.5289 28.5211C48.616 28.501 48.6361 28.3804 48.5624 28.3334C47.9926 27.9782 47.3558 27.7905 46.7928 27.395C46.2231 26.9929 45.6935 26.5237 45.1573 26.0746C45.1439 25.8668 45.1171 25.6657 45.0903 25.4579C46.0488 26.155 47.262 27.194 48.435 27.1873C48.5222 27.1873 48.5557 27.08 48.4819 27.0264C47.9658 26.6309 47.2955 26.4231 46.7191 26.1081C46.1426 25.7864 45.593 25.4244 45.0367 25.0758C44.983 24.7206 44.916 24.372 44.8356 24.0235C45.345 24.5664 45.8879 25.0624 46.5314 25.4445C46.9738 25.7126 47.7178 26.0612 48.1937 25.7193C48.2607 25.6724 48.2205 25.5719 48.1602 25.5517C47.9859 25.4847 47.8385 25.4847 47.6575 25.4646C47.2687 25.4244 46.8934 25.23 46.5582 25.0423C45.9549 24.7072 45.4187 24.238 44.9361 23.7487C44.8892 23.6951 44.8289 23.7085 44.7819 23.7353C44.6881 23.313 44.5674 22.8974 44.42 22.4885ZM42.8448 39.5273C43.5151 40.097 44.4803 40.9081 45.3048 40.6936C45.4455 40.6601 45.4589 40.4925 45.3517 40.412C45.0031 40.1506 44.5205 40.0568 44.1318 39.8423C43.7296 39.6211 43.3542 39.353 42.9856 39.0782C43.3609 37.8985 43.7229 36.6919 44.0446 35.4854C44.0513 35.5055 44.0446 35.5189 44.058 35.5391C45.3182 37.0472 47.0207 38.4481 48.8908 39.1117C49.0115 39.1519 49.0785 38.9843 48.9847 38.9173C47.3491 37.7443 45.6131 36.893 44.2323 35.3782C44.1854 35.3246 44.1184 35.3313 44.0714 35.3715C44.1586 35.0497 44.239 34.728 44.3127 34.4063C45.6935 35.8206 47.376 36.9601 49.1455 37.8113C49.293 37.8851 49.4203 37.6974 49.2863 37.5968C47.6776 36.3702 45.8879 35.472 44.3865 34.118C44.4267 33.9438 44.4602 33.7695 44.5004 33.5952C46.2566 35.2374 48.3412 36.7724 50.6 37.6035C50.8481 38.3677 51.1162 39.1251 51.3977 39.8758C51.3709 39.8758 51.3374 39.8691 51.3106 39.8892C48.5155 41.2767 45.5327 40.9282 42.5365 40.4791C42.637 40.1573 42.7376 39.8423 42.8448 39.5273ZM40.539 46.7731C41.035 44.97 41.6986 43.0061 42.3756 40.955C44.1049 41.3303 45.8879 41.5046 47.6575 41.4644C48.8975 41.4376 50.714 41.3035 51.5384 40.2311C52.5305 42.8184 53.6499 45.3722 54.5816 47.926C54.5145 47.8791 54.4341 47.859 54.3403 47.8925C49.7019 49.6754 44.8289 50.3524 39.9291 49.3537C40.1033 48.489 40.3044 47.6244 40.539 46.7731ZM39.8218 49.8698C44.4803 50.9959 50.3252 50.6138 54.5615 48.3214C54.6218 48.2879 54.6553 48.241 54.6754 48.1941C54.7893 48.5158 54.9033 48.8443 55.0173 49.1727C54.9435 49.1057 54.8296 49.0856 54.729 49.166C51.0223 52.437 44.1921 51.9075 39.6542 50.7546C39.7146 50.4597 39.7615 50.1647 39.8218 49.8698ZM26.0206 35.4519C25.9602 35.834 25.6452 36.2294 25.2967 36.2429C25.0486 36.2496 24.8476 36.0753 24.7135 35.8541C25.1425 35.6999 25.5782 35.5659 26.0206 35.4519ZM24.3247 36.0015C24.4789 36.33 24.7537 36.5914 25.1358 36.6651C25.8664 36.8126 26.4093 36.015 26.4697 35.3782C26.4697 35.3648 26.4697 35.3581 26.4697 35.3447C27.8236 35.0631 29.1173 35.0766 30.1026 35.5726C30.1093 35.5927 30.116 35.6195 30.1227 35.6396C27.7633 37.9454 23.7282 38.6961 20.4974 38.1867C21.4559 37.4025 22.8434 36.5847 24.3247 36.0015ZM28.4939 77.3316C29.8948 76.2122 31.47 75.5888 33.2195 75.0794C33.3066 75.1531 33.4138 75.2067 33.5546 75.2335C34.0104 75.314 34.7008 75.1062 34.9287 74.6839C35.0024 74.5566 34.9019 74.3957 34.7477 74.4292C34.4193 74.4962 33.816 74.8917 33.5144 74.7241C33.5211 74.6102 33.4809 74.4895 33.3937 74.4158C33.6082 74.5364 33.9367 74.4024 33.8361 74.1142C32.5894 70.4142 31.9258 66.6538 31.6309 62.7595C31.6175 62.5517 31.4499 62.3573 31.222 62.4176C25.8329 63.899 23.3863 55.4399 22.2602 51.7332C21.7374 50.0039 21.3487 48.2544 21.0202 46.4983C23.3796 46.257 25.7793 45.5062 28.018 44.7689C29.1642 44.3936 32.0263 43.7568 32.1939 42.2352C32.3749 40.5394 29.0771 41.3303 28.0381 41.632C28.0448 41.5582 28.0515 41.4845 28.0515 41.4108C28.0381 40.7204 27.4818 40.1506 26.7914 40.1372C26.5233 40.1305 26.2887 40.2579 26.1144 40.4389C26.0675 40.2579 25.7726 40.2646 25.7457 40.4858C25.6586 41.1159 25.9938 41.766 26.4831 42.1749C24.4856 42.939 22.3273 44.0383 20.8325 45.4794C20.4371 43.2742 20.1086 41.0555 19.6796 38.8369C19.7467 38.8369 19.8204 38.8101 19.8807 38.7497C19.8941 38.7363 19.9075 38.7229 19.9209 38.7095C23.1718 39.7015 27.7432 38.7229 30.3506 36.4372C31.4834 40.2981 33.0921 44.0249 34.1042 47.9394C34.1512 48.1204 34.1981 48.308 34.2517 48.5024C34.2517 48.5024 34.2517 48.5024 34.2517 48.5091C34.1109 50.7546 33.5211 52.8191 32.7369 54.9104C32.7033 54.9975 32.8307 55.0444 32.8776 54.9774C34.0037 53.3486 34.3522 51.331 34.4796 49.3805C35.5118 53.5832 36.8122 60.4939 32.5559 62.4511C32.4084 62.5182 32.3012 62.7327 32.3548 62.8868C33.5345 66.3455 34.1512 69.9249 34.9823 73.4841C34.808 73.6584 34.8751 74.0136 35.1767 74.0136C37.02 74.0069 38.7493 73.7857 40.5122 74.2817C37.6166 76.5339 32.1336 77.975 28.4939 77.3316ZM29.2312 42.0811C29.8479 41.9269 32.2006 41.9269 30.7595 42.8117C28.3465 44.293 24.7671 45.1912 21.7843 45.5867C23.0445 44.7019 24.4722 43.9847 25.8262 43.3345C26.9187 42.805 28.0582 42.376 29.2312 42.0811ZM26.3155 41.2834C26.3423 40.9617 26.349 40.6332 26.7713 40.6131C27.2137 40.5863 27.5555 40.9751 27.5957 41.3907C27.6024 41.5046 27.6024 41.6521 27.5689 41.7794C27.3745 41.8465 27.1869 41.9068 26.9858 41.9805C26.9322 41.947 26.8785 41.9135 26.845 41.8867C26.6238 41.7459 26.4428 41.5247 26.3155 41.2834ZM57.4169 78.4107C57.4035 78.4442 57.4035 78.4777 57.4035 78.5046C54.6218 79.3558 51.9004 79.6507 48.9444 79.7848C46.0823 79.9122 42.6705 80.3948 40.1502 78.7861C40.2106 78.7056 40.2307 78.6051 40.1771 78.4844C39.7615 77.6935 39.5604 76.7953 39.4263 75.8703C40.0162 75.5419 40.5524 75.1866 41.0417 74.818C41.0484 74.8247 41.0484 74.8448 41.0618 74.8515C41.531 75.2201 42.0069 75.5754 42.5164 75.8837C42.8984 76.1183 43.3877 76.3998 43.8502 76.373C43.9709 76.3663 44.0111 76.2323 43.9173 76.1585C43.5285 75.8435 42.999 75.6893 42.5633 75.448C42.1209 75.2 41.712 74.9051 41.3031 74.6102C41.3903 74.5431 41.4774 74.4694 41.5579 74.4024C41.7925 74.1946 41.6718 73.8527 41.4104 73.7455C40.6865 73.4573 39.9156 73.2629 39.1314 73.1556C39.0912 72.8138 39.051 72.4787 38.9906 72.1569C38.4879 69.3417 38.6488 66.3388 38.6622 63.4901C38.6823 59.3745 38.8968 55.212 39.5939 51.1434C44.1452 52.5443 51.3106 52.7655 55.0307 49.4811C55.0709 49.4475 55.0843 49.414 55.091 49.3738C58.1542 58.2618 60.2924 69.3953 57.4169 78.4107Z" fill="#FBECEC"/>
<path fill-rule="evenodd" clip-rule="evenodd" d="M56.6125 67.7798C54.6285 71.3994 47.6306 70.4475 44.2256 70.1593C43.3877 70.0856 42.5499 69.985 41.7187 69.8711C40.177 69.6633 40.5926 67.5519 40.5658 66.4392C40.5457 65.789 40.5256 65.1255 40.4921 64.4686C40.673 65.8963 40.8674 67.324 41.102 68.7852C41.1221 68.9193 41.2562 68.9997 41.3768 69.0131C45.593 69.3684 53.5895 71.5468 56.6326 67.391C56.7399 67.2503 56.6125 67.0894 56.4717 67.0693C57.6381 63.5436 55.7277 59.3208 54.8765 55.8889C54.9033 55.8755 54.9368 55.8621 54.9636 55.8487C55.1513 55.7481 55.0373 55.4666 54.8362 55.5068C54.8027 55.5135 54.7759 55.5202 54.7424 55.5269C54.662 55.4733 54.5547 55.5001 54.5011 55.5805C49.6884 56.6396 45.5393 58.5164 40.4854 57.0351C40.1837 56.9479 40.0497 57.3836 40.3379 57.4976C44.5741 59.1666 50.4526 58.0673 54.5145 56.0699C55.0507 59.9709 56.5723 63.4028 55.9422 67.4178C52.8656 69.8242 48.4082 69.174 44.7551 68.7785C44.0312 68.6981 43.314 68.611 42.5901 68.5305C41.2495 68.3831 41.3098 66.647 41.0484 65.541C40.4183 62.8398 40.6194 60.038 40.1435 57.3099C40.0899 57.0083 39.6609 57.1289 39.6944 57.4171C39.7145 57.5847 39.7279 57.7456 39.748 57.9064C39.6944 57.6316 39.6341 57.3501 39.5738 57.0753C39.5403 56.9412 39.3124 56.9546 39.3258 57.1021C39.7145 61.3651 40.177 65.5746 40.1569 69.8644C40.1569 69.9582 40.2172 70.0722 40.3178 70.0856C44.2122 70.8095 54.8362 72.7332 56.9946 67.9474C57.0817 67.7396 56.7198 67.572 56.6125 67.7798Z" fill="#FBECEC"/>
<path fill-rule="evenodd" clip-rule="evenodd" d="M53.2008 57.4041C49.6013 58.2755 45.6868 60.6349 42.0136 58.6106C41.779 58.4833 41.578 58.805 41.7924 58.9592C44.7953 61.084 50.4861 59.5825 53.308 57.6856C53.4354 57.5918 53.375 57.3572 53.2008 57.4041Z" fill="#FBECEC"/>
<path fill-rule="evenodd" clip-rule="evenodd" d="M51.1162 62.0022C51.0089 61.4257 50.6134 60.8761 49.9767 61.1107C49.293 61.3654 48.797 62.2703 48.5423 62.9406C48.5221 62.9406 48.5154 62.954 48.502 62.9607C47.9725 62.4848 47.2218 61.8681 46.5314 61.7877C45.7941 61.7072 45.3852 62.3306 45.412 63.021C45.4455 63.8253 46.1292 64.5761 46.6185 65.1458C47.2084 65.8295 47.8988 66.4328 48.4618 67.1433C48.6495 67.3779 49.0517 67.0963 48.8908 66.8349C48.8439 66.7612 48.7769 66.6942 48.7232 66.6204C49.1924 65.8094 49.7957 65.0721 50.2984 64.2811C50.7006 63.6779 51.2636 62.7797 51.1162 62.0022ZM46.4979 64.1873C46.2767 63.9058 45.6064 62.5585 46.1627 62.3574C46.3035 62.9741 46.4375 63.5907 46.5984 64.2007C46.6118 64.2476 46.6185 64.2945 46.6319 64.3415C46.5917 64.2945 46.5448 64.2409 46.4979 64.1873ZM47.6441 63.3829C47.691 63.5572 47.7245 63.7382 47.7647 63.9259C47.6575 63.6243 47.5502 63.3293 47.443 63.0277C47.3625 62.7931 46.9872 62.8668 47.0609 63.1148C47.2352 63.7047 47.376 64.3012 47.5234 64.8911C47.5636 65.052 47.5971 65.2195 47.6307 65.3871C47.5569 65.3201 47.4899 65.2463 47.4229 65.1793C47.3827 64.804 47.2352 64.4286 47.1346 64.0733C46.9738 63.5036 46.7928 62.9339 46.5984 62.3708C47.0676 62.5049 47.443 62.8467 47.8385 63.1349C47.7178 63.1416 47.6039 63.2288 47.6441 63.3829ZM48.7635 65.5681C48.5087 64.8174 48.2875 64.0465 48.0395 63.2891C48.0395 63.2824 48.0328 63.2757 48.0261 63.269C48.1401 63.3427 48.2473 63.4165 48.368 63.4701C48.3881 63.4835 48.4149 63.4835 48.435 63.4835C48.4819 63.765 48.5356 64.0465 48.6227 64.3214C48.7098 64.5962 48.7702 64.8777 49.045 64.9983C49.0852 65.0185 49.1254 65.0117 49.1589 64.9916C49.0249 65.186 48.8908 65.3737 48.7635 65.5681ZM49.2863 64.8308C49.3399 64.5895 49.1924 64.3683 49.1053 64.1471C48.9913 63.8656 48.8908 63.5773 48.8104 63.2824C48.8305 63.269 48.8439 63.2623 48.8573 63.2422C48.9846 63.0478 49.112 62.8467 49.2394 62.6523C49.293 63.0143 49.2662 63.4433 49.4673 63.7449C49.5745 63.8991 49.7957 63.8589 49.8158 63.6645C49.8627 63.269 49.7622 62.7797 49.6616 62.3976C49.6415 62.3172 49.5812 62.2636 49.5209 62.2435C49.6415 62.0759 49.7756 61.915 49.9231 61.7676C50.4124 61.7072 50.6403 61.8614 50.6 62.2233C50.5933 62.3775 50.5598 62.5317 50.5129 62.6791C50.4258 63.0009 50.2515 63.3025 50.0906 63.5974C49.856 64.0197 49.5745 64.4219 49.2863 64.8308Z" fill="#FBECEC"/>
<path fill-rule="evenodd" clip-rule="evenodd" d="M55.2183 77.1237C53.1739 77.184 51.0155 77.9883 48.9913 78.3101C47.2083 78.5916 41.3701 79.8115 40.4049 77.4387C40.3043 77.184 39.8686 77.3448 39.9558 77.6063C40.6328 79.778 44.1853 79.3691 45.8811 79.2619C48.6829 79.0876 52.8052 78.8999 55.3054 77.4789C55.4596 77.3985 55.4193 77.1169 55.2183 77.1237Z" fill="#FBECEC"/>
<path fill-rule="evenodd" clip-rule="evenodd" d="M46.766 40.6132C45.8477 39.9429 44.7886 39.5407 43.9105 38.79C43.7296 38.6358 43.448 38.8771 43.629 39.0514C44.4468 39.8356 45.5326 40.7137 46.6922 40.8411C46.8263 40.8545 46.8598 40.6802 46.766 40.6132Z" fill="#FBECEC"/>
<path fill-rule="evenodd" clip-rule="evenodd" d="M47.4027 40.4855C47.5032 40.519 47.5837 40.3917 47.51 40.3112C47.0005 39.775 46.3168 39.4063 45.727 38.9639C45.0232 38.4277 44.3797 37.8245 43.8234 37.1341C43.7027 36.9866 43.4949 37.1877 43.6022 37.3351C44.5205 38.5685 45.9147 39.9828 47.4027 40.4855Z" fill="#FBECEC"/>
<path fill-rule="evenodd" clip-rule="evenodd" d="M48.7433 40.2648C48.8171 40.2916 48.8573 40.1911 48.7969 40.1441C47.3893 39.0046 45.8879 38.0595 44.5741 36.7927C44.42 36.6452 44.1787 36.8664 44.3328 37.0206C45.6064 38.2807 47.0274 39.6414 48.7433 40.2648Z" fill="#FBECEC"/>
<path fill-rule="evenodd" clip-rule="evenodd" d="M45.1774 32.7106C45.0098 32.59 44.8422 32.8581 45.0031 32.9855C46.4241 34.0847 48.0596 35.6197 49.856 36.0286C49.9833 36.0621 50.0571 35.9012 49.9498 35.8208C49.1924 35.2577 48.3009 34.8556 47.5033 34.3461C46.7056 33.8367 45.9415 33.2737 45.1774 32.7106Z" fill="#FBECEC"/>
<path fill-rule="evenodd" clip-rule="evenodd" d="M45.2242 30.8806C46.3771 31.886 47.6708 33.0389 49.1119 33.6019C49.2192 33.6422 49.3197 33.488 49.2326 33.4143C48.0462 32.3954 46.5514 31.7452 45.3382 30.7398C45.2645 30.6728 45.1438 30.8135 45.2242 30.8806Z" fill="#FBECEC"/>
<path fill-rule="evenodd" clip-rule="evenodd" d="M47.1882 24.7741C47.5703 24.8813 48.1534 24.8813 48.4014 24.5126C48.4483 24.4456 48.3947 24.3451 48.3143 24.3451C47.9121 24.3518 47.5904 24.4992 47.1748 24.4121C46.7123 24.3116 46.3302 24.03 46.0286 23.6748C45.9214 23.5474 45.7404 23.7217 45.8409 23.8491C46.1895 24.2915 46.6453 24.6132 47.1882 24.7741Z" fill="#FBECEC"/>
<path fill-rule="evenodd" clip-rule="evenodd" d="M48.5221 23.8091C48.5824 23.7555 48.5489 23.675 48.4886 23.6415C48.2607 23.541 47.9993 23.6013 47.7513 23.6013C47.4228 23.6013 47.1279 23.5007 46.8665 23.3131C46.719 23.2058 46.5783 23.4404 46.719 23.5477C47.1346 23.8828 48.0462 24.2113 48.5221 23.8091Z" fill="#FBECEC"/>
<path fill-rule="evenodd" clip-rule="evenodd" d="M44.3597 52.9865C44.4535 52.9395 44.4535 52.7653 44.3396 52.7452C43.8771 52.6513 43.3945 52.725 42.9253 52.6982C42.2013 52.658 41.4506 52.4435 40.8004 52.1285C40.6396 52.0481 40.4921 52.2625 40.6463 52.3698C41.5981 53.0066 43.2537 53.5562 44.3597 52.9865Z" fill="#FBECEC"/>
<path fill-rule="evenodd" clip-rule="evenodd" d="M43.2536 53.7445C43.3072 53.7043 43.3005 53.6037 43.2402 53.5769C42.9989 53.4563 42.7442 53.4898 42.4761 53.4764C42.0404 53.4496 41.6248 53.3155 41.2428 53.0943C41.0685 52.9938 40.9009 53.2485 41.0752 53.3624C41.6047 53.711 42.6705 54.2003 43.2536 53.7445Z" fill="#FBECEC"/>
<path fill-rule="evenodd" clip-rule="evenodd" d="M43.3207 54.6089C43.3944 54.5753 43.3944 54.4547 43.3274 54.4212C43.0794 54.2804 42.7911 54.2737 42.5096 54.2402C42.0873 54.1866 41.6785 54.086 41.283 53.9386C41.1288 53.8782 41.0082 54.1262 41.1623 54.2C41.7522 54.4681 42.6839 54.877 43.3207 54.6089Z" fill="#FBECEC"/>
<path fill-rule="evenodd" clip-rule="evenodd" d="M43.2 77.4324C43.2871 77.4257 43.3743 77.3117 43.2871 77.2447C42.9855 76.9833 42.5967 76.8626 42.2482 76.6682C41.7723 76.4068 41.3232 76.0985 40.9679 75.6896C40.8473 75.5556 40.6663 75.7365 40.7668 75.8773C41.2696 76.5677 42.2683 77.486 43.2 77.4324Z" fill="#FBECEC"/>
<path fill-rule="evenodd" clip-rule="evenodd" d="M44.7886 75.2404C44.0245 74.6372 43.1665 74.1613 42.3957 73.558C41.531 72.8743 40.7602 72.0633 40.0899 71.1852C39.9491 71.0042 39.7011 71.2455 39.8285 71.4265C41.0082 73.0419 42.7241 74.8182 44.6881 75.4482C44.8221 75.4951 44.8892 75.3209 44.7886 75.2404Z" fill="#FBECEC"/>
<path fill-rule="evenodd" clip-rule="evenodd" d="M43.3676 73.015C43.2403 72.8541 43.0191 73.0686 43.1397 73.2295C43.8502 74.2215 45.2243 75.4146 46.5247 75.4146C46.6453 75.4146 46.6922 75.2604 46.5917 75.1934C46.1158 74.8449 45.4991 74.6907 44.9763 74.4025C44.3462 74.0472 43.8033 73.578 43.3676 73.015Z" fill="#FBECEC"/>
<path fill-rule="evenodd" clip-rule="evenodd" d="M47.6977 74.7444C47.0207 74.349 46.2834 74.0473 45.593 73.6787C45.4187 73.5848 45.2445 73.8463 45.4254 73.9468C46.1024 74.3289 46.8196 74.8182 47.5905 74.9858C47.7245 75.0059 47.8318 74.8249 47.6977 74.7444Z" fill="#FBECEC"/>
<path fill-rule="evenodd" clip-rule="evenodd" d="M58.8044 37.5229C58.3553 37.5028 58.3285 38.2066 58.7776 38.22C59.2267 38.2401 59.2535 37.5363 58.8044 37.5229Z" fill="#FBECEC"/>
<path fill-rule="evenodd" clip-rule="evenodd" d="M59.2066 39.5743C58.5899 39.5475 58.5564 40.4993 59.1664 40.5261C59.783 40.5462 59.8165 39.5944 59.2066 39.5743Z" fill="#FBECEC"/>
<path fill-rule="evenodd" clip-rule="evenodd" d="M60.9493 37.9923C60.0712 37.9588 60.0176 39.3195 60.8957 39.3597C61.7737 39.3932 61.8274 38.0258 60.9493 37.9923Z" fill="#FBECEC"/>
<path fill-rule="evenodd" clip-rule="evenodd" d="M62.0285 34.8956C61.1303 34.8621 61.07 36.2563 61.9748 36.2965C62.8797 36.33 62.9334 34.9358 62.0285 34.8956Z" fill="#FBECEC"/>
<path fill-rule="evenodd" clip-rule="evenodd" d="M59.716 32.7103C59.2133 32.6902 59.1798 33.4745 59.6825 33.4946C60.1919 33.5147 60.2254 32.7304 59.716 32.7103Z" fill="#FBECEC"/>
<path fill-rule="evenodd" clip-rule="evenodd" d="M57.3231 32.5294C56.7064 32.5025 56.6662 33.4678 57.2828 33.4879C57.9062 33.5147 57.9397 32.5562 57.3231 32.5294Z" fill="#FBECEC"/>
<path fill-rule="evenodd" clip-rule="evenodd" d="M55.9222 25.545C55.0441 25.5115 54.9838 26.8789 55.8686 26.9124C56.7467 26.9459 56.8003 25.5853 55.9222 25.545Z" fill="#FBECEC"/>
<path fill-rule="evenodd" clip-rule="evenodd" d="M58.5832 24.9686C58.0604 24.9485 58.0269 25.7596 58.5497 25.7797C59.0725 25.7998 59.1061 24.9954 58.5832 24.9686Z" fill="#FBECEC"/>
<path fill-rule="evenodd" clip-rule="evenodd" d="M65.0448 31.6314C64.4214 31.6046 64.3812 32.5765 65.0045 32.6033C65.6279 32.6234 65.6681 31.6582 65.0448 31.6314Z" fill="#FBECEC"/>
<path fill-rule="evenodd" clip-rule="evenodd" d="M36.3497 34.5337C35.666 34.5069 35.6258 35.5592 36.3095 35.5861C36.9865 35.6129 37.0334 34.5605 36.3497 34.5337Z" fill="#FBECEC"/>
<path fill-rule="evenodd" clip-rule="evenodd" d="M35.4918 37.9789C34.969 37.9588 34.9355 38.7698 35.4583 38.7899C35.9811 38.81 36.0146 37.999 35.4918 37.9789Z" fill="#FBECEC"/>
<path fill-rule="evenodd" clip-rule="evenodd" d="M33.1927 35.3986C32.4621 35.3718 32.2677 36.2297 32.6498 36.6453C31.9862 36.8598 32.0197 38.006 32.8442 38.0395C33.5547 38.0663 33.749 37.2352 33.3804 36.8263C34.0775 36.6185 34.044 35.4321 33.1927 35.3986Z" fill="#FBECEC"/>
<path fill-rule="evenodd" clip-rule="evenodd" d="M34.0305 32.5831C33.1256 32.5496 33.072 33.9438 33.9769 33.984C34.8751 34.0175 34.9287 32.6166 34.0305 32.5831Z" fill="#FBECEC"/>
<path fill-rule="evenodd" clip-rule="evenodd" d="M34.788 31.571C34.3992 31.5576 34.3724 32.1609 34.7612 32.181C35.1567 32.1944 35.1768 31.5844 34.788 31.571Z" fill="#FBECEC"/>
<path fill-rule="evenodd" clip-rule="evenodd" d="M30.3506 28.3942C29.4993 28.3607 29.4457 29.6811 30.297 29.7147C31.1549 29.7549 31.2086 28.4277 30.3506 28.3942Z" fill="#FBECEC"/>
<path fill-rule="evenodd" clip-rule="evenodd" d="M28.7822 31.6113C28.7487 31.6113 28.742 31.665 28.7822 31.665C28.8157 31.665 28.8157 31.6113 28.7822 31.6113Z" fill="#FBECEC"/>
<path fill-rule="evenodd" clip-rule="evenodd" d="M29.0168 25.6458C28.7151 25.6324 28.7017 26.0949 28.9967 26.1083C29.2983 26.1217 29.3184 25.6592 29.0168 25.6458Z" fill="#FBECEC"/>
<path fill-rule="evenodd" clip-rule="evenodd" d="M27.7767 20.7458C27.4148 20.7324 27.388 21.2955 27.7566 21.3089C28.1186 21.329 28.1387 20.7592 27.7767 20.7458Z" fill="#FBECEC"/>
<path fill-rule="evenodd" clip-rule="evenodd" d="M28.0515 25.8401C27.7365 25.8267 27.7164 26.316 28.0314 26.3294C28.3464 26.3428 28.3665 25.8535 28.0515 25.8401Z" fill="#FBECEC"/>
<path fill-rule="evenodd" clip-rule="evenodd" d="M26.7579 28.2198C26.1748 28.193 26.1413 29.0979 26.7244 29.118C27.3009 29.1448 27.3411 28.2466 26.7579 28.2198Z" fill="#FBECEC"/>
<path fill-rule="evenodd" clip-rule="evenodd" d="M28.447 27.9245C28.0114 27.9111 27.9845 28.5814 28.4202 28.6015C28.8559 28.6149 28.8827 27.9379 28.447 27.9245Z" fill="#FBECEC"/>
<path fill-rule="evenodd" clip-rule="evenodd" d="M32.1738 24.8013C31.5504 24.7745 31.5102 25.7464 32.1336 25.7732C32.7636 25.7934 32.8039 24.8281 32.1738 24.8013Z" fill="#FBECEC"/>
<path fill-rule="evenodd" clip-rule="evenodd" d="M33.4407 23.1523C33.4072 23.1523 33.4005 23.206 33.4407 23.206C33.4742 23.206 33.4742 23.1523 33.4407 23.1523Z" fill="#FBECEC"/>
<path fill-rule="evenodd" clip-rule="evenodd" d="M67.3306 28.4743C66.5396 28.4408 66.4927 29.6674 67.2836 29.6942C68.0679 29.7277 68.1215 28.5078 67.3306 28.4743Z" fill="#FBECEC"/>
<path fill-rule="evenodd" clip-rule="evenodd" d="M69.8843 30.6393C69.8441 30.6393 69.8039 30.646 69.7637 30.646C69.6631 30.5924 69.5492 30.5522 69.4084 30.5522C69.2341 30.5455 69.2408 30.5522 69.0733 30.4919C68.2421 30.1835 67.7595 31.3699 68.4365 31.8458C68.7046 32.0335 69.0263 32.0871 69.3481 32.114C69.4888 32.1274 69.6095 32.0938 69.71 32.0469C69.7503 32.0536 69.7838 32.0603 69.8307 32.0603C70.7423 32.0938 70.7959 30.6728 69.8843 30.6393Z" fill="#FBECEC"/>
<path fill-rule="evenodd" clip-rule="evenodd" d="M69.7369 28.2662C68.8655 28.2327 68.8119 29.58 69.6832 29.6135C70.5546 29.647 70.6082 28.2998 69.7369 28.2662Z" fill="#FBECEC"/>
<path fill-rule="evenodd" clip-rule="evenodd" d="M71.0103 26.5371C70.3199 26.5103 70.2797 27.5828 70.9701 27.6096C71.6604 27.6297 71.7007 26.5639 71.0103 26.5371Z" fill="#FBECEC"/>
<path fill-rule="evenodd" clip-rule="evenodd" d="M68.5907 20.873C68.155 20.8529 68.1282 21.5299 68.5639 21.5433C68.9996 21.5634 69.0264 20.8931 68.5907 20.873Z" fill="#FBECEC"/>
<path fill-rule="evenodd" clip-rule="evenodd" d="M65.3732 23.34C64.5622 23.3065 64.5153 24.5666 65.3263 24.5935C66.1306 24.627 66.1843 23.3668 65.3732 23.34Z" fill="#FBECEC"/>
<path fill-rule="evenodd" clip-rule="evenodd" d="M14.4715 41.1966C13.9018 41.1765 13.8683 42.0479 14.438 42.0747C15.0078 42.0948 15.0413 41.2167 14.4715 41.1966Z" fill="#FBECEC"/>
<path fill-rule="evenodd" clip-rule="evenodd" d="M9.85327 42.6844C9.27682 42.6643 9.2433 43.5558 9.81975 43.5759C10.3895 43.596 10.4297 42.7045 9.85327 42.6844Z" fill="#FBECEC"/>
<path fill-rule="evenodd" clip-rule="evenodd" d="M13.7543 35.1302C12.836 35.09 12.7824 36.5177 13.7007 36.5579C14.619 36.5915 14.6726 35.1637 13.7543 35.1302Z" fill="#FBECEC"/>
<path fill-rule="evenodd" clip-rule="evenodd" d="M16.7037 45.5599C15.7653 45.5197 15.7116 46.9742 16.6433 47.0077C17.5817 47.0412 17.6354 45.5934 16.7037 45.5599Z" fill="#FBECEC"/>
</svg>
